<?xml version="1.0" encoding="UTF-8" standalone="no"?>
<svg
   version="1.1"
   viewBox="0 0 1862.1914 1880"
   width="611.29688"
   height="616.875"
   id="svg384"
   sodipodi:docname="homem_azul.svg"
   xmlns:inkscape="http://www.inkscape.org/namespaces/inkscape"
   xmlns:sodipodi="http://sodipodi.sourceforge.net/DTD/sodipodi-0.dtd"
   xmlns="http://www.w3.org/2000/svg"
   xmlns:svg="http://www.w3.org/2000/svg">
  <defs
     id="defs384" />
  <sodipodi:namedview
     id="namedview384"
     pagecolor="#505050"
     bordercolor="#ffffff"
     borderopacity="1"
     inkscape:showpageshadow="0"
     inkscape:pageopacity="0"
     inkscape:pagecheckerboard="1"
     inkscape:deskcolor="#505050">
    <inkscape:page
       x="0"
       y="0"
       width="1862.1914"
       height="1880"
       id="page2"
       margin="0"
       bleed="0" />
  </sodipodi:namedview>
  <path
     d="m 1064.5714,0 h 743 l 1,2 v 1089 l 54,2 v 61 l -1,7 -223,1 h -137 l -491,-1 -1,-1 v -67 l 26,-1 h 29 l -1,-197 -19,-38 -14,-31 -15,-35 -16.99997,-41 -14,-37 -17,-46 -14,-37 -11,-27 v 22 l 2,55 2,83 v 89 l -2,29 -2,8 -1,5 6,20 5,26 5,35 3,26 v 7 l -4,1 5,5 4,50 4,67 4,97 3,110 2,105 1,105 2,133 1,51 v 22 l -11,4 -10,2 2,15 7,25 7,22 1,6 v 10 l -7,32 -3,5 -4,3 -15,2 h -28 l -14,-2 -5,-3 -4,-8 -5,-16 -1,-6 v -12 l 2,-14 6,-23 2,-13 v -22 l -16,-3 -2,-5 -16,-120 -12,-91 -16,-121 -21,-163 -14,-112 -6,-51 -7,31 -14,48 -14,43 -14,39 -15,39 -12,28 -2,5 v 22 l 5,49 7,55 10,69 12,74 13,71 12,58 5,21 -3,3 -9,3 3,11 9,60 1,14 v 30 l -18,1 h -15 l -1,-2 h -42 l -36,1 h -79 l -7,-2 -5,-6 -3,-6 -1,-4 v -15 l 3,-6 6,-5 15,-5 50,-12 27,-8 12,-5 6,-4 3,-8 3,-9 3,-2 1,-3 -4,1 -27,2 h -7 l -4,-10 -12,-41 -17,-62 -15,-60 -12,-54 -9,-45 -9,-55 -5,-43 -2,-26 v -48 l 4,-33 7,-42 12,-64 13,-64 14,-64 7,-31 3,-3 9,-5 1,-3 -4,1 -6,2 1,-8 14,-58 12,-48 v -6 l -3,-3 -4,-13 -5,-27 -5,-40 -5,-53 -4,-55 -2,-42 -2,-77 -7,11 -18,30 -14,20 -10,13 -9,10 -7,8 -11,9 -10,7 -13,6 -4,1 h -15 l -17,-5 -21,-11 -14,-10 -13,-10 -13,-11 -20,-18 -14,-14 -8,-7 -20,-20 -8,-7 -46,-46 8,-32 5,-12 16,-32 h 8 l 90,65 15,11 36,26 17,12 4,2 10,-30 12,-30 15,-33 15,-29 13,-22 17,-25 10,-13 12,-14 13,-14 11,-9 10,-8 20,-12 15,-6 19,-5 4,-1 2,-7 5,-3 4,-2 1,-13 -15,-1 -10,-5 -4,-6 -2,-11 -1,-54 -14,-3 -3,-2 1,-10 12,-38 2,-22 2,-25 2,-9 -9,-2 -12,-6 -11,-9 -8,-9 -4,-8 -1,-3 v -8 l 5,-10 7,-7 12,-6 9,-2 12,-1 h 17 l 27,2 24,3 25,5 15,5 21,10 14,10 13,13 8,13 5,13 3,14 v 29 l -4,20 -6,17 -8,16 -10,16 -9,11 -9,10 -4,3 h -2 l 3,28 2,13 6,-2 h 8 l 5,4 1,2 v 6 l -4,7 12,3 16,6 21,11 13,9 14,11 12,11 11,11 9,11 13,17 12,18 11,19 9.99997,19 12,27 11,29 11,34 9,35 10,40 7,22 2,5 z"
     fill="#0517eb"
     data-index="1"
     id="path2" />
  <path
     d="m 1485.5714,411 h 12 l 13,2 13,5 9,6 10,10 6,10 4,11 2,11 v 17 l 11,-4 7,-1 h 10 l 12,2 9,4 6,4 5,4 7,11 4,9 2,9 v 19 l -7,35 -2,17 14,-3 h 14 l -3,-15 -2,-26 2,-23 5,-18 8,-16 11,-12 8,-6 13,-6 11,-3 8,-1 h 13 l 17,3 15,6 10,7 5,4 10,13 6,12 3,10 2,18 -1,18 -4,16 -6,16 -20,39 -6,16 -3,13 -1,11 -1,30 -2,18 -5,15 -9,16 -29,43 -13,24 -6,16 -5,24 h 27 l 1,5 -14,74 -21,110 -9,47 v 3 h 141 l 1,-135 1,-67 1,-174 1,-23 h 1 l 1,400 54,2 v 61 l -1,7 -223,1 h -137 l -491,-1 -1,-1 v -67 l 26,-1 h 29 V 899 h 2 l 1,2 1,189 h 218 l 165,1 -4,-23 -21,-116 -10,-56 -7,-40 v -3 l 6,-1 27,-1 -9,-16 -9,-8 -23,-12 -16,-10 -11,-9 -7,-8 -5,-11 -2,-20 -1,-22 -3,-16 -6,-9 -10,-11 -7,-8 -8,-9 -10,-14 -8,-14 -5,-13 -2,-9 v -22 l 5,-19 8,-16 6,-8 5,-6 11,-8 10,-4 4,-1 h 14 l 10,3 12,7 7,7 2,1 -1,-5 -1,-18 v -17 l 2,-21 4,-18 7,-19 8,-15 9,-11 7,-7 14,-10 16,-8 12,-4 z"
     fill="#000740"
     data-index="2"
     style="opacity:1"
     id="path3" />
  <path
     d="m 939.57143,892 2,2 6,20 5,26 5,35 3,26 v 7 l -4,1 5,5 4,50 4,67 4,97 3,110 2,105 1,105 2,133 1,51 v 22 l -11,4 -10,2 2,15 7,25 7,22 1,6 v 10 l -7,32 -3,5 -4,3 -15,2 h -28 l -14,-2 -5,-3 -4,-8 -5,-16 -1,-6 v -12 l 2,-14 6,-23 2,-13 v -22 l -16,-3 -2,-5 -16,-120 -12,-91 -16,-121 -21,-163 -14,-112 -6,-51 -7,31 -14,48 -14,43 -14,39 -15,39 -12,28 -2,5 v 22 l 5,49 7,55 10,69 12,74 13,71 12,58 5,21 -3,3 -9,3 3,11 9,60 1,14 v 30 l -18,1 h -15 l -1,-2 h -42 l -36,1 h -79 l -7,-2 -5,-6 -3,-6 -1,-4 v -15 l 3,-6 6,-5 15,-5 50,-12 27,-8 12,-5 6,-4 3,-8 3,-9 3,-2 1,-3 -4,1 -27,2 h -7 l -4,-10 -12,-41 -17,-62 -15,-60 -12,-54 -9,-45 -9,-55 -5,-43 -2,-26 v -48 l 4,-33 7,-42 12,-64 13,-64 14,-64 7,-31 3,-3 9,-5 1,-3 -4,1 -6,2 1,-8 14,-58 12,-48 2,-5 10,3 32,10 2,4 h 3 l 1,-2 h 10 l 36,3 h 32 l 36,-3 28,-4 17,-3 h 4 l 1,12 3,-1 1,-13 29,-8 z"
     fill="#00073f"
     data-index="3"
     id="path4" />
  <path
     d="m 1512.5714,341 h 20 l 27,3 23,6 23,10 15,9 16,12 28,24 9,8 15,11 13,8 17,7 14,4 23,3 h 33 l 14,-1 1,1 1,263 v 246 l -1,135 -1,1 h -141 l -1,-4 20,-104 23,-121 1,-10 -27,-1 2,-14 4,-16 8,-18 11,-19 29,-43 8,-15 4,-13 2,-18 1,-30 2,-17 6,-18 12,-25 11,-21 7,-20 2,-10 1,-18 -2,-18 -5,-15 -6,-10 -8,-10 -12,-9 -14,-6 -12,-3 -8,-1 h -13 l -16,3 -12,5 -10,6 -9,9 -7,11 -6,15 -3,12 -2,23 2,26 3,16 h -15 l -14,2 v -9 l 3,-20 4,-16 1,-7 v -19 l -3,-12 -7,-13 -5,-5 -6,-5 -9,-4 -7,-2 -7,-1 h -10 l -11,2 -7,2 -1,-17 -3,-14 -5,-12 -7,-9 -8,-8 -14,-7 -10,-3 -9,-1 h -12 l -17,3 -14,5 -16,9 -13,11 -9,10 -9,16 -6,15 -4,14 -3,17 -1,14 v 17 l 1,23 -4,-2 -8,-7 -14,-7 -5,-1 h -14 l -12,4 -9,6 -5,4 -8,10 -8,16 -5,16 -1,5 v 22 l 4,15 8,16 10,15 11,13 14,15 8,11 3,10 1,8 2,36 2,9 5,9 8,9 14,10 23,13 13,7 7,7 9,16 v 1 l -34,1 4,21 12,67 9,49 16,89 1,4 v 8 h -383 V 905 l 4,4 10,18 7,9 2,2 7,-1 3,8 v 12 l -4,30 -1,36 -1,10 v 11 l 2,2 6,-1 6,-4 4,-11 2,-30 2,-5 4,2 7,19 5,13 8,11 13,16 11,12 7,5 5,1 5,-2 2,-3 -1,-8 -6,-9 -11,-14 -10,-12 -4,-8 -3,-10 h 3 l 10,12 12,17 14,17 7,7 6,3 6,-2 1,-2 -1,-9 -5,-10 -13,-17 -12,-16 -8,-13 -1,-4 4,2 8,7 7,8 13,16 9,11 9,6 4,-1 2,-4 -2,-10 -6,-11 -9,-10 -11,-14 -7,-11 1,-3 17,6 10,5 7,1 4,-2 1,-7 -5,-6 -16,-8 -16,-9 -11,-8 -13,-12 -10,-13 -8,-13 -4,-8 2,-5 1,-4 -6,-14 -28,-84 -15,-43 -11,-25 -13,-30 -8,-22 -1,-7 v -32 l 1,-29 17,-5 17,-8 20,-12 28,-21 14,-12 10,-9 8,-7 12,-11 8,-7 10,-9 8,-7 15,-13 14,-12 34,-28 28,-21 18,-13 20,-13 20,-12 18,-10 22,-11 28,-11 23,-7 24,-5 14,-2 z"
     fill="#fefefd"
     data-index="4"
     id="path5" />
  <path
     d="m 1068.5714,4 h 734 l 2,2 v 111 l -1,121 -9,2 -20,4 -6,1 -10,-9 -14,-11 -15,-11 -20,-12 -23,-12 -23,-10 -24,-8 -27,-7 -36,-6 -21,-2 h -56 l -35,3 -35,5 -34,7 -31,9 -20,7 -23,10 -5,-1 -16,-17 -7,-8 -8,-8 -7,-8 -15,-15 -7,-8 -15,-16 -14,-15 -5,-5 -3,-1 6,8 7,7 7,8 11,11 7,8 7,7 7,8 7,7 7,8 11,11 7,8 10,10 1,4 -18,10 -16,10 -4,3 -6,-1 -17,-8 -18,-5 -15,-2 h -30 l -27,4 -21,6 -19,7 -23,11 -18,11 -13,9 h -1 z"
     fill="#fefefd"
     data-index="5"
     id="path6" />
  <path
     d="m 110.57143,174 9,1 29,9 162,52 8,5 3,5 -1,9 -9,28 -11,36 -10,31 -11,36 1,4 12,9 9,8 9,11 12,17 8,12 8,10 12,9 9,5 -2,6 -16,32 -6,21 -4,16 -4,-2 -9,-9 -7,-10 -11,-9 -10,-7 -15,-3 -24,-5 -8,-3 -3,12 -18,58 -5,14 -5,5 -8,1 -32,-10 -24,-8 -50.000001,-16 -62,-20 -30.0000004,-10 -6.00000003,-5 -1,-2 v -8 l 12.00000043,-39 55,-176 18,-58 16.000001,-51 4,-8 z"
     fill="#fefefd"
     data-index="6"
     id="path7" />
  <path
     d="m 1187.5714,211 h 36 l 17,3 18,6 17,9 16,13 10,10 7,8 16,21 12,17 10,13 12,14 7,7 13,10 14,10 16,10 -1,3 -30,15 -22,13 -25,16 -18,13 -19,14 -14,11 -16,13 -11,9 -13,11 -14,12 -10,9 -11,9 -16,15 -8,7 -12,11 -14,12 -15,12 -18,13 -18,11 -21,10 -11,4 h -3 V 260 l 21,-14 17,-10 17,-8 21,-8 23,-6 z"
     fill="#fefefd"
     data-index="7"
     id="path8" />
  <path
     d="m 1494.5714,160 h 66 l 27,3 31,6 28,8 24,9 26,12 23,13 16,11 16,12 12,10 v 3 l -13,6 -12,7 -11,9 -10,10 -10,13 -13,19 -12,17 -8,10 -11,12 -13,11 -16,10 -4,2 -8,-6 -19,-11 -16,-7 -20,-6 -17,-3 -10,-1 h -39 l -27,4 -24,6 -21,7 -16,6 -15,-9 -19,-14 -16,-13 -8,-8 -8,-10 -10,-13 -12,-17 -16,-21 -14,-15 -11,-10 -5,-4 1,-4 20,-12 16,-9 28,-12 22,-8 32,-9 35,-7 28,-4 z"
     fill="#fefefd"
     data-index="8"
     id="path9" />
  <path
     d="m 1481.5714,415 h 20 l 16,4 11,6 11,11 8,16 3,12 v 29 l -4,23 -6,25 -12,38 -3,14 -1,10 v 12 l 3,15 5,14 12,23 10,15 10,18 8,18 3,14 v 19 l -3,17 -6,17 -6,12 -11,18 -12,17 -8,13 -3,6 h -35 v -11 l 4,-29 5,-30 2,-17 v -24 l -4,-12 -8,-18 7,-12 4,-14 1,-5 1,-16 h -3 v 10 l -3,16 -5,13 -4,4 -5,-8 -8,-15 -9,-21 -6,-21 -2,-11 -1,-23 2,-23 6,-25 7,-18 1,-5 h -2 l -2,5 -7,18 -6,23 h -2 l -9,-15 -7,-17 -6,-20 v -2 h -3 l 5,19 6,16 10,18 2,4 3,1 v 41 l 3,18 6,19 9,21 20,38 6,16 1,6 v 12 l -4,31 -7,44 -2,19 -2,1 h -18 l -1,-1 -1,-19 -4,-16 -4,-9 -9,-15 -13,-18 -9,-16 -6,-14 -3,-11 -2,-18 -1,-49 -2,-24 -5,-25 -8,-39 -2,-16 -1,-14 v -22 l 2,-22 5,-21 8,-19 9,-14 11,-12 15,-11 15,-7 14,-4 z"
     fill="#fefefd"
     data-index="9"
     id="path10" />
  <path
     d="m 110.57143,174 9,1 29,9 162,52 8,5 3,5 -1,9 -9,28 -11,36 -10,31 -11,36 1,4 12,9 9,8 9,11 12,17 8,12 8,10 12,9 9,5 -2,6 -16,32 -6,21 -4,16 -4,-2 -9,-9 -7,-10 -11,-9 -10,-7 -15,-3 -24,-5 -8,-3 -3,12 -18,58 -5,14 -5,5 -8,1 -32,-10 -24,-8 -50.000001,-16 -62,-20 -30.0000004,-10 -6.00000003,-5 -1,-2 v -8 l 12.00000043,-39 55,-176 18,-58 16.000001,-51 4,-8 z m 6,28 -5,5 -9,27 -20.000001,64 -22,70 -22,71 -9,29 -1,9 2,3 36,12 41.000001,13 100,32 h 5 l 4,-5 14,-45 24,-77 1,-7 -9,1 -21,9 -9,1 -5,-2 -4,-6 -58,-19 -47,-15 -6.000001,-3 v -7 l 14.000001,-45 4,-10 9,1 30,10 35,11 56,18 3,2 v 8 l -7,22 1,4 22,-1 11,-36 24,-78 v -6 l -3,-3 -30,-10 -57,-18 -55,-18 -32,-10 z"
     fill="#040889"
     data-index="10"
     id="path11" />
  <path
     d="m 1704.5714,467 h 20 l 16,4 16,8 10,9 8,10 6,13 3,12 1,9 v 14 l -3,17 -6,18 -8,16 -12,23 -8,21 -3,13 -1,8 -1,37 -2,14 -5,14 -6,11 -28,42 -9,15 -8,16 -6,16 -4,23 -1,1 h -19 l 4,-23 5,-19 8,-20 9,-21 9,-25 6,-22 3,-18 1,-12 v -30 l 8,-16 1,-4 v -23 l 14,-11 10,-12 9,-16 8,-20 3,-11 h -3 l -3,10 -8,20 -8,14 -7,9 -10,10 -5,2 -1,-1 -3,-26 1,-12 4,-13 8,-16 -1,-2 -6,9 -6,15 -3,12 h -2 l -8,-16 -4,-15 -2,-12 -2,-22 -2,-1 1,21 3,18 5,16 5,10 6,7 4,32 v 25 l -4,10 -3,1 -5,-19 -8,-16 -7,-9 -7,-7 -14,-8 -7,-3 -4,-23 v -37 l 3,-15 5,-13 7,-12 9,-10 11,-7 13,-5 z"
     fill="#fefefd"
     data-index="11"
     id="path12" />
  <path
     d="m 1798.5714,242 5,1 1,45 v 90 l -1,63 -13,2 h -36 l -18,-2 -19,-5 -14,-6 -16,-10 -16,-13 -8,-7 -28,-24 -1,-2 14,-8 16,-13 10,-10 11,-14 13,-18 10,-15 11,-14 2,-3 h 2 l 2,-4 12,-11 13,-8 16,-7 21,-5 z"
     fill="#fefefd"
     data-index="12"
     id="path13" />
  <path
     d="m 764.57143,112 h 22 l 8,3 5,5 4,8 1,4 v 14 l -4,14 -5,12 -3,13 v 19 l 4,4 3,-1 6,-9 6,-3 h 9 l 5,2 2,3 v 8 l -4,10 -9,9 -1,2 v 9 l 5,20 4,6 2,6 2,21 3,14 -1,5 -10,9 -10,6 -13,4 -4,1 h -29 l -21,-4 -1,-5 1,-11 18,-4 13,-5 14,-9 13,-11 2,-5 -5,3 -8,8 -14,10 -16,7 -16,3 h -16 l -10,-3 -4,-5 -2,-10 -1,-57 -7,-2 -9,-2 -2,-1 3,-12 10,-30 2,-13 3,-39 2,-7 9,-4 20,-6 z"
     fill="#fefefd"
     data-index="13"
     id="path14" />
  <path
     d="m 1354.5714,551 11,1 12,5 10,8 7,7 2,4 7,36 6,28 2,19 1,52 3,27 -3,-3 -4,-10 -4,-13 -4,-6 -7,-7 3,-9 3,-13 1,-8 v -18 h -2 l -2,25 -4,16 -2,5 -6,-4 -7,-7 -5,-8 -5,-16 -2,-12 -2,1 1,15 -6,-1 -10,-7 -5,-4 -9,-12 -3,-1 6,10 11,11 18,9 7,14 10,11 12,9 6,7 3,10 4,11 6,9 6,10 8,16 10,15 11,16 8,14 4,12 1,6 1,19 -2,2 h -15 l -8,-16 -9,-10 -8,-5 -16,-8 -15,-9 -13,-10 -7,-8 -4,-8 -2,-14 -2,-35 -3,-12 -6,-9 -9,-10 -7,-8 -9,-10 -12,-17 -8,-16 -4,-14 -1,-16 2,-14 5,-15 8,-14 9,-10 7,-6 10,-5 z"
     fill="#fefefd"
     data-index="14"
     id="path15" />
  <path
     d="m 707.57143,54 h 17 l 27,2 24,3 25,5 15,5 21,10 14,10 13,13 8,13 5,13 3,14 v 29 l -4,20 -6,17 -8,16 -10,16 -9,11 -9,10 -4,3 h -2 l 3,28 1,7 v 8 l -3,-2 -3,-14 -2,-22 -2,-5 -4,-6 -5,-20 v -9 l 7,-8 4,-5 3,-8 v -8 l -1,-3 -5,-1 h -9 l -7,4 -5,8 -4,1 -4,-5 v -19 l 4,-16 6,-15 2,-8 v -14 l -4,-11 -5,-5 -8,-3 h -22 l -24,4 -26,8 h -9 l -12,-4 -11,-7 -12,-11 -5,-7 -3,-8 v -8 l 5,-10 7,-7 12,-6 9,-2 z"
     fill="#000741"
     data-index="15"
     id="path16" />
  <path
     d="m 109.57143,178 h 7 l 29,9 49,16 41,13 72,23 8,4 2,3 -1,9 -18,57 -21,68 -2,6 -7,-1 -2,-4 18,-58 17,-55 -1,-9 -5,-3 -27,-9 -144,-46 -4,-1 h -7 l -4,4 -9,27 -14.000001,45 -13,42 -42,134 -6,21 1,7 10,5 121.000001,39 38,12 13,4 6,-1 5,-8 20,-64 19,-61 h 3 l 5,4 -1,8 -15,48 -32,102 -4,12 -4,4 -9,-1 -35,-11 -44,-14 -96.000001,-31 -18.0000004,-6 -5,-4 v -9 l 19.0000004,-61 20,-64 21,-67 15,-48 16,-51 10.000001,-32 4,-6 z"
     fill="#fefefd"
     data-index="16"
     id="path17" />
  <path
     d="m 1629.5714,593 h 13 l 12,3 12,6 12,11 8,12 7,19 3,18 v 34 l -3,20 -5,21 -9,26 -12,28 -8,20 -5,22 -3,16 -1,2 h -20 l 1,-11 6,-24 10,-33 5,-23 2,-18 v -12 l -3,-22 v -5 l 5,-8 5,-15 3,-15 1,-14 -2,-1 -3,21 -5,20 -4,8 h -2 l -10,-25 -4,-6 h -2 l 10,24 6,21 2,19 v 10 l -1,7 -5,-2 -12,-12 -12,-18 -5,-8 -1,2 6,12 12,16 10,10 6,4 -1,11 -6,25 -10,32 -6,29 -1,1 h -12 l 9,-36 2,-12 v -19 l -4,-14 -8,-21 -8,-19 -9,-24 -6,-21 -3,-16 -1,-9 v -18 l 3,-16 6,-12 9,-10 11,-7 9,-3 z"
     fill="#fefefd"
     data-index="17"
     id="path18" />
  <path
     d="m 1570.5714,482 h 14 l 13,3 10,6 7,7 7,14 2,7 v 24 l -6,27 -3,23 -3,3 -9,5 -6,5 -7,11 -4,10 -2,9 -1,19 2,19 6,25 10,28 13,32 1,8 -12,36 -11,34 -4,14 h -16 l -2,-7 -2,-16 v -35 l 4,-13 5,-18 2,-13 v -15 l -4,-18 -10,-24 -8,-32 -5,-18 v -24 l 3,-7 9,-5 9,-9 7,-10 8,-16 4,-11 1,-4 -3,2 -8,19 -10,16 -9,10 -6,4 h -2 l 2,-11 5,-15 2,-5 v -4 h -2 l -3,9 -7,23 -3,15 v 22 l 3,12 7,24 v 5 l -3,-3 -11,-18 -11,-21 -5,-16 -1,-6 v -18 l 2,-14 6,-21 7,-21 6,-24 4,-21 2,-12 10,-4 z"
     fill="#fefefd"
     data-index="18"
     id="path19" />
  <path
     d="m 1064.5714,0 h 743 l 1,2 v 1083 h -1 l -1,-371 -1,174 h -1 l -1,-179 -1,-263 -14,1 h -33 l -23,-3 -20,-6 -16,-8 -11,-7 -14,-11 -10,-9 -11,-9 -11,-10 -16,-12 -13,-8 -16,-8 -16,-6 -19,-5 -27,-3 h -20 l -22,2 -26,5 -24,7 -21,8 -18,8 -22,11 -27,16 -27,18 -18,13 -26,20 -16,13 -13,11 -11,9 -10,9 -11,9 -14,13 -8,7 -12,11 -8,7 -10,9 -11,9 -13,11 -18,13 -14,9 -18,10 -15,6 -7,1 -1,-3 20,-8 21,-11 16,-11 17,-13 11,-9 15,-13 15,-14 8,-7 11,-10 11,-9 12,-11 11,-9 10,-9 11,-9 16,-13 17,-13 20,-15 23,-16 24,-15 23,-13 24,-12 1,-2 -5,-2 -14,-9 -12,-9 -14,-11 -10,-10 -9,-11 -15,-20 -10,-14 -13,-17 -15,-16 -13,-11 -18,-10 -16,-6 -13,-3 -8,-1 h -36 l -25,4 -24,7 -24,10 -19,10 -27,18 -1,250 h -1 l -1,-9 -1,-236 z m 4,4 v 252 l 7,-4 15,-10 18,-10 17,-8 30,-10 19,-4 16,-2 h 30 l 19,3 16,5 17,8 5,-1 16,-10 21,-12 -2,-5 -15,-15 -7,-8 -11,-11 -7,-8 -7,-7 -7,-8 -7,-7 -7,-8 -11,-11 -7,-8 -6,-7 -1,-2 5,3 12,12 7,8 7,7 7,8 15,16 12,12 7,8 8,8 7,8 11,12 6,-1 26,-11 31,-10 24,-6 31,-6 29,-4 35,-3 h 56 l 29,3 28,5 27,7 24,8 25,11 25,13 22,14 18,14 14,12 4,1 17,-4 13,-2 2,-1 1,-129 V 6 l -2,-2 z m 426,156 -33,3 -28,4 -35,7 -25,7 -24,8 -29,12 -22,12 -19,12 1,4 14,12 10,10 9,11 15,20 10,14 10,13 11,13 7,7 17,13 15,11 15,9 16,-6 21,-7 24,-6 27,-4 h 39 l 21,3 17,4 19,7 17,9 11,7 6,4 16,-10 10,-8 10,-9 10,-11 13,-18 8,-12 12,-17 11,-13 9,-9 11,-8 10,-6 12,-5 -1,-4 -11,-9 -13,-10 -24,-16 -26,-14 -25,-11 -30,-10 -24,-6 -30,-5 -19,-2 z m 304,82 -29,6 -15,6 -11,6 -9,7 -11,10 v 2 h -2 l -13,17 -13,19 -10,14 -8,10 -11,12 -10,9 -13,9 -9,5 5,6 10,8 11,10 8,7 16,13 15,10 15,7 17,5 12,2 11,1 h 36 l 13,-2 1,-63 v -90 l -1,-45 z"
     fill="#04098e"
     data-index="19"
     id="path20" />
  <path
     d="m 767.57143,1755 7,1 3,15 5,33 3,20 1,14 v 30 l -18,1 h -15 l -1,-2 h -42 l -36,1 h -79 l -7,-2 -5,-6 -3,-6 -1,-4 v -15 l 3,-6 6,-5 15,-5 50,-12 27,-8 12,-5 6,-4 3,-8 3,-9 3,-2 1,-3 -3,-1 h 4 v 3 h 2 v -3 l 34,-6 19,-5 z"
     fill="#000742"
     data-index="20"
     id="path21" />
  <path
     d="m 1485.5714,411 h 12 l 13,2 13,5 9,6 10,10 6,10 4,11 2,11 v 17 l 11,-4 7,-1 h 10 l 12,2 9,4 6,4 5,4 7,11 4,9 2,9 v 19 l -7,35 -2,17 14,-3 h 14 l -3,-15 -2,-26 2,-23 5,-18 8,-16 11,-12 8,-6 13,-6 11,-3 8,-1 h 13 l 17,3 15,6 10,7 5,4 10,13 6,12 3,10 2,18 -1,18 -4,16 -6,16 -20,39 -6,16 -3,13 -1,11 -1,30 -2,18 -5,15 -9,16 -29,43 -13,24 -6,16 -3,15 h -4 l 1,-10 5,-17 8,-16 9,-16 28,-42 8,-14 5,-14 2,-14 1,-37 3,-17 6,-18 11,-23 7,-12 8,-19 5,-19 1,-8 v -14 l -2,-14 -4,-12 -6,-11 -11,-12 -11,-7 -12,-5 -13,-3 h -20 l -16,4 -14,7 -9,8 -9,14 -5,12 -3,11 -1,7 v 37 l 4,23 12,5 10,7 9,9 8,13 5,12 3,11 v 5 l 3,-3 3,-8 v -25 l -4,-32 -7,-9 -4,-8 -5,-16 -3,-18 v -21 l 3,1 3,29 4,17 5,12 3,5 v 2 h 2 l 1,-8 5,-15 6,-11 4,-3 1,3 -8,16 -4,13 -1,12 3,26 5,-2 12,-12 11,-18 8,-19 5,-13 h 3 l -2,11 -10,24 -8,13 -9,11 -11,9 -3,3 v 22 l -4,10 -5,10 v 30 l -2,19 -5,23 -10,30 -13,31 -6,15 -5,19 -4,21 -1,2 h -4 l 5,-28 5,-18 16,-37 9,-25 6,-22 3,-16 1,-9 v -34 l -3,-18 -7,-19 -9,-13 -10,-9 -14,-7 -10,-2 h -13 l -12,3 -10,5 -10,9 -7,12 -3,12 -1,7 v 18 l 3,20 6,23 8,22 12,29 7,18 3,12 v 19 l -5,25 -6,21 -5,2 h -22 l 2,-10 11,-35 12,-35 1,-9 -11,-28 -10,-26 -6,-20 -4,-21 -1,-20 2,-16 4,-12 6,-10 5,-6 10,-7 5,-3 3,-23 6,-27 v -24 l -5,-14 -6,-9 -8,-7 -9,-4 -10,-2 h -14 l -12,3 -3,1 -7,38 -8,29 -8,24 -3,13 -1,9 v 18 l 4,16 5,12 10,19 10,16 -1,-7 -6,-21 -3,-12 v -22 l 5,-22 7,-21 2,-4 3,-1 -1,8 -4,10 -5,18 9,-6 9,-11 8,-13 8,-19 4,-2 -1,8 -7,16 -8,13 -11,12 -5,4 -6,3 -2,6 v 24 l 8,30 7,26 7,15 4,15 1,6 v 15 l -3,18 -7,21 -1,5 v 35 l 2,16 v 5 l -2,-3 -1,5 -18,1 h -21 l -2,-1 2,-6 10,-16 12,-17 13,-22 7,-19 3,-12 1,-8 v -19 l -3,-14 -8,-18 -10,-18 -10,-15 -13,-25 -5,-15 -2,-12 v -12 l 2,-16 6,-21 8,-25 7,-30 3,-18 v -29 l -4,-15 -7,-13 -10,-10 -14,-7 -13,-3 h -20 l -17,4 -12,5 -12,7 -13,11 -9,11 -9,16 -6,16 -5,25 -1,15 v 39 l -2,1 -2,-5 -1,-18 v -17 l 2,-21 4,-18 7,-19 8,-15 9,-11 7,-7 14,-10 16,-8 12,-4 z"
     fill="#040888"
     data-index="21"
     id="path22" />
  <path
     d="m 1142.5714,906 3,1 7,13 10,14 11,12 15,12 15,9 17,8 6,5 v 5 l -1,1 -8,-1 -18,-8 -7,-2 h -6 l 1,8 9,13 13,15 8,11 4,10 v 6 l -5,-1 -12,-12 -11,-14 -12,-14 -9,-8 -6,-2 -1,6 5,10 10,14 14,18 9,14 2,4 v 7 l -4,1 -6,-4 -7,-7 -11,-14 -9,-12 -8,-11 -9,-10 -4,-1 v 10 l 4,11 7,11 10,11 11,15 2,4 v 6 l -7,1 -8,-7 -11,-11 -8,-10 -11,-15 -5,-11 -7,-20 -3,-4 -6,-1 -3,9 -1,21 -2,13 -4,6 -3,2 -4,-1 v -10 l 1,-9 v -28 l 4,-31 v -23 l -1,-6 15,-9 11,-8 10,-8 z"
     fill="#fefefd"
     data-index="22"
     id="path23" />
  <path
     d="m 121.57143,231 8,1 41,13 58,19 22,7 1,5 -10,30 -7,23 -9,-1 -46,-15 -41,-13 -24,-8 -10,-4 4,-16 z"
     fill="#fefefd"
     data-index="23"
     id="path24" />
  <path
     d="m 243.57143,385 h 16 l 13,4 11,7 13,11 10,11 12,17 8,12 8,10 7,7 15,9 -1,4 -10,9 -9,9 -13,18 -6,11 -4,-2 -11,-9 -8,-5 1,-3 10,-4 5,-6 -8,6 -5,2 -8,1 -22,-3 -22,-5 1,-8 18,-58 4,-14 4,4 2,10 h 2 l -3,-12 -6,-9 -7,-6 -2,-1 h -11 l -12,5 -9,4 -4,1 h -7 l -3,-2 -1,-5 4,-5 24,-14 z"
     fill="#fefefd"
     data-index="24"
     id="path25" />
  <path
     d="m 116.57143,310 8,1 47,15 36,12 32,10 5,2 1,5 -8,26 -2,5 -16,9 -8,6 -1,2 -9,-2 -100,-32 -2.000001,-1 v -7 l 15.000001,-47 z"
     fill="#fefefd"
     data-index="25"
     id="path26" />
  <path
     d="m 113.57143,199 h 7 l 26,8 94,30 31,10 27,9 3,3 1,9 -17,55 -18,58 1,3 10,3 5,5 10,8 8,7 9,11 12,17 8,12 8,10 12,9 9,5 -2,6 -16,32 -6,21 -4,16 -4,-2 -9,-9 -2,-3 2,-12 9,-14 10,-13 15,-15 3,-2 v -3 l -11,-6 -10,-9 -7,-8 -17,-25 -11,-14 -7,-7 -13,-10 -12,-6 -8,-2 h -16 l -8,1 4,-16 5,-16 v -5 l -5,-1 -47,-15 -52,-17 -22,-7 -2,-3 h 7 l 30,10 35,11 56,18 4,3 v 8 l -7,22 v 3 h 22 l 1,-7 14,-45 19,-62 v -6 l -5,-3 -27,-9 -57,-18 -55,-18 -32,-10 -5,-1 -4,4 -9,27 -20.000001,64 -22,70 -22,71 -9,29 -1,9 1,2 36,12 41.000001,13 100,32 4,2 v 2 h -7 l -112.000001,-36 -59,-19 -8,-5 -1,-7 8,-27 22,-70 15,-48 18,-58 20.000001,-64 4,-6 z"
     fill="#04088a"
     data-index="26"
     id="path27" />
  <path
     d="m 1146.5714,891 3,1 1,4 -3,5 2,6 6,11 10,14 11,12 10,8 18,11 16,8 6,4 4,5 -1,7 -5,3 -9,-2 -18,-8 -7,-2 2,6 9,12 11,13 7,9 5,11 1,7 -3,5 -4,1 -6,-4 -6,-5 -9,-11 -8,-10 -9,-10 -5,-6 -7,-5 6,11 10,14 14,18 9,14 2,6 v 6 l -4,4 -4,1 -8,-5 -9,-9 -8,-10 -14,-19 -10,-13 -2,-1 4,13 7,10 11,13 10,13 3,7 -1,7 -3,3 -5,1 -7,-3 -8,-7 -11,-12 -7,-9 -9,-12 -5,-10 -8,-23 -4,-4 -1,5 -2,30 -4,11 -5,4 -4,2 -5,-1 -2,-2 v -11 l 1,-10 1,-36 4,-30 v -12 l -2,-7 -7,1 -8,-9 -7,-12 v -2 l 15,-2 19,-5 15,-6 15,-8 z m -4,15 -7,7 -15,11 -13,8 -5,3 1,6 v 23 l -4,31 v 28 l -1,9 v 10 l 4,1 5,-4 3,-8 1,-9 1,-21 3,-9 6,1 4,6 8,23 5,9 10,13 11,13 13,13 7,1 2,-1 v -6 l -6,-10 -11,-13 -11,-14 -5,-11 -1,-4 v -10 l 4,1 7,7 11,15 12,16 11,13 7,6 5,1 1,-1 v -7 l -6,-11 -16,-21 -11,-15 -6,-10 -1,-7 1,-2 6,2 12,11 11,13 11,14 10,10 5,1 -1,-10 -6,-11 -9,-10 -9,-11 -7,-10 -3,-6 v -5 l 10,1 17,7 7,3 h 5 l 1,-1 v -5 l -8,-6 -16,-8 -17,-10 -14,-12 -11,-12 -11,-17 -5,-9 z"
     fill="#040883"
     data-index="27"
     id="path28" />
  <path
     d="m 120.57143,1592 h 12 l 10,3 9,6 6,7 5,12 1,4 v 9 l -4,11 -6,9 -9,7 -11,4 h -12 l -10,-3 -9,-6 -7.000001,-8 -4,-9 -1,-5 v -9 l 3,-12 6,-8 8.000001,-7 9,-4 z"
     fill="#0517eb"
     data-index="28"
     id="path29" />
  <path
     d="m 419.57143,63 h 7 l -2,10 -17,54 -13,41 -3,-1 -19,-44 -15,-37 -5,-12 v -3 l 21,-3 z"
     fill="#0517eb"
     data-index="29"
     id="path30" />
  <path
     d="m 1349.5714,548 h 14 l 10,3 12,7 7,7 2,1 1,-2 1,1 2,-3 4,27 10,46 2,15 1,16 1,49 2,18 4,14 9,19 10,15 12,17 7,12 5,16 1,6 v 18 l -2,2 -3,-1 1,-3 -1,-17 -4,-16 -7,-13 -13,-19 -10,-15 -8,-16 -6,-10 -6,-9 -4,-11 -3,-10 -7,-8 -11,-8 -7,-7 -7,-11 -3,-7 -12,-5 -8,-6 -10,-10 -4,-7 v -2 l 4,1 7,9 5,5 8,6 9,4 -2,-10 v -5 l 3,-1 4,15 4,13 7,10 9,8 2,-4 4,-16 2,-25 h 4 v 18 l -3,18 -4,10 2,4 7,7 4,10 5,15 2,4 -1,-8 -2,-18 -1,-52 -2,-19 -11,-52 -2,-12 -4,-6 -7,-7 -11,-7 -8,-3 -11,-1 -12,3 -8,4 -10,9 -7,9 -8,16 -4,15 -1,17 3,16 6,15 10,16 9,11 9,10 11,12 7,10 3,8 1,6 2,35 2,14 5,9 7,8 17,12 16,9 14,7 10,9 v 3 l -6,-3 -8,-6 -21,-11 -16,-10 -11,-9 -7,-8 -5,-11 -2,-20 -1,-22 -3,-16 -6,-9 -10,-11 -7,-8 -8,-9 -10,-14 -8,-14 -5,-13 -2,-9 v -22 l 5,-19 8,-16 6,-8 5,-6 11,-8 10,-4 z"
     fill="#05098b"
     data-index="30"
     id="path31" />
  <path
     d="m 110.57143,174 9,1 29,9 162,52 8,5 3,5 -1,9 -9,28 -11,36 -10,31 -11,36 -4,1 2,-10 17,-55 22,-71 -1,-7 -8,-4 -65,-21 -57,-18 -55,-18 -14,-4 h -7 l -4,6 -14.000001,44 -14,45 -21,67 -22,71 -13,41 -14.0000004,45 -3,10 v 9 l 2,5 -4,-1 -3.00000003,-4 v -8 l 12.00000043,-39 55,-176 18,-58 16.000001,-51 4,-8 z"
     fill="#040887"
     data-index="31"
     id="path32" />
  <path
     d="m 1590.5714,556 h 2 l -1,8 -7,16 -8,13 -11,12 -5,4 -6,3 -2,6 v 24 l 8,30 7,26 7,15 4,15 1,6 v 15 l -3,18 -7,21 -1,5 v 35 l 2,16 v 5 l -2,-3 -1,5 -18,1 h -21 l -2,-1 2,-6 10,-16 12,-17 13,-22 7,-19 3,-12 1,-8 v -19 l -3,-14 -8,-18 -5,-9 1,-6 -2,-8 -7,-24 -3,-12 v -22 l 5,-22 7,-21 2,-4 3,-1 -1,8 -4,10 -5,18 9,-6 9,-11 8,-13 8,-19 z"
     fill="#010756"
     data-index="32"
     id="path33" />
  <path
     d="m 785.57143,1838 h 1 v 30 l -18,1 h -15 l -1,-2 h -42 l -36,1 h -79 l -7,-2 -5,-6 -1,-4 h 44 l 48,-1 95,-3 15,-1 z"
     fill="#000850"
     data-index="33"
     id="path34" />
  <path
     d="m 1806.5714,262 h 1 l 1,135 v 688 h -1 l -1,-371 -1,174 h -1 l -1,-179 -1,-265 3,-1 1,-2 h -3 v -63 l 1,-107 z"
     fill="#0516e9"
     data-index="34"
     id="path35" />
  <path
     d="m 1584.5714,633 h 1 l 1,27 3,20 6,23 8,22 12,29 7,18 3,12 v 19 l -5,25 -6,21 -5,2 h -22 l 2,-10 11,-35 12,-35 1,-9 -11,-28 -10,-26 -6,-20 -4,-21 -1,-20 z"
     fill="#010964"
     data-index="35"
     id="path36" />
  <path
     d="m 1707.5714,463 h 13 l 17,3 15,6 10,7 5,4 10,13 6,12 3,10 2,18 -1,18 -4,16 -6,16 -20,39 -6,16 -3,13 -1,11 -1,30 -2,18 -5,15 -9,16 -29,43 -13,24 -6,16 -3,15 h -4 l 1,-10 5,-17 8,-16 9,-16 28,-42 8,-14 5,-14 2,-14 1,-37 3,-17 6,-18 11,-23 7,-12 8,-19 5,-19 1,-8 v -14 l -2,-14 -4,-12 -6,-11 -11,-12 -11,-7 -12,-5 -13,-3 h -20 l -16,4 -14,7 -9,8 -9,14 -5,12 -3,11 -1,7 -1,32 h -1 l -2,-7 -1,-14 v -10 l 3,-15 5,-15 6,-11 11,-12 8,-6 13,-6 11,-3 z"
     fill="#050887"
     data-index="36"
     id="path37" />
  <path
     d="m 1064.5714,0 h 743 v 1 l -12,1 v 1 l -727,1 V 2 Z"
     fill="#0516ea"
     data-index="37"
     id="path38" />
  <path
     d="m 1770.5714,1 h 38 v 396 h -1 l -1,-130 -1,4 -1,17 h -1 l -1,-46 h 3 l 1,-4 h -3 V 6 l -1,-1 -717,-1 V 3 l 685,-1 z"
     fill="#0517eb"
     data-index="38"
     id="path39" />
  <path
     d="m 1584.5714,1532 h 2 l -1,8 -22,71 -11,36 v 4 l 17,10 28,17 55,33 11,7 3,-1 15,-29 14,-28 11,-20 8,-16 1,-5 -5,-5 -15,-14 -11,-9 -10,-10 -4,-3 -4,1 -11,9 -10,9 -11,9 -13,11 -2,1 1,5 7,13 28,1 1,4 h -30 l -4,-5 -9,-16 2,-4 13,-11 28,-24 11,-9 5,1 10,10 8,7 13,12 10,9 7,6 -1,7 -15,30 -10,19 -14,28 -12,22 -3,1 -32,-19 -28,-17 -32,-19 -23,-14 -4,-3 3,-11 16,-52 15,-49 z"
     fill="#04098b"
     data-index="39"
     id="path40" />
  <path
     d="m 1732.5714,1300 h 7 l 9,3 7,7 4,9 v 11 l -5,8 -8,7 -6,2 h -8 l -10,-4 -7,-8 -3,-8 1,-11 4,-7 7,-6 z"
     fill="#0517eb"
     data-index="40"
     id="path41" />
  <path
     d="m 1429.5714,528 h 3 l 10,30 8,16 4,6 v 2 h 2 l 1,-8 5,-17 6,-16 3,-5 h 2 l -1,8 -6,15 -6,25 -2,23 1,23 4,19 6,18 8,18 11,20 3,-3 5,-13 3,-16 1,-10 h 3 v 16 l -4,16 -6,12 -2,3 10,23 2,7 v 24 l -4,30 -6,37 -2,20 -6,1 2,-1 v -11 l 6,-40 4,-25 2,-18 v -12 l -3,-12 -7,-16 -11,-21 -9,-17 -8,-20 -5,-19 -2,-13 v -41 l -5,-5 -10,-18 -7,-19 -3,-11 z"
     fill="#030977"
     data-index="41"
     id="path42" />
  <path
     d="m 1064.5714,1 h 8 l -4,1 1,253 h 3 l -1,4 -3,2 -1,250 h -1 l -1,-9 -1,-236 z"
     fill="#050887"
     data-index="42"
     id="path43" />
  <path
     d="m 1405.5714,365 4,2 -4,3 -26,13 -27,16 -27,18 -18,13 -26,20 -16,13 -13,11 -11,9 -10,9 -11,9 -14,13 -8,7 -12,11 -8,7 -10,9 -11,9 -13,11 -18,13 -14,9 -18,10 -15,6 -7,1 -1,-3 20,-8 21,-11 16,-11 17,-13 11,-9 15,-13 15,-14 8,-7 11,-10 11,-9 12,-11 11,-9 10,-9 11,-9 16,-13 17,-13 20,-15 23,-16 24,-15 23,-13 z"
     fill="#050990"
     data-index="43"
     id="path44" />
  <path
     d="m 120.57143,227 9,1 96,31 27,9 2,1 v 8 l -14,45 -4,9 -2,2 -8,-1 -118,-38 -8,-5 2,-10 15,-48 z m 1,4 -15,47 -2,10 10,4 55,18 60,19 h 5 l 9,-29 8,-24 -1,-5 -58,-19 -50,-16 -16,-5 z"
     fill="#040886"
     data-index="44"
     id="path45" />
  <path
     d="m 349.57143,1295 4,2 12,14 11,13 7,8 2,4 3,1 v 3 l -45,15 h -3 l 1,-14 7,-44 z"
     fill="#fefefd"
     data-index="45"
     id="path46" />
  <path
     d="m 114.57143,306 4,1 v 3 l -2,1 -15,46 -2.000001,11 12.000001,3 43,14 32,10 24,8 2,-4 14,-9 7,-4 4,2 -17,10 -7,5 -1,4 1,3 2,1 h 7 l 11,-4 11,-5 3,-1 h 11 l 6,4 1,4 -6,-3 -17,54 -22,71 -5,8 -3,2 -4,-1 h 3 v -2 l -2,-1 5,-3 10,-31 22,-71 9,-29 -11,3 -19,8 -9,1 -5,-2 -4,-6 -58,-19 -47,-15 -7.000001,-4 v -7 l 14.000001,-45 4,-10 z"
     fill="#04098b"
     data-index="46"
     id="path47" />
  <path
     d="m 1146.5714,891 3,1 1,4 -3,5 2,6 6,11 7,10 v 3 l -4,-1 -10,-15 -4,-8 -4,2 -9,8 -14,10 -14,8 -2,6 h -2 l -1,-3 -7,1 -8,-9 -7,-12 v -2 l 15,-2 19,-5 15,-6 15,-8 z"
     fill="#000747"
     data-index="47"
     id="path48" />
  <path
     d="m 965.57143,1858 h 8 l -1,9 -3,7 -5,4 -15,2 h -28 l -14,-2 -5,-3 -3,-5 1,-10 3,-1 h 34 z"
     fill="#000851"
     data-index="48"
     id="path49" />
  <path
     d="m 1102.5714,938 2,3 v 23 l -4,31 v 28 l -1,9 v 10 l 4,-1 4,-4 2,-6 1,-9 1,-21 3,-7 3,-3 5,2 4,6 8,23 5,9 10,13 11,13 12,12 7,1 h 2 l -2,-8 -6,-9 -9,-11 -10,-12 -7,-14 -1,-4 v -10 l 4,-1 7,7 -1,4 -6,-4 4,13 7,10 11,13 10,13 3,7 -1,7 -3,3 -5,1 -7,-3 -8,-7 -11,-12 -7,-9 -9,-12 -5,-10 -8,-23 -4,-4 -1,5 -2,30 -4,11 -5,4 -4,2 -5,-1 -2,-2 v -11 l 1,-10 1,-36 4,-30 v -16 z"
     fill="#040888"
     data-index="49"
     id="path50" />
  <path
     d="m 1806.5714,691 h 1 l 1,400 24,1 v 1 l -171,-1 v -1 l 20,-1 h 121 l 1,-135 1,-67 1,-174 z"
     fill="#050365"
     data-index="50"
     id="path51" />
  <path
     d="m 739.57143,1846 h 43 v 6 l -13,1 -95,3 -48,1 h -40 l -2,-3 v -4 h 37 z"
     fill="#fefefd"
     data-index="51"
     id="path52" />
  <path
     d="m 1663.5714,650 3,1 -1,14 -4,19 -5,13 -4,6 1,11 2,16 v 12 l -3,23 -6,25 -10,33 -5,23 -1,5 -4,1 h -12 v -1 l 11,-1 6,-29 11,-35 6,-27 v -6 l -8,-6 -10,-10 -11,-16 -5,-10 1,-3 5,5 7,12 9,12 10,10 4,2 v -17 l -2,-19 -6,-21 -10,-24 3,-1 4,5 8,19 2,8 h 2 l 2,-6 4,-13 4,-21 z"
     fill="#04087e"
     data-index="52"
     id="path53" />
  <path
     d="m 1616.5714,772 h 2 l 3,11 v 20 l -3,17 -7,27 -2,4 h -18 l 2,-10 9,-29 13,-38 z"
     fill="#fefefd"
     data-index="53"
     id="path54" />
  <path
     d="m 708.57143,124 4,2 -2,7 -3,39 -3,16 -12,37 -1,2 17,3 2,2 1,57 2,10 5,5 8,2 h 16 l 16,-3 16,-7 11,-8 10,-9 3,-3 h 3 l -1,5 -10,9 -13,9 -12,6 -13,4 -14,2 -16,-1 -10,-5 -4,-6 -2,-11 -1,-54 -14,-3 -3,-2 1,-10 12,-38 2,-22 2,-25 2,-9 z"
     fill="#050fb6"
     data-index="54"
     id="path55" />
  <path
     d="m 1067.5714,261 h 1 v 344 l 4,1 v 2 h -4 v 29 l -1,31 h -1 l -2,-11 V 266 h 1 l 1,238 z"
     fill="#0410bc"
     data-index="55"
     id="path56" />
  <path
     d="m 933.57143,544 h 2 l 6,14 12,36 10,36 4,22 v 11 l -2,-1 -12,-32 -13,-32 -5,-34 -2,-10 z"
     fill="#000647"
     data-index="56"
     id="path57" />
  <path
     d="m 1304.5714,637 h 2 l 4,12 7,14 10,14 11,13 14,15 7,10 3,8 1,6 2,35 2,14 5,9 7,8 17,12 16,9 14,7 10,9 v 3 l -6,-3 -8,-6 -21,-11 -16,-10 -11,-9 -7,-8 -5,-11 -2,-20 -1,-22 -3,-16 -6,-9 -10,-11 -7,-8 -8,-9 -10,-14 -8,-14 -4,-10 v -6 z"
     fill="#030870"
     data-index="57"
     id="path58" />
  <path
     d="m 1561.5714,157 15,1 36,6 27,7 24,8 25,11 25,13 22,14 18,14 14,12 -2,1 -6,-2 -9,-8 -19,-14 -17,-11 -26,-14 -25,-11 -30,-10 -24,-6 -30,-5 -19,-2 4,-1 v -2 z"
     fill="#05098f"
     data-index="58"
     id="path59" />
  <path
     d="m 1770.5714,1 h 38 l -1,4 -4,1 -1,-1 -717,-1 V 3 l 685,-1 z"
     fill="#050362"
     data-index="59"
     id="path60" />
  <path
     d="m 643.57143,540 h 1 v 46 l -4,8 -8,13 -15,25 -3,2 1,-8 7,-20 15,-46 5,-19 z"
     fill="#000743"
     data-index="60"
     id="path61" />
  <path
     d="m 265.57143,407 5,4 5,10 1,9 h -2 l -3,-10 -2,-3 -2,6 -13,42 -8,26 -1,5 9,1 25,5 11,1 10,-2 6,-4 4,-2 -2,4 -5,4 -8,3 -1,2 5,2 13,10 5,4 1,-2 v 7 h -2 l -1,2 -4,-6 -11,-9 -10,-7 -15,-3 -24,-5 -8,-3 -2,9 h -2 v -9 l 18,-57 8,-26 z"
     fill="#040987"
     data-index="61"
     id="path62" />
  <path
     d="m 1707.5714,463 h 13 l 17,3 15,6 10,7 5,4 5,7 -3,3 -7,-8 -9,-7 -13,-6 -16,-4 h -20 l -16,4 -14,7 -9,8 -9,14 -5,12 -3,11 -1,7 -1,32 h -1 l -2,-7 -1,-14 v -10 l 3,-15 5,-15 6,-11 11,-12 8,-6 13,-6 11,-3 z"
     fill="#04098d"
     data-index="62"
     id="path63" />
  <path
     d="m 347.57143,485 2,1 -1,9 -8,17 -5,18 -4,16 -4,-2 -9,-9 -2,-3 2,-12 9,-14 8,-6 6,-4 4,-9 z"
     fill="#000746"
     data-index="63"
     id="path64" />
  <path
     d="m 347.57143,1287 7,6 11,12 8,10 10,11 9,11 2,4 -9,4 -43,14 -7,1 2,-17 8,-50 z m 2,8 -2,7 -7,46 v 7 l 9,-2 37,-12 2,-1 -1,-4 h -2 l -2,-4 -10,-11 -9,-11 -9,-10 -4,-5 z"
     fill="#0517eb"
     data-index="64"
     id="path65" />
  <path
     d="m 1563.5714,799 1,3 v 27 l 3,22 h -15 l -10,-18 1,-5 10,-14 8,-13 z"
     fill="#fefefd"
     data-index="65"
     id="path66" />
  <path
     d="m 1331.5714,641 4,1 7,9 5,5 8,6 9,4 -2,-10 v -5 l 3,-1 4,15 4,13 7,10 9,8 2,-4 4,-16 2,-25 h 4 v 18 l -3,18 -4,10 2,4 7,7 4,10 2,10 -1,5 -3,-4 -4,-15 -4,-6 -7,-6 -10,-8 -8,-9 -7,-14 -12,-5 -8,-6 -10,-10 -4,-7 z"
     fill="#040880"
     data-index="66"
     id="path67" />
  <path
     d="m 31.571429,480 11,3 24,8 41.000001,13 100,32 4,2 v 2 h -7 l -112.000001,-36 -59,-19 -2,-2 z"
     fill="#040889"
     data-index="67"
     id="path68" />
  <path
     d="m 80.571429,299 h 1 l -1,9 -24,76 -22,71 -4,13 -1,9 3,6 -5,-1 -3,-5 1,-8 12,-39 22,-70 16,-51 3,-9 z"
     fill="#030978"
     data-index="68"
     id="path69" />
  <path
     d="m 1549.5714,512 1,3 -6,25 -7,23 -6,19 -2,9 -1,9 v 18 l 4,16 5,12 10,19 10,16 2,-2 1,8 -3,2 -8,-13 -10,-16 -11,-23 -4,-15 -1,-7 v -12 l 2,-16 6,-21 8,-25 6,-25 4,-2 z"
     fill="#040883"
     data-index="69"
     id="path70" />
  <path
     d="m 247.57143,401 h 11 l 6,4 1,4 -6,-3 -17,54 -22,71 -5,8 -3,2 -4,-1 h 3 v -2 l -2,-1 5,-3 10,-31 22,-71 9,-29 -11,3 -19,8 -9,1 -4,-2 1,-2 h 9 l 11,-4 11,-5 z"
     fill="#04098d"
     data-index="70"
     id="path71" />
  <path
     d="m 1742.5714,688 3,1 v 18 l -4,16 -8,16 -29,44 -8,13 -8,15 -6,16 -3,15 h -4 l 1,-10 5,-17 8,-16 9,-16 28,-42 8,-14 5,-14 z"
     fill="#050884"
     data-index="71"
     id="path72" />
  <path
     d="m 1590.5714,556 h 2 l -1,8 -7,16 -8,13 -11,12 -5,4 -6,3 -2,6 v 24 l 5,18 v 4 h -2 l -1,2 -6,-20 -1,-5 v -22 l 5,-22 7,-21 2,-4 3,-1 -1,8 -4,10 -5,18 9,-6 9,-11 8,-13 8,-19 z"
     fill="#040882"
     data-index="72"
     id="path73" />
  <path
     d="m 1102.5714,938 2,3 v 23 l -4,31 v 28 l -1,9 v 10 l 4,-1 4,-4 2,-6 1,-9 1,-21 3,-7 3,1 -1,5 -2,30 -4,11 -5,4 -4,2 -5,-1 -2,-2 v -11 l 1,-10 1,-36 4,-30 v -16 z"
     fill="#040782"
     data-index="73"
     id="path74" />
  <path
     d="m 116.57143,307 h 7 l 30,10 35,11 56,18 4,3 v 8 l -8,24 -1,6 h -4 l 4,-16 5,-16 v -5 l -5,-1 -47,-15 -52,-17 -22,-7 z"
     fill="#040887"
     data-index="74"
     id="path75" />
  <path
     d="m 767.57143,1755 h 3 l 1,8 -3,3 -15,6 -10,2 h -25 l -7,-2 v -5 l 34,-6 19,-5 z"
     fill="#fefefd"
     data-index="75"
     id="path76" />
  <path
     d="m 1164.5714,989 h 2 l 12,19 13,17 12,16 5,10 1,9 -4,4 -4,1 -8,-5 -9,-9 -8,-10 -14,-19 -7,-9 3,-4 9,12 14,19 12,14 6,5 5,1 v -7 l -6,-11 -16,-21 -11,-15 -6,-10 z"
     fill="#04077e"
     data-index="76"
     id="path77" />
  <path
     d="m 1805.5714,5 3,1 v 103 l -1,55 -2,-3 -1,-51 -1,-1 V 22 l 1,-16 z"
     fill="#0512c9"
     data-index="77"
     id="path78" />
  <path
     d="m 1064.5714,899 h 2 l 1,2 1,190 -4,1 z"
     fill="#05098f"
     data-index="78"
     id="path79" />
  <path
     d="m 105.57143,269 3,3 -2,10 -1,6 24,8 44,14 56,18 5,1 1,3 -5,1 -29,-9 -58,-19 -35,-11 -8,-5 2,-10 z"
     fill="#040887"
     data-index="79"
     id="path80" />
  <path
     d="m 1429.5714,528 h 3 l 10,30 8,16 4,6 v 2 h 2 l 1,-8 5,-17 6,-16 3,-5 h 2 l -1,8 -6,15 -6,25 -2,23 v 17 l -2,-2 -1,5 h -1 v -41 l -5,-5 -10,-18 -7,-19 -3,-11 z"
     fill="#05098d"
     data-index="80"
     id="path81" />
  <path
     d="m 965.57143,1858 4,1 -1,7 -1,1 -18,1 -43,1 -4,-2 -2,-7 3,-1 h 34 z"
     fill="#fefefd"
     data-index="81"
     id="path82" />
  <path
     d="m 1780.5714,84 2,2 -4,6 -84,84 -4,1 -1,-2 7,-8 81,-81 z"
     fill="#050990"
     data-index="82"
     id="path83" />
  <path
     d="m 1408.5714,728 h 2 l 4,9 1,-6 3,2 4,14 9,19 10,15 12,17 7,12 5,16 1,6 v 18 l -2,2 -3,-1 1,-3 -1,-17 -4,-16 -7,-13 -13,-19 -10,-15 -8,-16 -6,-10 -5,-7 z"
     fill="#020a71"
     data-index="83"
     id="path84" />
  <path
     d="m 708.57143,124 4,2 -2,7 -3,39 -3,16 -12,37 -1,2 17,3 1,1 -1,54 h -1 v -51 l -16,-3 -3,-2 1,-10 12,-38 2,-22 2,-25 2,-9 z"
     fill="#040887"
     data-index="84"
     id="path85" />
  <path
     d="m 1069.5714,255 h 3 l -1,4 -3,2 -1,250 h -1 l -1,-9 -1,-241 2,-5 3,1 z"
     fill="#040362"
     data-index="85"
     id="path86" />
  <path
     d="m 1181.5714,208 h 34 v 1 l -24,2 -29,5 -24,7 -24,10 -19,10 -21,14 h -2 l -1,-3 11,-8 22,-13 21,-10 30,-10 19,-4 z"
     fill="#050782"
     data-index="86"
     id="path87" />
  <path
     d="m 1219.5714,96 4,1 14,14 7,8 7,7 7,8 15,16 12,12 7,8 8,8 7,8 11,12 v 2 l -5,-1 -7,-8 -10,-10 -7,-8 -11,-11 -7,-8 -7,-7 -7,-8 -7,-7 -7,-8 -11,-11 -7,-8 -6,-7 z"
     fill="#04077b"
     data-index="87"
     id="path88" />
  <path
     d="m 1162.5714,929 5,5 9,10 10,8 18,11 16,8 6,4 4,5 -1,7 -5,3 -9,-2 -18,-8 -9,-2 v -2 l -2,-2 10,1 17,7 7,3 h 5 v -5 l -9,-6 -16,-8 -16,-10 -13,-11 -7,-7 -5,-7 h 3 z"
     fill="#040882"
     data-index="88"
     id="path89" />
  <path
     d="m 1559.5714,797 2,4 -5,10 -11,16 -2,3 1,4 8,15 v 2 l -3,1 h -21 l -2,-1 2,-6 10,-16 12,-17 z"
     fill="#010966"
     data-index="89"
     id="path90" />
  <path
     d="m 1179.5714,532 m -1,1 m -2,1 2,1 -6,9 -12,11 -11,9 -20,15 -15,10 -22,12 -16,6 -5,-1 v -2 l 20,-8 21,-11 16,-11 17,-13 11,-9 15,-13 z"
     fill="#05098b"
     data-index="90"
     id="path91" />
  <path
     d="m 1320.5714,275 6,3 13,18 10,13 11,13 11,10 20,15 15,10 7,4 1,5 -6,1 -1,-3 1,-2 -5,-2 -14,-9 -12,-9 -14,-11 -10,-10 -9,-11 -15,-20 -9,-13 z"
     fill="#040883"
     data-index="91"
     id="path92" />
  <path
     d="m 313.57143,265 h 2 l -1,8 -12,39 -22,70 -2,5 h -3 l 2,-10 34,-110 z"
     fill="#04087f"
     data-index="92"
     id="path93" />
  <path
     d="m 1681.5714,513 3,1 3,29 4,17 5,12 3,5 v 2 h 2 l 1,-8 5,-15 6,-11 4,-3 1,3 -8,16 -4,13 -1,6 -1,20 h -2 l -2,-15 -7,-9 -4,-8 -5,-16 -3,-18 z"
     fill="#030873"
     data-index="93"
     id="path94" />
  <path
     d="m 1663.5714,650 3,1 -1,14 -4,19 -5,13 -4,6 1,11 v 10 l -1,5 -2,-3 -3,-17 -6,-20 -9,-21 3,-1 4,5 8,19 2,8 h 2 l 2,-6 4,-13 4,-21 z"
     fill="#020866"
     data-index="94"
     id="path95" />
  <path
     d="m 1553.5714,466 h 1 v 17 l 11,-4 7,-1 h 10 l 12,2 9,4 6,4 5,4 7,11 v 2 h -2 l -1,2 -6,-10 -9,-8 -9,-4 -10,-2 h -14 l -12,3 -3,1 -4,23 -2,4 -3,1 1,-9 2,-13 1,-23 h 1 l 1,3 z"
     fill="#040a92"
     data-index="95"
     id="path96" />
  <path
     d="m 1500.5714,733 2,4 1,3 v 24 l -4,30 -6,37 -2,20 -6,1 2,-1 v -11 l 6,-40 4,-25 2,-18 v -18 z"
     fill="#050885"
     data-index="96"
     id="path97" />
  <path
     d="m 1501.5714,338 h 26 l 4,2 -1,1 -32,2 -30,5 -25,7 -19,7 -7,3 -4,-1 1,-3 26,-10 29,-8 23,-4 z"
     fill="#040887"
     data-index="97"
     id="path98" />
  <path
     d="m 107.57143,522 h 10 l 5,4 2,5 -1,8 -5,5 -3,1 h -7 l -6,-5 -1,-2 v -9 l 3,-5 z"
     fill="#040884"
     data-index="98"
     id="path99" />
  <path
     d="m 1584.5714,1532 h 2 l -1,8 -22,71 -10,32 h -3 l 1,-9 27,-87 5,-14 z"
     fill="#020a71"
     data-index="99"
     id="path100" />
  <path
     d="m 1409.5714,626 2,4 3,20 1,16 1,49 1,17 -3,1 -2,-10 -1,-12 -1,-52 -2,-19 -1,-8 1,-3 z"
     fill="#040a91"
     data-index="100"
     id="path101" />
  <path
     d="m 311.57143,424 4,1 7,10 8,12 8,10 12,9 9,5 -2,6 -8,16 -1,-3 -1,-4 -2,2 -3,8 -5,4 -6,4 -2,1 2,-5 12,-13 9,-9 3,-2 v -3 l -11,-6 -10,-9 -7,-8 -16,-24 z"
     fill="#04087f"
     data-index="101"
     id="path102" />
  <path
     d="m 308.57143,495 h 2 l -2,4 -5,4 -8,3 -1,2 5,2 13,10 5,4 1,-2 v 7 h -2 l -1,2 -4,-6 -11,-9 -10,-7 -15,-3 -24,-5 -6,-2 3,-1 v -2 l 19,4 22,3 11,-2 6,-4 z"
     fill="#050a94"
     data-index="102"
     id="path103" />
  <path
     d="m 80.571429,299 h 1 l -1,9 -24,76 -2,7 -2,-2 -2,1 3,-11 21,-67 4,-12 z"
     fill="#040981"
     data-index="103"
     id="path104" />
  <path
     d="m 1360.5714,75 3,1 17,33 14,27 10,21 v 2 l -4,-1 -21,-42 -10,-19 -9,-18 z"
     fill="#010966"
     data-index="104"
     id="path105" />
  <path
     d="m 1612.5714,771 h 2 l 1,5 -12,36 -12,39 h -4 l 2,-10 11,-35 z"
     fill="#04087c"
     data-index="105"
     id="path106" />
  <path
     d="m 1803.5714,953 h 1 l 1,128 h 1 v 7 l -2,2 h -143 v -1 l 20,-1 h 121 z"
     fill="#050676"
     data-index="106"
     id="path107" />
  <path
     d="m 1801.5714,238 h 5 l -1,5 -13,1 -23,5 -15,6 -11,6 -9,7 -5,1 6,-8 13,-8 10,-5 5,-1 -1,-5 9,2 17,-4 z"
     fill="#04077e"
     data-index="107"
     id="path108" />
  <path
     d="m 1304.5714,637 h 2 l 4,12 7,14 10,14 11,13 12,13 -3,1 -1,-2 h -3 l -12,-13 -12,-15 -10,-16 -6,-14 v -6 z"
     fill="#04098a"
     data-index="108"
     id="path109" />
  <path
     d="m 1806.5714,262 h 1 v 136 h -2 l -1,-127 z"
     fill="#050362"
     data-index="109"
     id="path110" />
  <path
     d="m 1157.5714,1009 5,5 8,11 12,16 11,13 6,5 5,1 1,-4 h 2 l 1,6 -5,3 -6,-2 -8,-7 -9,-10 -10,-13 -13,-18 -2,-3 z"
     fill="#050888"
     data-index="110"
     id="path111" />
  <path
     d="m 1185.5714,975 4,1 2,6 9,13 12,14 7,9 5,11 1,7 -3,5 h -2 v -9 l -4,-10 -8,-11 -9,-10 -10,-13 -4,-8 z"
     fill="#020a71"
     data-index="111"
     id="path112" />
  <path
     d="m 1373.5714,790 20,15 16,9 17,9 10,9 v 3 l -6,-3 -8,-6 -21,-11 -16,-10 -11,-9 -4,-5 z"
     fill="#05098e"
     data-index="112"
     id="path113" />
  <path
     d="m 1730.5714,265 2,1 -2,2 2,2 -8,7 -1,2 h -2 l -2,4 -13,17 -10,15 -7,10 -3,-2 2,-5 21,-30 11,-13 z"
     fill="#050a96"
     data-index="113"
     id="path114" />
  <path
     d="m 1661.5714,487 1,4 -8,14 -5,14 -2,12 -1,32 h -1 l -2,-7 -1,-14 v -10 l 3,-15 5,-15 6,-11 z"
     fill="#050885"
     data-index="114"
     id="path115" />
  <path
     d="m 1623.5714,780 2,4 v 19 l -5,25 -6,21 h -4 l 4,-17 4,-16 2,-13 v -22 z"
     fill="#050888"
     data-index="115"
     id="path116" />
  <path
     d="m 1114.5714,994 3,1 -1,5 -2,30 -4,11 -5,4 -4,2 -5,-1 -2,-2 v -11 l 3,-1 2,10 4,-1 4,-4 2,-6 1,-9 1,-21 z"
     fill="#05088a"
     data-index="116"
     id="path117" />
  <path
     d="m 1408.5714,728 h 2 l 4,9 1,-6 3,2 4,14 9,19 10,15 -3,3 -8,-11 -6,-10 -8,-17 -8,-11 z"
     fill="#02096a"
     data-index="117"
     id="path118" />
  <path
     d="m 1640.5714,793 h 2 l 2,4 -8,26 -5,23 -1,5 -4,1 h -12 v -1 l 11,-1 6,-29 z"
     fill="#040886"
     data-index="118"
     id="path119" />
  <path
     d="m 1698.5714,662 h 1 l 1,5 v 24 l -2,19 -5,23 -2,-2 -2,1 2,-11 3,-16 1,-9 1,-32 z"
     fill="#040889"
     data-index="119"
     id="path120" />
  <path
     d="m 1617.5714,75 h 2 l -1,6 -19,45 -6,14 h -4 l 6,-16 16,-38 5,-10 z"
     fill="#03087c"
     data-index="120"
     id="path121" />
  <path
     d="m 100.57143,233 h 2 l -1,8 -19.000001,60 -4,-2 20,-64 z"
     fill="#040886"
     data-index="121"
     id="path122" />
  <path
     d="m 906.57143,1761 h 51 v 5 l -5,3 -8,-1 -8,-3 h -9 l -9,4 -8,-1 -3,-3 z"
     fill="#fefefd"
     data-index="122"
     id="path123" />
  <path
     d="m 1555.5714,664 h 3 l 8,31 8,18 2,6 v 12 l -2,-2 -5,-16 -10,-21 -1,-4 1,-3 -2,-8 -2,-7 z"
     fill="#020968"
     data-index="123"
     id="path124" />
  <path
     d="m 1393.5714,569 5,1 1,1 5,28 5,22 v 12 l -3,-3 -9,-42 -2,-12 -2,-4 z"
     fill="#030876"
     data-index="124"
     id="path125" />
  <path
     d="m 1491.5714,67 2,1 2,12 6,48 v 2 h -4 l -6,-45 -2,-17 z"
     fill="#050990"
     data-index="125"
     id="path126" />
  <path
     d="m 1584.5714,633 h 1 l 1,27 3,20 5,19 v 2 l -4,1 -5,-19 -3,-16 -1,-20 z"
     fill="#020972"
     data-index="126"
     id="path127" />
  <path
     d="m 1529.5714,632 3,2 5,12 10,19 10,16 2,-2 1,8 -3,2 -8,-13 -10,-16 -11,-23 z"
     fill="#04077e"
     data-index="127"
     id="path128" />
  <path
     d="m 633.57143,573 1,4 -7,22 -1,6 h 4 l 3,-4 2,1 -18,30 -3,2 1,-8 7,-20 z"
     fill="#04046d"
     data-index="128"
     id="path129" />
  <path
     d="m 1576.5714,723 h 1 l 2,11 v 15 l -3,18 -7,21 -2,-2 -2,1 3,-10 4,-13 2,-13 v -22 h 1 z"
     fill="#04098f"
     data-index="129"
     id="path130" />
  <path
     d="m 1123.5714,224 2,1 1,3 -16,7 -18,10 -18,12 h -2 l -1,-3 11,-8 22,-13 z"
     fill="#03087b"
     data-index="130"
     id="path131" />
  <path
     d="m 1219.5714,96 4,1 14,14 7,8 7,7 7,8 5,5 v 3 l -4,-1 -9,-9 -7,-8 -11,-11 -7,-8 -6,-7 z"
     fill="#03087b"
     data-index="131"
     id="path132" />
  <path
     d="m 708.57143,124 4,2 -2,7 -3,39 -2,7 h -3 l 2,-37 2,-15 z"
     fill="#04098b"
     data-index="132"
     id="path133" />
  <path
     d="m 1496.5714,796 h 1 v 10 l -4,25 -2,20 -6,1 2,-1 v -11 l 6,-40 z"
     fill="#040887"
     data-index="133"
     id="path134" />
  <path
     d="m 798.57143,276 h 3 l -1,5 -10,9 -13,9 -12,6 -9,3 h -3 l 1,-4 14,-5 12,-7 11,-9 z"
     fill="#050a98"
     data-index="134"
     id="path135" />
  <path
     d="m 1349.5714,548 h 14 l 10,3 12,7 7,7 2,1 1,-2 1,1 2,-3 v 8 l -5,-1 -1,2 -8,-8 -11,-7 -8,-3 -17,-2 z"
     fill="#040990"
     data-index="135"
     id="path136" />
  <path
     d="m 1716.5714,542 2,1 -2,6 -7,14 -3,11 -1,6 -1,20 h -2 l -2,-15 -1,-2 2,-1 -2,-3 h 2 l 1,-8 5,-15 6,-11 z"
     fill="#040881"
     data-index="136"
     id="path137" />
  <path
     d="m 1398.5714,650 3,1 v 18 l -3,18 -5,12 h -4 l 3,-10 3,-13 2,-25 z"
     fill="#040a93"
     data-index="137"
     id="path138" />
  <path
     d="m 110.57143,525 7,1 3,5 -1,7 -3,3 h -8 l -3,-3 -1,-6 3,-5 z"
     fill="#fefefd"
     data-index="138"
     id="path139" />
  <path
     d="m 1584.5714,1532 h 2 l -1,8 -13,42 -2,-2 -2,6 -1,-4 13,-42 z"
     fill="#020867"
     data-index="139"
     id="path140" />
  <path
     d="m 1663.5714,650 3,1 -1,14 -4,19 -5,13 -3,4 -2,-4 4,-9 5,-22 z"
     fill="#040886"
     data-index="140"
     id="path141" />
  <path
     d="m 1683.5714,619 h 2 l 2,4 h 2 l 6,14 3,11 v 6 h 3 l -1,7 -2,7 -2,-4 -2,-8 -2,-12 -7,-19 -2,-3 z"
     fill="#04087f"
     data-index="141"
     id="path142" />
  <path
     d="m 1320.5714,275 6,3 13,18 10,13 5,6 v 4 l -4,-2 -10,-12 -13,-18 -7,-10 z"
     fill="#02096f"
     data-index="142"
     id="path143" />
  <path
     d="m 1147.5714,1001 4,1 6,6 -1,4 -6,-4 4,13 7,10 3,5 h -5 l -8,-11 -4,-9 -1,-4 v -10 z"
     fill="#040884"
     data-index="143"
     id="path144" />
  <path
     d="m 1429.5714,528 h 3 l 10,30 6,12 v 4 h -3 l -8,-16 -7,-21 z"
     fill="#02096f"
     data-index="144"
     id="path145" />
  <path
     d="m 151.57143,862 h 42 l 1,4 h -43 z"
     fill="#0516e5"
     data-index="145"
     id="path146" />
  <path
     d="m 119.57143,228 h 6 v 2 h -4 l -1,7 -11,35 h -2 l -1,-6 11,-35 z"
     fill="#04087b"
     data-index="146"
     id="path147" />
  <path
     d="m 1117.5714,991 5,2 4,6 8,23 3,6 v 3 l -4,-1 -4,-8 -8,-23 -2,-3 h -4 v -4 z"
     fill="#020968"
     data-index="147"
     id="path148" />
  <path
     d="m 1553.5714,466 h 1 v 17 l 2,1 -2,7 -3,19 -2,4 -3,1 1,-9 2,-13 1,-23 h 1 l 1,3 z"
     fill="#040c9f"
     data-index="148"
     id="path149" />
  <path
     d="m 1500.5714,663 h 3 v 16 l -4,16 -6,12 -2,1 -1,-4 5,-12 3,-12 z"
     fill="#040889"
     data-index="149"
     id="path150" />
  <path
     d="m 1186.5714,974 10,1 17,7 7,3 h 5 l 2,-4 2,6 -5,3 -9,-2 -18,-8 -9,-2 v -2 z"
     fill="#04098e"
     data-index="150"
     id="path151" />
  <path
     d="m 1538.5714,836 3,1 7,12 v 2 h -19 l 6,-11 z"
     fill="#fefefd"
     data-index="151"
     id="path152" />
  <path
     d="m 202.57143,811 3,1 v 41 l -4,1 v -42 z"
     fill="#0414d7"
     data-index="152"
     id="path153" />
  <path
     d="m 1282.5714,1353 3,1 v 42 h -4 v -38 z"
     fill="#040c9e"
     data-index="153"
     id="path154" />
  <path
     d="m 1242.5714,1404 h 30 l 1,4 h -42 l -1,-3 z"
     fill="#0517eb"
     data-index="154"
     id="path155" />
  <path
     d="m 1649.5714,754 4,3 -2,13 -6,23 -3,3 -1,-7 6,-25 z"
     fill="#040776"
     data-index="155"
     id="path156" />
  <path
     d="m 227.57143,862 h 30 l -1,4 h -41 l -1,-3 z"
     fill="#0512ce"
     data-index="156"
     id="path157" />
  <path
     d="m 1310.5714,1404 h 26 l 2,2 -1,2 h -42 l -1,-3 z"
     fill="#0515df"
     data-index="157"
     id="path158" />
  <path
     d="m 1763.5714,245 3,1 v 4 l -16,7 -14,9 -3,3 -4,-1 6,-7 13,-8 10,-5 5,-1 z"
     fill="#050888"
     data-index="158"
     id="path159" />
  <path
     d="m 1803.5714,953 h 1 l 1,128 h 1 v 7 l -4,1 z"
     fill="#0517eb"
     data-index="159"
     id="path160" />
  <path
     d="m 1282.5714,1418 h 2 l 1,13 v 30 l -4,-1 v -32 z"
     fill="#030c95"
     data-index="160"
     id="path161" />
  <path
     d="m 823.57143,265 h 4 l 3,27 1,7 v 8 l -3,-2 -3,-14 -2,-22 z"
     fill="#04098a"
     data-index="161"
     id="path162" />
  <path
     d="m 201.57143,876 h 3 l 1,22 v 20 h -4 z"
     fill="#0512cc"
     data-index="162"
     id="path163" />
  <path
     d="m 252.57143,464 1,4 -7,23 -1,5 h 3 v 2 h -5 l -2,9 h -2 v -9 l 8,-25 2,-2 z"
     fill="#020972"
     data-index="163"
     id="path164" />
  <path
     d="m 1563.5714,571 h 1 l -1,8 -4,10 -5,18 2,1 -6,1 1,-8 6,-20 4,-9 z"
     fill="#05098d"
     data-index="164"
     id="path165" />
  <path
     d="m 1304.5714,637 h 2 l 4,12 7,14 4,6 v 3 l -4,-1 -8,-13 -6,-14 v -6 z"
     fill="#020968"
     data-index="165"
     id="path166" />
  <path
     d="m 1540.5714,437 h 2 v 2 l 4,1 5,12 2,8 v 15 l -1,7 h -1 l -2,-18 -4,-15 -5,-10 z"
     fill="#02086b"
     data-index="166"
     id="path167" />
  <path
     d="m 76.571429,389 6,1 3,5 -1,6 -4,2 -6,-1 -2,-3 v -6 z"
     fill="#040a97"
     data-index="167"
     id="path168" />
  <path
     d="m 1484.5714,704 7,1 1,8 8,17 v 9 h -2 l -6,-16 -8,-16 z"
     fill="#020867"
     data-index="168"
     id="path169" />
  <path
     d="m 114.57143,306 4,1 v 3 l -2,1 -10,31 -1,-2 -3,1 3,-12 7,-20 z"
     fill="#05098d"
     data-index="169"
     id="path170" />
  <path
     d="m 1549.5714,512 1,3 -6,25 -3,10 h -3 l -1,-2 7,-27 2,-6 3,-1 z"
     fill="#040886"
     data-index="170"
     id="path171" />
  <path
     d="m 94.571429,397 h 7.000001 l 3,3 v 6 l -4,4 h -5.000001 l -4,-5 1,-6 z"
     fill="#050889"
     data-index="171"
     id="path172" />
  <path
     d="m 1708.5714,619 h 1 v 22 l -4,10 -3,6 -1,-3 -3,-1 3,-3 3,-8 1,-19 h 2 z"
     fill="#05098e"
     data-index="172"
     id="path173" />
  <path
     d="m 1612.5714,771 h 2 l 1,5 -10,30 -1,-2 -3,1 3,-11 z"
     fill="#050884"
     data-index="173"
     id="path174" />
  <path
     d="m 1743.5714,654 h 1 v 7 h 2 l 1,-4 -1,38 h -1 v -6 l -3,-1 v -26 z"
     fill="#0514d9"
     data-index="174"
     id="path175" />
  <path
     d="m 225.57143,506 h 1 l -1,9 -6,18 -4,6 -3,2 -4,-1 h 3 v -2 l -2,-1 5,-3 8,-25 z"
     fill="#050990"
     data-index="175"
     id="path176" />
  <path
     d="m 114.57143,404 h 6 l 3,3 1,4 -3,5 -4,1 -5,-2 -1,-2 v -6 z"
     fill="#030873"
     data-index="176"
     id="path177" />
  <path
     d="m 311.57143,424 4,1 7,10 8,12 3,5 2,4 2,3 -4,-2 -9,-11 -13,-20 z"
     fill="#020970"
     data-index="177"
     id="path178" />
  <path
     d="m 1461.5714,816 2,2 3,14 v 18 l -2,2 -3,-1 1,-3 -1,-17 -2,-12 z"
     fill="#040676"
     data-index="178"
     id="path179" />
  <path
     d="m 247.57143,401 h 11 l -3,4 v -2 l -11,3 -19,8 -9,1 -4,-2 1,-2 h 9 l 11,-4 11,-5 z"
     fill="#050ca3"
     data-index="179"
     id="path180" />
  <path
     d="m 1805.5714,5 3,1 -1,59 h -1 l -1,-33 h -1 l -1,-10 1,-16 z"
     fill="#05067d"
     data-index="180"
     id="path181" />
  <path
     d="m 1559.5714,797 2,4 -5,10 -11,16 h -3 l -1,-2 12,-18 z"
     fill="#040884"
     data-index="181"
     id="path182" />
  <path
     d="m 80.571429,299 h 1 l -1,9 -8,25 -2,1 -1,-6 9,-28 z"
     fill="#04087d"
     data-index="182"
     id="path183" />
  <path
     d="m 31.571429,480 11,3 21,7 v 4 l -11,-3 -21,-7 z"
     fill="#040886"
     data-index="183"
     id="path184" />
  <path
     d="m 1632.5714,667 4,1 5,8 6,15 v 3 l -4,1 -8,-20 z"
     fill="#02086e"
     data-index="184"
     id="path185" />
  <path
     d="m 1185.5714,975 4,1 2,6 9,13 3,5 -3,2 -11,-14 -4,-8 z"
     fill="#040778"
     data-index="185"
     id="path186" />
  <path
     d="m 313.57143,265 h 2 l -1,8 -7,23 h -2 l -1,-6 7,-23 z"
     fill="#040880"
     data-index="186"
     id="path187" />
  <path
     d="m 1563.5714,802 h 1 v 24 h 2 l 1,-2 3,20 v 5 l -2,-3 -2,3 -3,-20 z"
     fill="#020c86"
     data-index="187"
     id="path188" />
  <path
     d="m 52.571429,388 h 1 l -1,9 -7,23 -3,-1 1,-8 7,-21 z"
     fill="#02086c"
     data-index="188"
     id="path189" />
  <path
     d="m 243.57143,301 h 2 l -1,8 -7,21 -3,1 1,-8 6,-20 z"
     fill="#050888"
     data-index="189"
     id="path190" />
  <path
     d="m 332.57143,452 3,1 5,5 7,6 12,7 -1,4 h -2 l -3,-3 -12,-7 -5,-6 -4,-5 z"
     fill="#040884"
     data-index="190"
     id="path191" />
  <path
     d="m 1653.5714,720 h 1 l 1,10 v 12 l -1,10 -2,-4 -2,1 v -23 l 2,-2 z"
     fill="#04098f"
     data-index="191"
     id="path192" />
  <path
     d="m 1094.5714,239 m -2,1 3,1 -1,3 -16,10 -4,3 h -2 l -1,-3 11,-8 z"
     fill="#04077f"
     data-index="192"
     id="path193" />
  <path
     d="m 1615.5714,708 5,5 7,12 3,4 -1,4 v -2 l -4,-1 -7,-11 -4,-8 z"
     fill="#02096c"
     data-index="193"
     id="path194" />
  <path
     d="m 1390.5714,134 h 3 l 11,23 v 2 l -4,-1 -10,-20 z"
     fill="#020a74"
     data-index="194"
     id="path195" />
  <path
     d="m 1454.5714,594 h 1 l 1,6 2,-3 v 27 l -2,-2 -1,5 h -1 z"
     fill="#050b9e"
     data-index="195"
     id="path196" />
  <path
     d="m 1681.5714,513 3,1 2,22 v 6 l -2,-2 -2,2 -1,-8 z"
     fill="#04087d"
     data-index="196"
     id="path197" />
  <path
     d="m 715.57143,934 3,1 -2,11 -4,9 -3,-1 1,-7 4,-12 z"
     fill="#fefefd"
     data-index="197"
     id="path198" />
  <path
     d="m 925.57143,994 5,1 12,7 1,5 -6,-2 -10,-6 -2,-2 z"
     fill="#fefefd"
     data-index="198"
     id="path199" />
  <path
     d="m 702.57143,968 h 3 l -1,6 -7,11 -5,1 1,-4 8,-13 z"
     fill="#fefefd"
     data-index="199"
     id="path200" />
  <path
     d="m 1345.5714,701 2,1 v 2 l 5,1 7,10 1,2 v 9 l -2,-1 -4,-10 -9,-11 z"
     fill="#020867"
     data-index="200"
     id="path201" />
  <path
     d="m 1372.5714,678 4,5 9,10 4,4 -2,3 -12,-11 -5,-8 z"
     fill="#04098a"
     data-index="201"
     id="path202" />
  <path
     d="m 1642.5714,542 h 1 l 1,14 2,7 v 18 l -2,-1 -2,-15 -1,-20 z"
     fill="#040775"
     data-index="202"
     id="path203" />
  <path
     d="m 238.57143,501 2,3 -1,9 -5,15 -2,1 -1,-5 z"
     fill="#040989"
     data-index="203"
     id="path204" />
  <path
     d="m 1298.5714,180 4,1 8,8 7,8 1,3 -5,-1 -7,-8 -8,-8 z"
     fill="#02096e"
     data-index="204"
     id="path205" />
  <path
     d="m 681.57143,997 h 3 l -1,4 -11,10 -4,1 v -4 l 7,-7 z"
     fill="#fefefd"
     data-index="205"
     id="path206" />
  <path
     d="m 902.57143,969 4,2 9,11 1,4 -5,-1 -7,-8 -3,-5 z"
     fill="#fefefd"
     data-index="206"
     id="path207" />
  <path
     d="m 643.57143,540 h 1 v 46 h -1 l -1,-15 v -19 l -3,7 -1,-4 4,-14 z"
     fill="#050362"
     data-index="207"
     id="path208" />
  <path
     d="m 1429.5714,435 2,1 -2,2 v 3 l -9,10 -4,5 -3,-1 2,-5 12,-13 z"
     fill="#050b9b"
     data-index="208"
     id="path209" />
  <path
     d="m 1681.5714,819 h 2 l -1,8 -3,15 h -4 l 1,-10 3,-11 z"
     fill="#040882"
     data-index="209"
     id="path210" />
  <path
     d="m 1584.5714,633 h 1 v 27 l -2,7 h -1 l -1,-20 z"
     fill="#040671"
     data-index="210"
     id="path211" />
  <path
     d="m 1599.5714,118 h 2 l -1,6 -7,16 h -4 l 6,-16 2,-5 z"
     fill="#04098d"
     data-index="211"
     id="path212" />
  <path
     d="m 41.571429,417 3,3 -2,9 -4,13 h -3 l -1,-2 z"
     fill="#030874"
     data-index="212"
     id="path213" />
  <path
     d="m 889.57143,937 4,2 4,14 v 3 h -4 l -4,-11 -1,-7 z"
     fill="#fefefd"
     data-index="213"
     id="path214" />
  <path
     d="m 705.57143,177 1,3 -5,17 -1,3 h -2 l -1,-6 5,-15 z"
     fill="#040884"
     data-index="214"
     id="path215" />
  <path
     d="m 961.57143,626 2,4 4,22 v 11 l -2,-1 -3,-10 v -16 z"
     fill="#05046a"
     data-index="215"
     id="path216" />
  <path
     d="m 1704.5714,586 h 1 l 3,26 5,-1 -2,3 -6,-1 -1,4 -2,-17 h 2 z"
     fill="#050a98"
     data-index="216"
     id="path217" />
  <path
     d="m 113.57143,248 h 2 l -1,8 -5,16 h -2 l -1,-6 4,-13 z"
     fill="#030872"
     data-index="217"
     id="path218" />
  <path
     d="m 86.571429,278 h 2 l -1,7 -5,16 -4,-2 6,-20 z"
     fill="#04077f"
     data-index="218"
     id="path219" />
  <path
     d="m 1360.5714,720 2,3 1,6 v 14 h -1 l -1,14 h -1 l -1,-22 -1,-10 h 1 z"
     fill="#050a95"
     data-index="219"
     id="path220" />
  <path
     d="m 1475.5714,685 3,1 8,16 v 2 l -3,1 -9,-16 z"
     fill="#050783"
     data-index="220"
     id="path221" />
  <path
     d="m 57.571429,366 2,1 v 8 l -5,16 -2,-2 -2,1 3,-11 z"
     fill="#040984"
     data-index="221"
     id="path222" />
  <path
     d="m 703.57143,230 h 5 l 1,1 -1,54 h -1 v -51 l -4,-1 z"
     fill="#050362"
     data-index="222"
     id="path223" />
  <path
     d="m 1565.5714,479 h 14 l -1,2 -17,4 -6,1 1,-4 z"
     fill="#04077f"
     data-index="223"
     id="path224" />
  <path
     d="m 1247.5714,125 4,1 7,8 5,5 v 3 l -4,-1 -9,-9 -3,-4 z"
     fill="#020864"
     data-index="224"
     id="path225" />
  <path
     d="m 1574.5714,1560 2,1 -1,4 1,4 -4,13 -2,-2 -2,6 -1,-4 z"
     fill="#030977"
     data-index="225"
     id="path226" />
  <path
     d="m 1140.5714,903 4,2 -5,5 -8,7 -6,4 1,-4 z"
     fill="#05077e"
     data-index="226"
     id="path227" />
  <path
     d="m 1404.5714,609 3,4 2,8 v 12 l -3,-3 -3,-13 v -7 z"
     fill="#020971"
     data-index="227"
     id="path228" />
  <path
     d="m 1393.5714,569 5,1 1,1 1,7 v 9 l -2,2 -2,-7 -2,-8 z"
     fill="#020971"
     data-index="228"
     id="path229" />
  <path
     d="m 1321.5714,670 4,4 7,9 1,4 -3,1 -11,-14 v -2 h 2 z"
     fill="#040779"
     data-index="229"
     id="path230" />
  <path
     d="m 1642.5714,532 h 1 l 1,7 2,-4 v 28 h -1 l -2,-7 -1,-14 z"
     fill="#0517eb"
     data-index="230"
     id="path231" />
  <path
     d="m 103.57143,340 h 2 l -1,8 -4,13 -2.000001,1 -1,-7 4.000001,-13 z"
     fill="#040778"
     data-index="231"
     id="path232" />
  <path
     d="m 1748.5714,640 h 2 l -1,8 -3,13 h -2 v -12 l 2,-8 z"
     fill="#040780"
     data-index="232"
     id="path233" />
  <path
     d="m 1409.5714,626 2,4 2,12 v 6 l -3,1 -2,-9 -1,-8 1,-3 z"
     fill="#040a89"
     data-index="233"
     id="path234" />
  <path
     d="m 1770.5714,1 h 38 l -1,4 -4,1 -1,-1 -8,-1 V 3 l -24,-1 z"
     fill="#050469"
     data-index="234"
     id="path235" />
  <path
     d="m 1771.5714,490 h 2 l 7,11 v 7 h -2 l -7,-13 -1,-4 z"
     fill="#020969"
     data-index="235"
     id="path236" />
  <path
     d="m 265.57143,407 5,4 5,10 1,9 h -2 l -3,-10 -2,-3 v -3 h -2 l -1,3 z"
     fill="#020866"
     data-index="236"
     id="path237" />
  <path
     d="m 1532.5714,838 1,2 h 2 l -2,5 -3,5 18,1 v 1 h -20 l -2,-1 2,-6 z"
     fill="#040b9d"
     data-index="237"
     id="path238" />
  <path
     d="m 1430.5714,766 3,3 8,12 -3,3 -8,-11 -1,-5 z"
     fill="#02096e"
     data-index="238"
     id="path239" />
  <path
     d="m 1147.5714,1001 4,1 6,6 -1,4 -5,-4 h -2 l -2,3 -1,-1 v -8 z"
     fill="#020766"
     data-index="239"
     id="path240" />
  <path
     d="m 1429.5714,528 h 3 l 4,13 v 3 h -2 l -1,3 -4,-14 z"
     fill="#03097d"
     data-index="240"
     id="path241" />
  <path
     d="m 26.571429,465 1,3 h 2 v 9 l 3,6 -5,-1 -3,-5 1,-8 z"
     fill="#03087b"
     data-index="241"
     id="path242" />
  <path
     d="m 303.57143,293 3,3 -2,10 -2,6 -1,-2 -3,1 3,-12 z"
     fill="#040987"
     data-index="242"
     id="path243" />
  <path
     d="m 1730.5714,265 2,1 -2,2 2,2 -8,7 -1,2 -5,1 -2,1 2,-4 z"
     fill="#050ca2"
     data-index="243"
     id="path244" />
  <path
     d="m 823.57143,265 h 4 v 18 l -2,3 -1,-3 z"
     fill="#030770"
     data-index="244"
     id="path245" />
  <path
     d="m 1594.5714,832 h 1 l -1,9 -3,10 h -4 l 2,-10 3,-4 z"
     fill="#01085c"
     data-index="245"
     id="path246" />
  <path
     d="m 1491.5714,67 2,1 1,3 v 14 h -3 l -2,-17 z"
     fill="#030980"
     data-index="246"
     id="path247" />
  <path
     d="m 256.57143,450 h 1 l -1,9 -2,6 -3,2 -2,5 -1,-3 6,-17 z"
     fill="#030875"
     data-index="247"
     id="path248" />
  <path
     d="m 1202.5714,1000 4,2 7,8 1,5 h -3 l -9,-11 z"
     fill="#030768"
     data-index="248"
     id="path249" />
  <path
     d="m 1484.5714,704 7,1 1,8 1,4 h -4 l -5,-10 z"
     fill="#02096c"
     data-index="249"
     id="path250" />
  <path
     d="m 1489.5714,836 2,1 v 14 l -6,1 2,-1 v -11 z"
     fill="#050362"
     data-index="250"
     id="path251" />
  <path
     d="m 1749.5714,548 h 3 l -2,11 -2,5 h -4 l 1,-6 z"
     fill="#05098c"
     data-index="251"
     id="path252" />
  <path
     d="m 1649.5714,754 4,3 -2,13 -5,1 z"
     fill="#050886"
     data-index="252"
     id="path253" />
  <path
     d="m 1654.5714,836 h 2 l -1,13 -1,2 h -4 l 2,-13 z"
     fill="#040777"
     data-index="253"
     id="path254" />
  <path
     d="m 1643.5714,747 8,1 2,-1 v 10 l -2,1 -3,-5 -5,-3 z"
     fill="#010758"
     data-index="254"
     id="path255" />
  <path
     d="m 323.57143,442 h 4 l 6,10 2,4 2,3 -4,-2 -9,-11 z"
     fill="#03086f"
     data-index="255"
     id="path256" />
  <path
     d="m 62.571429,354 h 2 l -1,8 -3,10 h -2 v -9 z"
     fill="#030871"
     data-index="256"
     id="path257" />
  <path
     d="m 1345.5714,305 5,5 4,5 v 4 l -4,-2 -7,-8 z"
     fill="#030770"
     data-index="257"
     id="path258" />
  <path
     d="m 1696.5714,653 5,1 -1,7 -2,7 -3,-6 v -7 z"
     fill="#01095a"
     data-index="258"
     id="path259" />
  <path
     d="m 1549.5714,512 1,3 -3,14 h -2 l -1,-2 1,-11 4,-2 z"
     fill="#040882"
     data-index="259"
     id="path260" />
  <path
     d="m 1617.5714,75 h 2 l -1,6 -4,9 h -4 l 3,-9 z"
     fill="#040882"
     data-index="260"
     id="path261" />
  <path
     d="m 1552.5714,675 4,4 1,2 2,-2 1,8 -3,2 -6,-10 z"
     fill="#071081"
     data-index="261"
     id="path262" />
  <path
     d="m 1669.5714,477 2,1 v 1 l 2,1 -8,7 -3,3 -1,-2 -2,1 2,-4 z"
     fill="#050fb8"
     data-index="262"
     id="path263" />
  <path
     d="m 886.57143,910 h 4 v 11 l -4,1 -1,-8 z"
     fill="#fefefd"
     data-index="263"
     id="path264" />
  <path
     d="m 1365.5714,777 3,3 5,8 v 3 l -4,-1 -5,-8 z"
     fill="#040879"
     data-index="264"
     id="path265" />
  <path
     d="m 299.57143,310 h 2 l -1,9 -2,6 h -2 l -1,-6 3,-8 z"
     fill="#040776"
     data-index="265"
     id="path266" />
  <path
     d="m 1106.5714,232 2,4 -11,6 -3,-1 1,-3 z"
     fill="#03087a"
     data-index="266"
     id="path267" />
  <path
     d="m 1692.5714,716 2,2 1,7 -2,8 -2,-2 -2,1 2,-11 z"
     fill="#04098b"
     data-index="267"
     id="path268" />
  <path
     d="m 1220.5714,1026 3,1 2,9 -3,5 h -2 z"
     fill="#030767"
     data-index="268"
     id="path269" />
  <path
     d="m 1544.5714,839 3,1 5,9 v 2 l -4,1 -5,-10 z"
     fill="#020863"
     data-index="269"
     id="path270" />
  <path
     d="m 1589.5714,685 2,3 3,13 -4,1 -2,-7 z"
     fill="#020a78"
     data-index="270"
     id="path271" />
  <path
     d="m 1685.5714,323 3,1 -2,5 -5,7 -3,-1 4,-8 z"
     fill="#050887"
     data-index="271"
     id="path272" />
  <path
     d="m 1595.5714,823 3,2 -2,9 -2,-1 -2,6 h -2 l 3,-11 z"
     fill="#040887"
     data-index="272"
     id="path273" />
  <path
     d="m 1719.5714,278 2,1 -2,4 -6,8 -1,-3 -2,-1 4,-5 z"
     fill="#05088a"
     data-index="273"
     id="path274" />
  <path
     d="m 1448.5714,572 4,5 3,5 v 3 h -3 l -6,-9 v -2 h 2 z"
     fill="#03097c"
     data-index="274"
     id="path275" />
  <path
     d="m 1320.5714,275 6,3 6,9 h -5 l -7,-10 z"
     fill="#020a75"
     data-index="275"
     id="path276" />
  <path
     d="m 1570.5714,1579 h 1 l -1,9 -1,4 h -2 l -2,4 -1,-4 2,-6 2,-1 z"
     fill="#020864"
     data-index="276"
     id="path277" />
  <path
     d="m 1619.5714,505 h 3 l 3,7 v 4 h -2 l -1,3 -3,-9 z"
     fill="#03097c"
     data-index="277"
     id="path278" />
  <path
     d="m 356.57143,475 1,2 -8,16 -1,-3 v -6 z"
     fill="#050362"
     data-index="278"
     id="path279" />
  <path
     d="m 1551.5714,460 h 2 v 15 l -1,7 h -1 l -1,-21 z"
     fill="#040563"
     data-index="279"
     id="path280" />
  <path
     d="M -0.42857143,509 H 2.5714286 l 1,7 3,5 -3,1 -4.00000003,-5 z"
     fill="#010859"
     data-index="280"
     id="path281" />
  <path
     d="m 239.57143,317 h 1 l -1,8 -3,6 h -2 l 1,-8 2,-5 z"
     fill="#02086a"
     data-index="281"
     id="path282" />
  <path
     d="m 1570.5714,775 h 2 l -1,7 -2,6 -2,-2 -2,1 3,-10 z"
     fill="#020a73"
     data-index="282"
     id="path283" />
  <path
     d="m 1469.5714,676 h 4 l 3,9 -1,2 h -2 l -4,-8 z"
     fill="#02096f"
     data-index="283"
     id="path284" />
  <path
     d="m 1314.5714,659 4,5 3,5 v 3 l -4,-1 -4,-6 z"
     fill="#03076d"
     data-index="284"
     id="path285" />
  <path
     d="m 1552.5714,652 3,1 2,7 v 4 h -2 l -1,2 -2,-7 z"
     fill="#030978"
     data-index="285"
     id="path286" />
  <path
     d="m 230.57143,527 4,1 -3,11 h -3 l -1,-3 z"
     fill="#050b99"
     data-index="286"
     id="path287" />
  <path
     d="m 1328.5714,286 5,2 3,4 1,7 -5,-5 -4,-6 z"
     fill="#020966"
     data-index="287"
     id="path288" />
  <path
     d="m 1618.5714,770 h 3 l 2,6 v 5 h -3 l -2,-9 -2,-1 z"
     fill="#020972"
     data-index="288"
     id="path289" />
  <path
     d="m 1691.5714,730 h 1 v 7 l -2,6 h -2 l -1,-6 2,-5 z"
     fill="#040879"
     data-index="289"
     id="path290" />
  <path
     d="m 1701.5714,584 h 3 v 16 h -2 l -1,-7 z"
     fill="#010750"
     data-index="290"
     id="path291" />
  <path
     d="m 217.57143,531 h 2 l -2,6 -5,4 -4,-1 h 3 v -2 l -2,-1 5,-3 z"
     fill="#050da9"
     data-index="291"
     id="path292" />
  <path
     d="m 74.571429,319 h 1 l -1,8 -3,7 -2,-3 1,-6 z"
     fill="#03076f"
     data-index="292"
     id="path293" />
  <path
     d="m 1307.5714,189 5,3 6,6 v 2 l -5,-1 -6,-7 z"
     fill="#03045b"
     data-index="293"
     id="path294" />
  <path
     d="m 1554.5714,1631 h 1 l -1,9 -2,4 -2,-1 1,-9 z"
     fill="#010860"
     data-index="294"
     id="path295" />
  <path
     d="m 1440.5714,782 h 2 l 5,7 -1,3 h -3 l -4,-6 z"
     fill="#020866"
     data-index="295"
     id="path296" />
  <path
     d="m 1366.5714,670 h 4 l 2,5 v 6 l -3,-1 -3,-7 z"
     fill="#02096f"
     data-index="296"
     id="path297" />
  <path
     d="m 1331.5714,641 4,1 5,8 h -2 l -1,2 -6,-9 z"
     fill="#050888"
     data-index="297"
     id="path298" />
  <path
     d="m 252.57143,464 1,4 -4,13 -2,1 1,-10 z"
     fill="#020862"
     data-index="298"
     id="path299" />
  <path
     d="m 233.57143,386 4,2 -12,7 -1,-4 z"
     fill="#040ca0"
     data-index="299"
     id="path300" />
  <path
     d="m 1096.5714,1032 2,2 1,8 1,2 -4,-1 -2,1 v -11 z"
     fill="#0517eb"
     data-index="300"
     id="path301" />
  <path
     d="m 1651.5714,713 2,1 v 10 l -1,5 -2,-3 v -12 z"
     fill="#00074b"
     data-index="301"
     id="path302" />
  <path
     d="m 313.57143,265 h 2 l -1,8 -1,4 h -2 l -1,-6 2,-5 z"
     fill="#040774"
     data-index="302"
     id="path303" />
  <path
     d="m 1557.5714,1621 h 1 l -1,9 -2,4 -1,-2 -2,1 3,-10 z"
     fill="#02096f"
     data-index="303"
     id="path304" />
  <path
     d="m 1681.5714,819 h 2 l -1,8 -2,4 v -2 h -2 l 1,-8 z"
     fill="#040675"
     data-index="304"
     id="path305" />
  <path
     d="m 1602.5714,804 h 2 v 6 l -2,5 -1,-2 -3,1 3,-9 z"
     fill="#040779"
     data-index="305"
     id="path306" />
  <path
     d="m 1460.5714,650 3,1 3,10 h -4 l -2,-6 z"
     fill="#02086b"
     data-index="306"
     id="path307" />
  <path
     d="m 1456.5714,621 2,3 v 10 l -3,1 v -13 z"
     fill="#020658"
     data-index="307"
     id="path308" />
  <path
     d="m 1693.5714,573 4,1 3,6 3,2 -5,1 -5,-7 z"
     fill="#010861"
     data-index="308"
     id="path309" />
  <path
     d="m 1549.5714,449 2,3 1,8 -3,4 -2,-11 h 2 z"
     fill="#050a92"
     data-index="309"
     id="path310" />
  <path
     d="m 213.57143,411 h 12 l 3,2 -7,2 -9,-1 z"
     fill="#0515e3"
     data-index="310"
     id="path311" />
  <path
     d="m 239.57143,381 2,1 h 7 v 1 l 8,1 v 1 l -17,1 z"
     fill="#050eb3"
     data-index="311"
     id="path312" />
  <path
     d="m 290.57143,339 h 2 l -1,8 -2,4 -2,-3 1,-7 z"
     fill="#030879"
     data-index="312"
     id="path313" />
  <path
     d="m 245.57143,291 h 2 l 1,6 -2,6 -1,-2 -3,1 z"
     fill="#05098e"
     data-index="313"
     id="path314" />
  <path
     d="m 699.57143,188 h 2 l 1,6 -2,6 h -2 l -1,-6 z"
     fill="#04087e"
     data-index="314"
     id="path315" />
  <path
     d="m 1603.5714,108 2,4 -3,7 h -4 l 3,-9 z"
     fill="#04077d"
     data-index="315"
     id="path316" />
  <path
     d="m 1162.5714,929 5,5 1,3 -1,2 -3,-1 -5,-7 h 3 z"
     fill="#04087d"
     data-index="316"
     id="path317" />
  <path
     d="m 1156.5714,921 4,4 2,3 v 3 l -4,-1 -3,-4 z"
     fill="#020861"
     data-index="317"
     id="path318" />
  <path
     d="m 1640.5714,793 h 2 l 2,4 -2,6 h -3 l -2,1 z"
     fill="#05098f"
     data-index="318"
     id="path319" />
  <path
     d="m 1686.5714,740 3,3 -2,9 -1,-2 -3,1 z"
     fill="#04098a"
     data-index="319"
     id="path320" />
  <path
     d="m 1585.5714,677 4,3 v 10 l -2,1 -2,-8 z"
     fill="#010960"
     data-index="320"
     id="path321" />
  <path
     d="m 1366.5714,658 2,4 1,8 -4,1 -3,-2 h 2 z"
     fill="#050a93"
     data-index="321"
     id="path322" />
  <path
     d="m 1304.5714,637 h 2 l 2,9 -3,3 -2,-5 v -6 z"
     fill="#030979"
     data-index="322"
     id="path323" />
  <path
     d="m 1455.5714,586 h 2 l 1,4 v 7 l -2,4 -1,-1 z"
     fill="#01054a"
     data-index="323"
     id="path324" />
  <path
     d="m 286.57143,348 h 2 l 1,5 -2,7 -1,-2 -3,1 z"
     fill="#040985"
     data-index="324"
     id="path325" />
  <path
     d="m 1527.5714,338 h 13 l -1,2 2,2 h -9 z"
     fill="#0517eb"
     data-index="325"
     id="path326" />
  <path
     d="m 1462.5714,833 h 1 l 1,11 2,3 -1,4 -4,1 1,-4 z"
     fill="#0517eb"
     data-index="326"
     id="path327" />
  <path
     d="m 1461.5714,816 2,2 1,8 -2,5 h -1 l -2,-12 z"
     fill="#05098d"
     data-index="327"
     id="path328" />
  <path
     d="m 1646.5714,568 h 1 l 2,13 v 5 h -3 -1 z"
     fill="#050a94"
     data-index="328"
     id="path329" />
  <path
     d="m 99.571429,349 h 2.000001 l 1,5 -3.000001,8 h -1 l -1,-7 z"
     fill="#040772"
     data-index="329"
     id="path330" />
  <path
     d="m 113.57143,248 h 2 l -1,8 -2,3 h -3 l 1,-6 z"
     fill="#040776"
     data-index="330"
     id="path331" />
  <path
     d="m 696.57143,197 3,3 -2,9 -2,-2 -2,1 z"
     fill="#040b95"
     data-index="331"
     id="path332" />
  <path
     d="m 1064.5714,1 h 8 l -4,1 -1,15 h -1 V 7 h -2 z"
     fill="#050362"
     data-index="332"
     id="path333" />
  <path
     d="m 1558.5714,1612 3,3 -2,9 -2,-2 -2,1 z"
     fill="#030b88"
     data-index="333"
     id="path334" />
  <path
     d="m 1403.5714,599 2,4 1,9 -2,-2 -2,2 -1,-8 z"
     fill="#05098e"
     data-index="334"
     id="path335" />
  <path
     d="m 80.571429,299 h 1 l -1,9 -2,3 v -2 h -2 l 2,-9 z"
     fill="#030874"
     data-index="335"
     id="path336" />
  <path
     d="m 1584.5714,1532 h 2 l -1,8 -2,3 -3,-1 3,-9 z"
     fill="#040a8b"
     data-index="336"
     id="path337" />
  <path
     d="m 1683.5714,538 3,4 v 11 l -2,-1 -1,-4 z"
     fill="#010857"
     data-index="337"
     id="path338" />
  <path
     d="m 1543.5714,525 3,4 -1,8 -4,-1 z"
     fill="#040a92"
     data-index="338"
     id="path339" />
  <path
     d="m 37.571429,430 3,4 -2,8 h -3 l -1,-2 z"
     fill="#030b81"
     data-index="339"
     id="path340" />
  <path
     d="m 306.57143,416 4,2 4,6 -4,1 -5,-7 z"
     fill="#04087c"
     data-index="340"
     id="path341" />
  <path
     d="m 968.57143,1858 h 5 l -1,9 h -5 z"
     fill="#050888"
     data-index="341"
     id="path342" />
  <path
     d="m 235.57143,517 h 1 l -1,9 -3,3 -1,-5 z"
     fill="#040670"
     data-index="342"
     id="path343" />
  <path
     d="m 2.5714286,499 h 1 l 1,9 -1,8 h -1 v -7 H 0.57142857 l 1.00000003,-7 z"
     fill="#050a95"
     data-index="343"
     id="path344" />
  <path
     d="m 272.57143,416 2,2 2,6 v 6 h -2 l -3,-12 z"
     fill="#030d92"
     data-index="344"
     id="path345" />
  <path
     d="m 235.57143,406 h 3 l -1,3 -7,3 h -5 l 1,-2 z"
     fill="#050b9d"
     data-index="345"
     id="path346" />
  <path
     d="m 114.57143,404 h 6 v 4 h -5 l -3,2 v -5 z"
     fill="#020760"
     data-index="346"
     id="path347" />
  <path
     d="m 96.571429,400 5.000001,1 -1,5 -3.000001,1 -2,-2 z"
     fill="#fefefd"
     data-index="347"
     id="path348" />
  <path
     d="m 77.571429,390 h 5 l 2,2 v 6 l -2,2 -2,-6 -3,-3 z"
     fill="#030769"
     data-index="348"
     id="path349" />
  <path
     d="m 52.571429,388 h 1 l -1,9 -2,4 h -1 v -9 z"
     fill="#020764"
     data-index="349"
     id="path350" />
  <path
     d="m 237.57143,377 h 3 l -1,10 h -4 z"
     fill="#01085a"
     data-index="350"
     id="path351" />
  <path
     d="m 241.57143,368 h 2 l -1,8 -2,3 v -2 h -2 l 1,-6 z"
     fill="#040776"
     data-index="351"
     id="path352" />
  <path
     d="m 243.57143,301 h 2 l -1,8 -3,3 -1,-6 z"
     fill="#040774"
     data-index="352"
     id="path353" />
  <path
     d="m 82.571429,291 h 2 l -1,7 -2,3 -3,-2 2,-7 z"
     fill="#040886"
     data-index="353"
     id="path354" />
  <path
     d="m 1123.5714,224 2,1 1,3 -8,3 -3,-1 z"
     fill="#03076b"
     data-index="354"
     id="path355" />
  <path
     d="m 1130.5714,221 3,1 v 3 l -7,2 -2,-2 1,-2 z"
     fill="#040887"
     data-index="355"
     id="path356" />
  <path
     d="m 1701.5714,575 1,2 3,-1 -1,8 -4,1 -1,-2 2,-1 -2,-3 h 2 z"
     fill="#05098e"
     data-index="356"
     id="path357" />
  <path
     d="m 1686.5714,543 h 1 l 2,9 v 4 h -2 l -1,3 -1,-6 z"
     fill="#04098d"
     data-index="357"
     id="path358" />
  <path
     d="m 308.57143,495 h 2 l -2,4 -5,4 -4,1 -2,-2 8,-4 z"
     fill="#0510be"
     data-index="358"
     id="path359" />
  <path
     d="m 68.571429,331 h 2 l 1,5 -2,7 h -2 v -9 z"
     fill="#03097c"
     data-index="359"
     id="path360" />
  <path
     d="m 1728.5714,269 4,1 -8,7 -1,2 h -3 l 2,-4 z"
     fill="#050a97"
     data-index="360"
     id="path361" />
  <path
     d="m 115.57143,240 2,3 -1,7 -1,-2 h -2 l -1,4 -1,-2 z"
     fill="#050889"
     data-index="361"
     id="path362" />
  <path
     d="m 1805.5714,5 3,1 v 8 l -3,1 -1,-1 V 6 Z"
     fill="#0517eb"
     data-index="362"
     id="path363" />
  <path
     d="m 1393.5714,569 5,1 v 7 l -3,-1 -2,-4 z"
     fill="#010757"
     data-index="363"
     id="path364" />
  <path
     d="m 30.571429,458 h 1 l -1,10 h -3 l 1,-9 z"
     fill="#020868"
     data-index="364"
     id="path365" />
  <path
     d="m 77.571429,392 4,2 v 5 l -3,1 -2,-1 z"
     fill="#fefefd"
     data-index="365"
     id="path366" />
  <path
     d="m 1705.5714,613 4,2 -1,5 -1,3 h -2 z"
     fill="#01064c"
     data-index="366"
     id="path367" />
  <path
     d="m 48.571429,395 2,1 v 8 l -2,3 -3,-1 z"
     fill="#040a94"
     data-index="367"
     id="path368" />
  <path
     d="m 703.57143,230 h 5 l 1,1 v 7 h -2 v -4 l -4,-1 z"
     fill="#030568"
     data-index="368"
     id="path369" />
  <path
     d="m 1197.5714,994 4,2 2,4 -3,2 -4,-5 z"
     fill="#030772"
     data-index="369"
     id="path370" />
  <path
     d="m 1487.5714,840 h 1 l 1,7 2,-3 v 7 l -6,1 2,-1 z"
     fill="#0514dc"
     data-index="370"
     id="path371" />
  <path
     d="m 1625.5714,723 4,5 1,5 -1,-2 -4,-1 -2,-4 h 2 z"
     fill="#020a6f"
     data-index="371"
     id="path372" />
  <path
     d="m 1363.5714,650 h 2 l 1,2 v 6 l -3,2 -1,-9 z"
     fill="#050ca1"
     data-index="372"
     id="path373" />
  <path
     d="m 115.57143,407 4,1 1,4 -4,1 -2,-2 z"
     fill="#fefefd"
     data-index="373"
     id="path374" />
  <path
     d="m 1574.5714,1560 2,1 -1,4 1,4 -2,3 -1,-2 -2,1 z"
     fill="#040989"
     data-index="374"
     id="path375" />
  <path
     d="m 1575.5714,1556 4,1 -2,9 -3,-1 z"
     fill="#030873"
     data-index="375"
     id="path376" />
  <path
     d="m 1644.5714,686 2,2 1,6 -4,1 -1,-5 z"
     fill="#040881"
     data-index="376"
     id="path377" />
  <path
     d="m 1321.5714,670 4,4 -1,5 -5,-5 v -2 h 2 z"
     fill="#040985"
     data-index="377"
     id="path378" />
  <path
     d="m 1589.5714,841 3,4 -1,6 h -4 z"
     fill="#050886"
     data-index="378"
     id="path379" />
  <path
     d="m 1457.5714,811 h 3 l 1,2 v 7 l -3,-2 z"
     fill="#01075a"
     data-index="379"
     id="path380" />
  <path
     d="m 1406.5714,622 3,1 v 10 l -3,-3 z"
     fill="#010752"
     data-index="380"
     id="path381" />
  <path
     d="m 252.57143,459 2,3 -1,3 -2,2 -2,5 -1,-3 z"
     fill="#05098c"
     data-index="381"
     id="path382" />
  <path
     d="m 1607.5714,101 1,4 -2,5 -4,-1 2,-5 3,-1 z"
     fill="#030774"
     data-index="382"
     id="path383" />
  <path
     d="m 1617.5714,75 h 2 l -1,6 -2,2 h -3 l 2,-6 z"
     fill="#050b9b"
     data-index="383"
     id="path384" />
</svg>
