<?xml version="1.0" encoding="UTF-8" standalone="no"?>
<!-- Created with Inkscape (http://www.inkscape.org/) -->

<svg
   width="215.37082mm"
   height="38.364578mm"
   viewBox="0 0 215.37082 38.364578"
   version="1.1"
   id="svg1"
   xmlns:inkscape="http://www.inkscape.org/namespaces/inkscape"
   xmlns:sodipodi="http://sodipodi.sourceforge.net/DTD/sodipodi-0.dtd"
   xmlns="http://www.w3.org/2000/svg"
   xmlns:svg="http://www.w3.org/2000/svg">
  <sodipodi:namedview
     id="namedview1"
     pagecolor="#505050"
     bordercolor="#ffffff"
     borderopacity="1"
     inkscape:showpageshadow="0"
     inkscape:pageopacity="0"
     inkscape:pagecheckerboard="1"
     inkscape:deskcolor="#505050"
     inkscape:document-units="mm">
    <inkscape:page
       x="0"
       y="0"
       width="215.37082"
       height="38.364578"
       id="page2"
       margin="0"
       bleed="0" />
  </sodipodi:namedview>
  <defs
     id="defs1" />
  <g
     inkscape:label="Layer 1"
     inkscape:groupmode="layer"
     id="layer1"
     transform="translate(4.7172067,-115.9455)">
    <path
       d="m 23.857792,116.47466 h 13.49375 l 3.704166,1.05833 2.910417,1.85209 1.852083,1.85208 1.5875,2.38125 1.058334,2.91042 0.264583,1.05833 v 14.55208 l -0.79375,3.175 -1.852083,3.43959 -2.38125,2.38125 -2.645834,1.5875 -2.645833,1.05833 -1.5875,0.26458 H 23.857792 Z"
       fill="#1f232b"
       id="path11"
       style="stroke-width:0.264583" />
    <path
       d="m 155.88487,116.21008 h 11.1125 l 3.70417,0.26458 2.64583,0.79375 2.64584,1.5875 1.85208,2.11667 1.32292,2.64583 0.26458,1.05834 v 4.49791 l -1.05833,2.91042 -1.5875,2.11667 -2.11667,1.85208 -2.38125,1.05833 h -1.32292 l 2.64584,4.23334 1.85208,2.64583 5.82083,8.73125 0.79375,1.32292 h -6.08541 l -2.91042,-4.23334 -5.82083,-8.73125 -1.85209,-2.64583 v -0.52917 h -4.23333 v 16.13959 h -5.55625 v -37.57084 z"
       fill="#22242b"
       id="path13"
       style="stroke-width:0.264583" />
    <path
       d="m 131.54321,116.21008 h 3.175 l 1.32292,2.64583 4.49791,10.84792 2.91042,7.14375 4.7625,11.64167 2.11666,5.55625 h -5.55624 l -1.05834,-2.11667 -2.38125,-6.08542 -16.13958,-0.26458 -0.26458,1.5875 -2.64584,6.61458 -0.26458,0.26459 h -5.55625 l 2.38125,-5.82084 3.175,-7.9375 3.96875,-10.05416 3.175,-7.9375 z"
       fill="#1f232b"
       id="path15"
       style="stroke-width:0.264583" />
    <path
       d="m 55.607792,116.21008 h 5.027083 l 0.264584,0.26458 v 25.4 l 0.529166,2.64584 1.058334,2.11666 1.852083,1.5875 1.852084,0.79375 h 3.968749 l 2.38125,-1.05833 1.322917,-1.32292 1.058333,-1.5875 0.529167,-2.11666 0.264583,-26.45834 2.116667,-0.26458 h 2.910417 l 0.264583,0.26458 v 25.4 l -0.529167,3.70417 -1.058333,2.38125 -1.5875,2.38125 -2.116667,1.85208 -3.175,1.5875 -2.116666,0.52917 h -4.497917 l -3.439583,-1.05833 -2.645834,-1.5875 -1.852083,-1.85209 -1.5875,-2.91041 -0.79375,-2.64584 z"
       fill="#21242b"
       id="path18"
       style="stroke-width:0.264583" />
    <path
       d="M -4.7172067,116.21008 H 17.243209 v 5.02708 H 0.30987634 v 11.37709 H 14.597376 l 0.264583,0.26458 -0.264583,4.49792 H 0.30987634 V 149.283 H 17.507793 v 4.7625 H -4.7172067 Z"
       fill="#20242b"
       id="path19"
       style="stroke-width:0.264583" />
    <path
       d="m 188.95779,116.21008 h 18.25625 l 3.43958,0.26458 v 4.49792 l -2.11666,0.26458 -15.08125,-0.26458 0.26458,11.64167 14.02292,0.26458 v 4.23333 l -0.52917,0.26459 -9.78958,0.26458 -3.96875,-0.26458 0.26458,11.64166 16.93333,0.26459 v 4.7625 h -22.225 l -0.26458,-23.28334 v -11.37708 l 0.26458,-2.91042 z"
       fill="#ee6b18"
       id="path21"
       style="stroke-width:0.264583" />
    <path
       d="m 29.149459,121.23716 h 7.14375 l 2.910417,1.05833 2.116666,1.5875 1.058334,1.32292 1.058333,2.64583 0.264583,1.5875 v 11.90625 l -0.79375,2.64584 -1.322916,2.11666 -2.38125,2.11667 -2.116667,0.79375 -1.852083,0.26458 h -6.085417 z"
       fill="#fbf9f8"
       id="path24"
       style="stroke-width:0.264583" />
    <path
       d="m 99.793208,115.9455 h 4.233332 l 3.175,0.79375 3.175,1.5875 2.11667,1.85208 0.26458,1.05834 -2.64583,2.38125 -1.05833,0.52916 -1.85209,-1.5875 -2.11666,-1.05833 -1.05834,-0.26458 h -4.233332 l -2.38125,1.05833 -1.5875,1.05833 -1.5875,2.11667 -0.79375,2.11667 -0.264583,1.5875 v 12.43541 l 0.79375,2.64584 1.5875,2.38125 1.852083,1.5875 2.116667,0.79375 3.175005,0.26458 3.175,-0.79375 2.64583,-1.5875 1.05833,-0.52917 3.175,2.91042 -0.52916,1.05833 -2.64584,2.11667 -2.91041,1.32292 -2.11667,0.52916 h -5.556252 l -3.175,-1.05833 -2.38125,-1.32292 -2.645833,-2.38125 -2.116667,-3.70416 -0.79375,-2.91042 -0.264583,-3.70417 V 133.408 l 0.264583,-5.82083 1.058333,-3.70417 2.116667,-3.175 1.852083,-1.85208 3.175,-1.85209 z"
       fill="#1f232b"
       id="path27"
       style="stroke-width:0.264583" />
    <path
       d="m 161.17654,120.97258 8.73125,0.26458 2.64583,1.32292 1.32292,1.5875 0.52917,1.32292 v 3.175 l -1.05834,2.11666 -1.85208,1.5875 -1.5875,0.52917 h -8.99583 v -11.64167 z"
       fill="#fbf9f7"
       id="path37"
       style="stroke-width:0.264583" />
    <path
       d="m 133.13071,124.94133 0.52917,0.52917 4.23333,10.84791 1.5875,3.96875 v 0.52917 h -12.43542 l 0.79375,-2.38125 3.70417,-9.525 1.32292,-3.70417 z"
       fill="#fbf6f3"
       id="path41"
       style="stroke-width:0.264583" />
    <path
       d="m 188.95779,116.21008 h 18.25625 l 3.43958,0.26458 v 4.49792 l -2.11666,0.26458 -14.81667,-0.26458 V 120.708 l 4.7625,-0.26459 h 11.64167 l -0.26459,-3.175 -2.11666,-0.26458 h -17.4625 l -1.32292,0.26458 v 35.45417 l 0.26458,0.79375 20.90209,0.26458 -0.26459,-3.70416 -3.70416,-0.26459 h -12.17084 l -0.26458,-0.52916 h 16.93333 v 4.7625 h -22.225 l -0.26458,-23.28334 v -11.37708 l 0.26458,-2.91042 z"
       fill="#CA763E"
       id="path52"
       style="fill:#000000;fill-opacity:0;stroke-width:0.264583" />
    <path
       d="m 34.441126,145.57883 h 2.116667 l 1.322916,0.79375 -0.264583,1.05833 -0.264583,0.26459 h -3.704167 l -0.529167,-0.52917 1.322917,-0.52917 z"
       fill="#fafaf1"
       id="path134"
       style="stroke-width:0.264583" />
    <path
       d="m 133.13071,129.96841 0.26458,0.79375 0.52917,-0.26458 0.26458,1.05833 -0.52916,1.85208 -1.32292,-0.52916 -0.26458,-1.05834 z"
       fill="#fafaf1"
       id="path203"
       style="stroke-width:0.264583" />
    <path
       d="m 133.92446,138.1705 h 1.32292 l -0.26459,1.05833 -1.5875,0.52917 h -1.32291 l -0.26459,-0.79375 -0.52916,-0.26458 z"
       fill="#fafaf1"
       id="path217"
       style="stroke-width:0.264583" />
    <path
       d="m 133.13071,124.94133 0.52917,0.52917 0.52916,1.85208 -1.85208,0.26458 0.52917,-2.38125 z"
       fill="#f8e9dc"
       id="path273"
       style="stroke-width:0.264583" />
    <path
       d="m 132.60154,126.52883 h 1.32292 l -0.26459,1.32292 -1.05833,-0.26459 -0.79375,0.26459 0.26458,-1.05834 z"
       fill="#f9f4ea"
       id="path326"
       style="stroke-width:0.264583" />
  </g>
</svg>
