<?xml version="1.0" encoding="UTF-8" standalone="no"?>
<svg
   version="1.1"
   viewBox="0 0 686 699"
   width="686"
   height="699"
   id="svg350"
   sodipodi:docname="logo_educare.svg"
   xmlns:inkscape="http://www.inkscape.org/namespaces/inkscape"
   xmlns:sodipodi="http://sodipodi.sourceforge.net/DTD/sodipodi-0.dtd"
   xmlns="http://www.w3.org/2000/svg"
   xmlns:svg="http://www.w3.org/2000/svg">
  <defs
     id="defs350" />
  <sodipodi:namedview
     id="namedview350"
     pagecolor="#505050"
     bordercolor="#ffffff"
     borderopacity="1"
     inkscape:showpageshadow="0"
     inkscape:pageopacity="0"
     inkscape:pagecheckerboard="1"
     inkscape:deskcolor="#505050">
    <inkscape:page
       x="0"
       y="0"
       width="686"
       height="699"
       id="page2"
       margin="0"
       bleed="0" />
  </sodipodi:namedview>
  <path
     d="m 144,0 h 36 l 22,3 23,6 25,10 16,9 1,1 296,1 19,3 16,5 12,5 16,9 12,9 16,16 10,14 8,14 8,21 4,16 2,15 v 411 l -4,23 -7,21 -11,21 -13,18 -10,11 h -2 v 2 l -14,11 -18,11 -20,8 -15,4 -7,1 H 149 L 129,696 106,689 88,681 75,673 61,663 48,651 40,643 30,630 23,619 15,603 9,589 3,567 1,553 0,253 V 148 L 2,130 8,106 17,85 26,69 35,57 44,47 54,37 67,27 84,17 100,10 120,4 Z"
     fill="#1d232b"
     id="path2" />
  <path
     d="m 176,94 h 20 l 13,1 16,3 11,5 17,6 16,8 14,9 13,11 3,3 3,5 5,5 4,5 6,10 7,14 4,14 2,10 1,10 v 20 l -3,16 -5,18 -3,6 -3,1 v -2 l -3,-1 -4,-6 v -2 l -5,-2 -7,-4 -12,-3 h -11 l -12,3 -11,7 -5,5 -9,-1 h -11 l -9,1 -5,-5 -9,-6 -8,-3 -4,-1 h -19 l -14,5 -7,6 h -2 l -2,4 -4,7 h -40 l 1,10 h 36 l 2,1 1,11 4,11 7,9 7,6 11,5 6,1 h 10 l 12,-4 11,-8 6,-8 4,-9 2,-16 1,-5 3,-2 h 9 l 3,1 1,16 3,12 6,10 8,7 10,5 4,1 h 13 l 10,-3 10,-7 6,-7 h 1 v 17 l -3,18 -5,16 -6,14 -8,12 -11,12 -9,8 -14,8 -16,6 -20,3 1,13 3,7 8,5 25,10 13,5 5,1 24,13 5,5 5,2 13,11 9,10 10,13 5,8 v 2 l 3,1 5,13 5,12 5,19 2,13 V 699 H 149 L 129,696 106,689 88,681 75,673 61,663 48,651 40,643 30,630 23,619 15,603 9,589 3,567 1,553 0,253 l 2,2 6,-21 8,-16 10,-16 9,-11 9,-10 h 2 v -2 l 11,-9 7,-6 10,-13 11,-14 4,-5 5,-3 5,-5 16,-11 16,-8 13,-5 19,-5 z"
     fill="#ef6b17"
     id="path3" />
  <path
     d="m 651,255 7,1 5,3 6,10 1,4 v 9 l -3,11 -6,10 -4,5 -8,6 -8,4 -11,3 -6,25 -6,15 -7,13 -8,11 -6,8 2,16 5,18 10,27 8,19 -1,6 -16,35 -15,33 -12,26 -3,-1 -18,-22 -10,-11 v -2 l -3,-1 -7,-8 -5,-6 -8,-7 -5,-5 h -15 l -7,6 -2,4 -8,7 -6,7 -5,4 -1,2 h -2 l -2,4 -12,13 -9,11 -4,4 h -2 l -18,-38 -13,-28 -8,-16 -6,-14 13,-34 7,-19 3,-12 2,-20 -14,-19 -8,-15 -7,-20 -3,-11 v -5 l -11,-2 -12,-7 -8,-8 -7,-14 -1,-4 v -13 l 4,-9 5,-5 7,-3 6,2 10,7 16,8 13,5 1,3 v 13 l 4,13 8,11 11,7 8,3 11,1 11,-2 12,-6 8,-8 7,-13 1,-4 1,-15 5,-4 4,-1 h 13 l 8,4 2,19 7,14 8,8 12,6 4,1 h 18 l 10,-4 6,-4 8,-8 5,-10 2,-6 1,-7 v -10 l 26,-13 5,-4 5,-6 z"
     fill="#faf9ef"
     id="path4" />
  <path
     d="m 232,178 6,2 10,6 8,5 v 2 l 5,2 14,12 13,13 8,10 8,13 6,16 v 4 l -5,-2 -7,-4 -12,-3 h -11 l -12,3 -11,7 -5,5 -9,-1 h -11 l -9,1 -5,-5 -9,-6 -8,-3 -4,-1 h -19 l -14,5 -7,6 h -2 l -2,4 -4,7 h -40 l 1,10 h 36 l 2,1 1,11 4,11 7,9 7,6 11,5 6,1 h 10 l 12,-4 11,-8 6,-8 4,-9 2,-16 1,-5 3,-2 h 9 l 3,1 1,16 3,12 6,10 8,7 10,5 4,1 h 13 l 10,-3 10,-7 6,-7 h 1 v 17 l -3,18 -5,16 -6,14 -8,12 -11,12 -9,8 -14,8 -16,6 -20,3 1,13 3,7 8,5 25,10 13,5 -1,3 v -2 h -2 l -3,9 -10,14 -4,5 -5,2 -1,3 -10,7 -11,5 -15,4 -7,1 h -24 l -15,-3 -15,-5 -12,-6 -13,-9 -5,-4 v -2 l -4,-1 -6,-8 -5,-5 -9,-12 v -4 l 12,-8 7,-6 5,-12 1,-8 v -32 l -1,-21 -6,-11 -7,-15 -6,-18 v -3 l -11,-1 -12,-6 -8,-8 -6,-12 -2,-7 v -8 l 3,-10 6,-8 6,-4 3,-1 h 11 l 8,4 7,8 8,-4 19,-11 18,-10 20,-12 18,-12 16,-12 10,-9 4,-2 2,-4 4,-5 h 2 l 2,-4 z"
     fill="#f8d8b8"
     id="path5" />
  <path
     d="m 572,67 h 20 l 10,4 9,3 v 2 l 4,2 9,6 v 2 l 3,1 v 2 l 3,1 7,9 3,3 v 3 h 2 l 6,11 6,13 2,7 3,17 v 28 l -4,30 -2,6 -3,16 -3,9 -3,7 -4,3 -7,1 -1,2 -4,1 -1,3 -16,8 -4,1 -9,-11 -11,-7 -9,-3 -10,-1 -12,2 -12,6 -7,6 -6,9 -17,-3 -16,2 -5,1 -7,-10 -9,-7 -12,-5 -9,-1 -13,2 -9,4 -8,6 -6,7 -1,2 -8,-1 -18,-8 v -2 l 5,-2 4,-17 5,-12 10,-11 21,-5 16,-4 15,-6 11,-7 3,-3 h 2 v -2 l 5,-5 7,-10 4,-8 5,-15 5,-18 7,-16 8,-14 3,-5 5,-3 3,-4 h 2 l 2,-4 3,-1 v -4 l 6,-3 4,-4 14,-5 z"
     fill="#ef6b17"
     id="path6" />
  <path
     d="m 369,256 6,2 10,7 16,8 13,5 1,3 v 13 l 4,13 8,11 11,7 8,3 11,1 11,-2 12,-6 8,-8 7,-13 2,-4 2,6 v 42 l -1,11 1,2 45,2 v 2 h 3 v 6 l -9,4 -40,1 -2,2 3,3 v 58 h 35 v -2 l 15,-5 17,-9 16,-13 h 2 v -2 h 2 l 1,-3 h 2 v -2 l 4,-1 -6,11 -9,12 -7,5 -4,5 -7,6 -7,4 -1,3 -8,6 h -2 v 2 l -4,4 -6,1 v 2 h -2 v 2 l -10,3 -4,3 -12,4 -8,4 -22,3 -9,-1 -1,-4 -7,-1 -5,-5 -3,-1 -2,-4 -5,-4 -5,-2 -4,-4 -4,-2 -10,-10 -3,-7 6,-22 2,-20 -14,-19 -8,-15 -7,-20 -3,-11 v -5 l -11,-2 -12,-7 -8,-8 -7,-14 -1,-4 v -13 l 4,-9 5,-5 z"
     fill="#f8d8b8"
     id="path7" />
  <path
     d="m 571,64 h 15 l 14,2 v 2 l 3,-1 v 2 l 7,2 13,9 17,17 7,11 9,19 5,19 1,11 v 16 l -2,20 -4,25 -8,29 -3,6 -11,3 -7,2 v -5 l 2,2 h 3 l 1,-3 9,-2 3,-5 3,-11 2,-7 3,-15 2,-7 3,-24 v -28 l -4,-23 -3,-5 -4,-9 -5,-9 v -2 h -2 l -1,-5 -4,-2 -6,-8 -5,-4 -5,-5 -8,-5 v -2 l -9,-2 -10,-4 h -20 l -11,3 -9,3 -2,4 -3,2 h -3 v 4 l -8,7 -4,5 h -3 l -2,5 -9,16 -6,14 -8,28 -5,11 -7,11 -5,6 h -2 v 2 l -14,10 -14,6 -13,4 -20,4 -8,3 -8,9 -6,15 -3,14 -3,2 h -3 l -1,2 -15,-8 -4,-9 -5,-19 -4,-29 v -32 l 3,-18 5,-16 6,-10 6,-5 19,-1 16,-3 29,-6 34,-5 33,-3 16,-1 6,-9 h 2 v -2 l 15,-11 7,-4 4,-1 z"
     fill="#954c1b"
     id="path8" />
  <path
     d="m 651,255 7,1 5,3 6,10 1,4 v 9 l -3,11 -6,10 -4,5 -8,6 -8,4 -11,3 -6,25 -6,15 -7,13 -8,11 -6,8 v 8 l -3,6 h -6 l 2,-5 1,-3 h -2 v 2 l -3,3 h -2 v 2 l -14,11 -9,6 -17,8 -6,2 h -4 v 2 l -13,1 h -19 l -3,-1 v -58 l -3,-1 -1,-3 3,-2 40,-1 9,-3 v -6 h -3 v -2 h -16 l -29,-1 -2,-5 1,-9 v -44 l -1,-3 v -16 l 5,-4 4,-1 h 13 l 8,4 2,19 7,14 8,8 12,6 4,1 h 18 l 10,-4 6,-4 8,-8 5,-10 2,-6 1,-7 v -10 l 26,-13 5,-4 5,-6 z"
     fill="#f9f9ef"
     id="path9" />
  <path
     d="m 592,155 h 2 l 8,19 9,14 5,10 5,15 4,20 2,19 v 7 l -16,8 -4,1 -9,-11 -11,-7 -9,-3 -10,-1 -12,2 -12,6 -7,6 -6,9 -17,-3 -16,2 -5,1 -7,-10 -9,-7 -12,-5 -9,-1 -13,2 -9,4 -8,6 -6,7 -1,2 -8,-1 -18,-8 v -2 l 5,-2 4,-17 5,-12 10,-11 5,-1 37,-1 23,-2 24,-5 20,-6 21,-9 16,-9 9,-7 11,-9 z"
     fill="#f9f9f0"
     id="path10" />
  <path
     d="m 228,278 h 9 l 3,1 1,16 3,12 6,10 8,7 10,5 4,1 h 13 l 10,-3 10,-7 6,-7 h 1 v 17 l -3,18 -5,16 -6,14 -8,12 -11,12 -9,8 -14,8 -16,6 -11,2 h -19 l -8,-1 -1,-1 -1,-26 -1,-13 v -14 h 57 v -9 h -2 v -2 l -57,-1 -1,-3 -2,-24 2,-4 10,-5 8,-7 6,-10 3,-9 1,-15 z"
     fill="#f9f9ef"
     id="path12" />
  <path
     d="m 504,509 h 15 l 28,28 v 5 l -9,15 -10,17 -1,3 4,20 7,56 4,44 v 2 h -61 l 1,-13 3,-32 5,-43 2,-18 3,-12 -1,-7 -16,-25 -3,-4 -2,-5 h 2 l 2,-4 6,-5 7,-8 3,-3 h 2 l 2,-5 z"
     fill="#ef6b17"
     id="path14" />
  <path
     d="m 221,445 9,6 19,8 21,8 -1,3 v -2 h -2 l -3,9 -10,14 -4,5 -5,2 -1,3 -10,7 -11,5 -15,4 -7,1 h -24 l -15,-3 -15,-5 -12,-6 -13,-9 -5,-4 v -2 l -4,-1 -5,-7 v -4 h -2 l -3,-5 v -2 h -2 l -3,-5 -1,-1 v -5 l 2,-2 7,-3 4,-4 3,2 v 2 l 20,10 13,4 h 21 l 13,-2 12,-4 17,-8 5,-3 h 2 l 2,-4 z"
     fill="#faf9f0"
     id="path16" />
  <path
     d="m 232,178 6,2 10,6 8,5 v 2 l 5,2 14,12 13,13 8,10 8,13 6,16 v 4 l -5,-2 -7,-4 -12,-3 h -11 l -12,3 -11,7 -5,5 -9,-1 h -11 l -9,1 -5,-5 -9,-6 -8,-3 -7,-3 3,-3 -3,-13 v -3 l -4,-3 1,-5 11,-8 9,-7 h 2 l 2,-4 3,-3 h 2 l 2,-6 5,-6 h 2 l 2,-4 z"
     fill="#f9f9ef"
     id="path17" />
  <path
     d="m 601,439 h 3 l 5,2 13,32 -1,6 -16,35 -15,33 -12,26 -3,-1 -18,-22 -8,-9 -1,-9 -5,-2 v -2 h -2 l -5,-7 v -6 h -2 l -1,-4 2,-1 v -5 l -1,-4 4,-3 5,-2 1,-7 7,-3 8,-6 3,-5 5,-3 1,-2 3,-1 2,-4 h 3 l 2,-5 4,-4 6,-1 2,-4 2,-5 5,-5 h 4 z"
     fill="#fbfbfa"
     id="path20" />
  <path
     d="m 426,393 1,2 4,1 9,10 5,5 5,4 15,9 9,4 9,3 16,5 h 26 l 9,-1 v -2 l 15,-5 17,-9 16,-13 h 2 v -2 h 2 l 1,-3 h 2 v -2 l 4,-1 -6,11 -9,12 -7,5 -4,5 -7,6 -7,4 -1,3 -8,6 h -2 v 2 l -4,4 -6,1 v 2 h -2 v 2 l -10,3 -4,3 -12,4 -8,4 -22,3 -9,-1 -1,-4 -7,-1 -5,-5 -3,-1 -2,-4 -5,-4 -5,-2 -4,-4 -4,-2 -10,-10 -3,-7 6,-22 2,-16 z"
     fill="#f1aa7f"
     id="path22" />
  <path
     d="m 118,372 5,5 4,7 4,3 3,5 5,5 5,3 3,3 8,6 3,1 v 2 l 6,2 15,7 12,3 25,3 2,5 v 12 l -3,5 -8,4 -7,3 -8,4 -10,4 -7,2 -12,1 h -19 l -11,-5 -6,-3 -8,-3 -5,-5 -5,-2 6,-10 2,-6 1,-8 z"
     fill="#f7ba92"
     id="path25" />
  <path
     d="m 571,64 h 15 l 14,2 v 2 l 3,-1 v 2 l 7,2 13,9 17,17 7,11 9,19 5,19 1,11 v 16 l -2,20 -4,25 -8,29 -3,6 -11,3 -7,2 v -5 l 2,2 h 3 l 1,-3 9,-2 3,-5 3,-11 2,-7 3,-15 2,-7 3,-24 v -28 l -4,-23 -3,-5 -4,-9 -5,-9 v -2 h -2 l -1,-5 -4,-2 -6,-8 -5,-4 -5,-5 -8,-5 v -2 l -9,-2 -10,-4 h -20 l -11,3 -9,3 -2,4 -3,2 h -3 v 4 l -8,7 -4,5 h -3 l -2,5 -6,9 -5,5 -3,6 -2,8 -4,3 h -2 l -1,4 -3,2 h -4 l -4,4 h -9 l -7,1 h -9 l -10,-2 -10,-4 -5,-3 -10,-3 -9,-6 -1,-5 -5,-2 -2,-3 h -16 l -16,-1 v 2 l -7,6 -2,9 -4,14 -2,1 -2,18 1,29 2,24 3,11 2,10 3,5 1,5 9,3 7,3 v 2 h -2 l -1,2 -15,-8 -4,-9 -5,-19 -4,-29 v -32 l 3,-18 5,-16 6,-10 6,-5 19,-1 16,-3 29,-6 34,-5 33,-3 16,-1 6,-9 h 2 v -2 l 15,-11 7,-4 4,-1 z"
     fill="#884920"
     id="path26" />
  <path
     d="m 540,193 h 2 v 2 l -8,5 -12,3 -5,2 -19,4 v 59 l -5,1 -7,-10 -9,-7 -12,-5 -9,-1 -13,2 -9,4 -8,6 -6,7 -1,2 -8,-1 -18,-8 v -2 l 5,-2 4,-17 5,-12 10,-11 5,-1 37,-1 23,-2 24,-5 20,-6 z"
     fill="#facca7"
     id="path28" />
  <path
     d="m 564,256 h 9 l 12,4 9,8 5,9 1,4 v 12 l -4,11 -7,8 -11,6 -4,1 h -11 l -10,-4 -8,-7 -4,-5 -3,-7 -1,-8 2,-12 7,-11 h 2 v -2 l 12,-6 z"
     fill="#f9f8ee"
     id="path29" />
  <path
     d="m 450,256 h 10 l 12,4 7,6 5,8 2,6 v 15 l -4,10 -9,9 -8,4 -4,1 h -11 l -10,-4 -8,-6 -6,-10 -2,-8 v -8 l 3,-10 6,-8 8,-6 z"
     fill="#facda8"
     id="path30" />
  <path
     d="m 369,256 6,2 8,6 2,6 6,1 5,5 7,3 5,1 3,2 1,9 v 12 h 2 l 3,6 2,2 -2,5 h 2 l 2,3 v 7 h -3 l -1,3 1,5 h -2 v 2 l -6,1 v -2 l -10,-1 -2,-1 1,-5 -1,-5 h -2 v -4 l -10,-2 -6,-1 -8,-4 1,-4 -2,-2 -5,3 -7,-8 -5,-11 -1,-4 v -13 l 4,-9 5,-5 z"
     fill="#facca7"
     id="path31" />
  <path
     d="m 178,263 h 9 l 11,3 8,5 6,7 2,6 v 11 l -3,9 -7,9 -10,6 -4,1 h -15 l -10,-5 -8,-9 -4,-11 v -11 l 3,-8 6,-7 10,-5 z"
     fill="#f8d9ba"
     id="path32" />
  <path
     d="m 273,264 h 15 l 9,3 8,7 4,8 1,10 -4,13 -9,10 -9,5 -5,1 h -8 l -11,-4 -8,-8 -4,-8 -1,-4 v -12 l 3,-8 6,-7 7,-4 z"
     fill="#f9f7ee"
     id="path33" />
  <path
     d="m 110,450 3,2 v 2 l 20,10 13,4 h 21 l 13,-2 7,-1 -5,4 -8,2 h -4 l -1,15 -3,9 -1,7 v 5 l -6,1 -3,-1 1,4 19,4 10,1 h 9 l 16,-2 7,-2 h 5 l -3,2 -12,3 -7,1 h -24 l -15,-3 -15,-5 -12,-6 -13,-9 -5,-4 v -2 l -4,-1 -5,-7 v -4 h -2 l -3,-5 v -2 h -2 l -3,-5 -1,-1 v -5 l 2,-2 7,-3 z"
     fill="#fbf0de"
     id="path34" />
  <path
     d="m 424,400 h 1 l 1,19 3,6 v 3 l 3,1 4,6 4,4 1,7 5,1 h 12 l 3,-2 4,1 5,2 h 6 l 1,3 4,1 h 31 l 10,4 6,6 -9,3 -8,4 -9,3 -6,3 -22,3 -9,-1 -1,-4 -7,-1 -5,-5 -3,-1 -2,-4 -5,-4 -5,-2 -4,-4 -4,-2 -10,-10 -3,-7 6,-22 z"
     fill="#f7ba92"
     id="path35" />
  <path
     d="m 118,372 5,5 4,7 4,3 3,5 5,5 5,3 3,3 8,6 3,1 v 2 l 6,2 15,7 12,3 25,3 2,5 -3,5 -7,-1 -1,3 -6,1 -25,-1 -12,-3 -11,-9 -6,-4 -9,-3 -12,-7 -2,-5 v -4 h -2 v -2 h -2 l 2,22 2,4 -5,8 -3,6 -2,1 3,-10 1,-8 z"
     fill="#f1aa7f"
     id="path38" />
  <path
     d="m 214,200 2,1 -10,10 -6,5 -4,3 -9,6 -1,5 4,3 1,9 2,7 -3,4 -17,1 -14,5 -7,6 h -2 l -2,4 -4,7 h -41 l -6,-4 -5,-6 -2,-1 v -2 l -3,-1 H 74 l 3,-2 h 11 l 8,4 7,8 8,-4 19,-11 18,-10 20,-12 18,-12 16,-12 10,-9 z"
     fill="#f8d5b5"
     id="path39" />
  <path
     d="m 428,454 4,2 3,5 v 3 l 8,1 3,6 v 2 l 4,2 1,3 7,1 v 2 l 3,-1 v 2 h 2 v 2 l 7,1 2,4 5,2 2,4 6,2 1,3 -6,3 3,3 5,-3 10,2 2,2 -5,5 h -2 v 2 h -3 v 2 h -2 l -1,5 -4,1 v 2 h -2 l -1,4 -7,4 -1,3 h -2 l -6,-10 -5,-9 v -3 h -2 l -13,-25 -7,-12 -9,-18 z"
     fill="#fbfbfb"
     id="path40" />
  <path
     d="m 272,467 16,8 14,8 2,3 5,2 13,11 9,10 10,13 5,8 v 2 l 3,1 5,13 5,12 5,19 2,13 V 699 H 149 l -9,-1 v -1 h 223 l -1,-112 -4,-19 -4,-13 -3,-6 v -3 l -3,-1 -7,-14 -6,-10 v -2 l -4,-2 -7,-9 -16,-14 v -2 l -5,-2 -14,-9 -9,-4 -10,-5 v -2 z"
     fill="#C8743D"
     id="path44"
     style="fill:#ef6b17;fill-opacity:1" />
  <path
     d="m 190,264 8,2 8,5 6,7 2,6 v 11 l -3,9 -7,9 -8,5 h -7 l 2,-4 v -14 l -2,-4 -3,-1 3,-1 1,-2 h 2 l 1,-7 -1,-2 -9,-2 3,-5 v -6 l -1,-4 -3,-1 h 7 z"
     fill="#f9f7ed"
     id="path46" />
  <path
     d="m 176,94 h 20 l 13,1 16,3 11,5 17,6 16,8 14,9 13,11 3,3 3,5 5,5 4,5 6,10 7,14 4,14 2,10 1,10 v 20 l -3,16 -5,18 -3,6 -3,1 v -2 l -3,-1 -4,-6 -1,-7 h 3 l 1,6 4,4 h 2 l 2,-5 6,-24 v -29 l -2,-14 -3,-11 -6,-15 -7,-12 -2,-4 -3,-2 -1,-3 -5,-4 -6,-7 -4,-2 -1,-3 -15,-10 -16,-9 -15,-5 -2,-2 -15,-4 -3,-1 -15,-3 -6,-1 h -29 l -13,2 -14,3 -3,2 -7,2 -19,10 -8,5 h -3 l -2,4 -2,2 -5,1 v -2 l 18,-13 15,-8 16,-6 19,-5 z"
     fill="#b56835"
     id="path47" />
  <path
     d="m 571,64 h 15 l 14,2 v 2 l 3,-1 v 2 l 7,2 13,9 17,17 7,11 9,19 5,19 1,11 v 16 l -2,20 -4,25 -8,29 -3,6 -11,3 -7,2 v -5 l 2,2 h 3 l 1,-3 9,-2 3,-5 3,-11 2,-7 3,-15 2,-7 3,-24 v -28 l -4,-23 -3,-5 -4,-9 -5,-9 v -2 h -2 l -1,-5 -4,-2 -6,-8 -5,-4 -5,-5 -8,-5 v -2 l -9,-2 -10,-4 h -20 l -11,3 -9,3 -2,4 -3,2 h -3 v 4 l -8,7 -4,5 -2,-1 7,-11 h 2 v -2 l 15,-11 7,-4 4,-1 z"
     fill="#b66936"
     id="path48" />
  <path
     d="m 450,256 h 10 l 12,4 5,4 -1,4 -14,-8 -8,-1 -7,2 h -4 v 2 l -4,1 -2,5 h -2 v 2 h -3 l -1,5 h -2 l -2,8 v 9 l 2,4 4,6 8,6 7,2 v 4 h 13 l 9,-3 3,-7 2,-2 2,-8 h 2 v -9 l 2,1 1,-9 2,-2 2,4 v 15 l -4,10 -9,9 -8,4 -4,1 h -11 l -10,-4 -8,-6 -6,-10 -2,-8 v -8 l 3,-10 6,-8 8,-6 z"
     fill="#f7d0ad"
     id="path49" />
  <path
     d="m 422,521 h 4 l 4,9 3,-1 5,2 4,7 9,6 h 6 v 2 h 2 v 2 l -3,-1 -3,7 h -2 v 2 h 2 l 1,7 -8,9 h -2 l -18,-38 -3,-7 z"
     fill="#f9f7ee"
     id="path50" />
  <path
     d="m 509,471 m -3,1 h 3 v 2 h -2 l 1,3 -2,3 -1,5 h 3 l 5,5 -1,9 -14,2 -11,-7 v -2 l -5,-2 -2,-1 v -2 h -3 v -2 l -4,-2 -3,-3 h 11 l 5,-2 12,-1 v -2 z"
     fill="#fbf1df"
     id="path54" />
  <path
     d="m 573,423 h 2 l -2,4 -14,14 -10,8 h -2 l -1,5 -5,4 -5,3 -4,4 -5,2 h -5 v 3 l -4,1 v 2 h -12 l -8,2 v 2 l -15,3 -2,1 h -8 l -9,-2 -10,-7 v -2 l -5,-2 -1,-3 -5,-2 -13,-11 -8,-6 -5,-5 -3,-2 2,-6 2,4 4,5 v 2 l 5,2 2,4 6,2 2,4 6,2 5,4 1,4 5,1 3,3 v 2 l 7,1 1,3 9,1 22,-3 11,-5 11,-4 5,-3 7,-1 v -2 h 2 v -2 l 6,-1 2,-4 h 2 v -2 l 8,-6 h 2 l 1,-4 9,-6 h 2 l 1,-3 5,-5 z"
     fill="#fad1ae"
     id="path55" />
  <path
     d="m 530,521 3,1 7,8 5,6 2,1 v 5 l -9,15 -10,17 -1,3 4,20 7,56 4,44 v 2 h -55 v -1 l 51,-1 -2,-26 -3,-27 -4,-39 -3,-20 -2,-4 v -7 l 5,-9 8,-13 4,-7 3,-7 -1,-3 -4,-2 -9,-11 z"
     fill="#af6331"
     id="path56" />
  <path
     d="m 185,91 16,1 19,3 5,2 v 1 h -8 l -10,-2 -11,-1 h -20 l -13,1 -25,7 -18,8 -14,9 -9,7 h -2 l -2,4 -4,1 -2,4 -11,13 -6,9 -10,11 -9,7 -3,3 h -2 v 2 l -7,6 -3,3 -1,-3 5,-5 7,-6 1,-2 h 3 l 2,-4 4,-2 2,-4 4,-2 1,-2 h 2 v -2 h 2 l 1,-4 4,-6 h 2 l 2,-5 5,-6 2,-1 2,-4 5,-4 3,-3 5,-2 1,-3 8,-6 h 4 v -2 l 14,-7 7,-4 14,-4 4,-2 13,-2 4,-1 z"
     fill="#251d1c"
     id="path57" />
  <path
     d="m 481,360 h 39 l 24,1 2,3 -3,3 -6,1 -25,1 h -30 l -5,-3 -1,-4 z"
     fill="#ca763e"
     id="path58" />
  <path
     d="m 193,361 h 59 l 3,2 -1,4 h -3 v 2 l -3,1 h -44 l -7,-2 -4,-4 z"
     fill="#f06b17"
     id="path59" />
  <path
     d="m 284,130 6,2 8,7 4,6 5,5 4,5 6,10 7,14 4,14 2,10 1,10 v 20 l -3,16 -5,18 -3,6 -3,1 v -2 l -3,-1 -4,-6 -1,-7 h 3 l 1,6 4,4 h 2 l 2,-5 6,-24 v -29 l -2,-14 -3,-11 -6,-15 -7,-12 -2,-4 -3,-2 -1,-3 -5,-4 -6,-7 -4,-2 -1,-3 z"
     fill="#b66835"
     id="path61" />
  <path
     d="m 349,533 h 2 l 4,10 3,4 4,11 2,11 h 1 l 2,15 1,3 1,30 v 81 l -3,1 -1,-109 -3,-17 -4,-15 -7,-17 -2,-4 z"
     fill="#261d1c"
     id="path63" />
  <path
     d="m 640,96 5,3 12,24 2,7 3,6 3,23 v 11 l -5,44 -2,3 -2,11 -5,18 -4,9 -2,-4 4,-11 6,-22 5,-32 1,-13 v -16 l -2,-15 -4,-15 -10,-21 -6,-9 z"
     fill="#261d1c"
     id="path64" />
  <path
     d="m 91,131 2,1 -5,5 -3,6 -4,2 -2,5 -10,14 -7,6 h -2 l -1,3 -11,9 -3,3 h -2 l -2,5 -8,7 -1,4 -4,4 -6,9 -3,6 h -2 l -1,5 -6,15 -4,11 -3,20 H 1 l -1,-9 v -9 l 2,2 6,-21 8,-16 10,-16 9,-11 9,-10 h 2 v -2 l 11,-9 7,-6 10,-13 11,-14 4,-5 z"
     fill="#ab602f"
     id="path65" />
  <path
     d="m 476,539 2,3 3,6 v 2 h 2 l 7,11 7,12 1,8 -2,13 -1,2 -4,37 -6,56 -1,8 h 2 v 2 h -5 l 1,-13 3,-32 5,-43 2,-18 3,-12 -1,-7 -16,-25 -3,-4 -1,-4 z"
     fill="#b16431"
     id="path66" />
  <path
     d="m 547,539 2,1 -2,6 -8,14 -4,6 -4,9 -1,2 v 6 l 2,1 2,14 2,18 2,13 2,22 1,4 3,44 h -2 l -1,-2 -5,-53 -6,-47 -4,-21 10,-18 5,-8 z"
     fill="#251d1c"
     id="path67" />
  <path
     d="m 403,470 h 3 l 1,3 -3,1 v 2 h 3 l 1,-2 5,2 2,8 v 8 h -2 v 2 h 2 l 1,3 3,1 1,6 3,2 v 3 l -4,1 3,1 2,7 -5,1 -15,-31 -5,-12 2,-4 h 2 z"
     fill="#f8f6ed"
     id="path69" />
  <path
     d="m 497,209 h 1 v 59 l -5,1 -7,-10 -9,-7 -12,-5 -9,-1 -13,2 -9,4 -6,4 -3,-1 4,-5 4,-2 1,-2 14,-3 33,2 1,4 5,2 v 3 l 1,1 1,3 5,4 1,-5 1,-30 -1,-16 z"
     fill="#f8d4b3"
     id="path70" />
  <path
     d="m 571,64 h 15 l 14,2 v 2 l 3,-1 v 2 l 7,2 13,9 17,17 2,5 h -3 v -2 l -4,-2 -6,-8 -5,-4 -5,-5 -8,-5 v -2 l -9,-2 -10,-4 h -20 l -11,3 -9,3 -2,4 -3,2 h -3 v 4 l -8,7 -4,5 -2,-1 7,-11 h 2 v -2 l 15,-11 7,-4 4,-1 z"
     fill="#b36633"
     id="path71" />
  <path
     d="m 315,159 4,5 7,11 3,11 3,10 2,29 -1,13 -3,12 -2,10 -2,5 -1,6 h -2 v 2 h -2 l -1,3 -5,-1 -5,-5 -2,-6 2,-1 5,8 5,2 3,-9 5,-18 2,-13 v -20 l -2,-16 -4,-15 -5,-12 -5,-10 z"
     fill="#261d1c"
     id="path72" />
  <path
     d="m 574,62 h 15 l 12,2 5,3 5,1 2,4 4,1 2,1 v 2 l 5,1 4,4 v 2 h 2 v 2 h 2 l 6,7 v 2 h 2 l -1,2 -8,-7 -9,-9 -12,-8 -8,-4 h -2 v -2 h -8 l -6,-1 h -15 l -9,2 -4,3 -11,7 -6,5 h -2 v 2 h -2 l -2,4 -4,6 h -16 l -2,-2 6,-1 h 12 l 1,-4 6,-7 7,-5 h 2 v -2 l 9,-6 11,-4 z"
     fill="#251d1c"
     id="path74" />
  <path
     d="m 494,576 h 2 l -1,9 -3,16 -5,47 -3,28 -3,23 h -2 v -8 l 2,-18 v -12 l 3,-20 2,-5 1,-22 3,-22 2,-11 z"
     fill="#251d1c"
     id="path78" />
  <path
     d="m 592,155 h 2 l 8,19 9,14 5,10 5,15 4,20 2,19 v 7 l -2,-3 -1,-3 -2,-19 -3,-9 v -9 l -2,-6 v -6 h -2 l -2,-9 -4,-2 -2,-6 -4,-4 -4,-8 -4,-11 -1,-3 -8,4 h -3 z"
     fill="#f9d9bd"
     id="path79" />
  <path
     d="m 483,276 2,1 1,3 v 15 l -4,10 -9,9 -8,4 h -7 v -2 l 12,-4 3,-7 2,-2 2,-8 h 2 v -9 l 2,1 1,-9 z"
     fill="#f8d8b9"
     id="path81" />
  <path
     d="m 533,635 h 3 l 5,49 1,15 h -55 v -1 l 51,-1 -2,-26 -3,-27 z"
     fill="#c06e39"
     id="path83" />
  <path
     d="m 367,137 h 2 l -4,24 v 32 l 5,34 3,11 -1,3 -2,-2 -4,-17 -2,-2 v -3 l 2,-1 -2,-1 -2,-22 v -36 l 2,-14 z"
     fill="#251d1c"
     id="path84" />
  <path
     d="m 278,282 h 10 l 2,2 v 7 l -5,5 h -11 l -3,-2 v -7 l 4,-2 v -2 z"
     fill="#facfab"
     id="path86" />
  <path
     d="m 573,423 h 2 l -2,4 -14,14 -10,8 h -2 l -1,5 -5,4 -5,3 -4,4 -5,2 h -5 v 3 l -4,1 v 2 h -9 l 3,-3 19,-9 5,-4 h 2 l 1,-4 3,-1 v -2 l 8,-6 h 2 l 1,-4 9,-6 h 2 l 1,-3 5,-5 z"
     fill="#fcf1df"
     id="path87" />
  <path
     d="m 179,282 h 13 l 2,3 -1,5 -3,3 -6,2 h -8 l -3,-5 2,-6 z"
     fill="#f9c9a3"
     id="path88" />
  <path
     d="m 193,361 h 59 l 3,2 -1,4 h -3 v 2 l -3,1 h -44 l -7,-2 -4,-4 z m 4,1 1,4 10,2 h 40 l 2,-1 -1,-4 -1,-1 z"
     fill="#ca763e"
     id="path89" />
  <path
     d="m 383,265 6,2 12,6 13,5 1,3 v 13 l 3,11 -3,1 -1,-3 h -2 l -1,-7 v -10 l -3,-5 -9,-3 -6,-3 -4,-3 -4,-2 z"
     fill="#f8d5b5"
     id="path90" />
  <path
     d="m 591,398 2,1 -6,10 -9,12 -3,2 2,-7 -5,2 -5,4 -13,6 h -2 v 2 l -16,5 -2,-2 15,-5 17,-9 16,-13 h 2 v -2 h 2 l 1,-3 h 2 v -2 z"
     fill="#f9d1af"
     id="path91" />
  <path
     d="m 425,284 h 1 l 1,9 2,4 4,6 8,6 7,2 v 4 l 10,1 v 2 l 3,1 h -11 l -10,-4 -8,-6 -6,-10 -1,-2 z"
     fill="#f8d5b5"
     id="path93" />
  <path
     d="m 155,97 4,1 -1,2 -14,3 -3,2 -7,2 -19,10 -8,5 h -3 l -2,4 -2,2 -5,1 v -2 l 18,-13 15,-8 16,-6 z"
     fill="#b36633"
     id="path96" />
  <path
     d="m 265,465 h 7 l 9,3 8,5 v 2 l 6,1 10,6 5,2 1,4 5,2 5,5 -1,3 -11,-9 -6,-3 -4,-4 -26,-14 -5,-1 z"
     fill="#291e1c"
     id="path97" />
  <path
     d="m 408,494 h 2 l 3,3 v -3 h 2 l 1,3 3,1 1,6 3,2 v 3 l -4,1 3,1 2,7 -5,1 -11,-23 z"
     fill="#f8f3ea"
     id="path98" />
  <path
     d="m 416,433 2,4 4,5 v 2 l 5,2 2,4 6,2 2,4 6,2 5,4 1,4 5,1 3,3 v 2 l 7,1 1,3 5,2 v 1 h -6 l -10,-7 v -2 l -5,-2 -1,-3 -5,-2 -13,-11 -8,-6 -5,-5 -3,-2 z"
     fill="#fad1ad"
     id="path99" />
  <path
     d="m 493,208 3,1 -11,3 h -4 v 2 l -36,2 h -17 l -6,-2 v -1 l 37,-1 23,-2 z"
     fill="#f5b58c"
     id="path100" />
  <path
     d="m 514,503 5,2 6,5 4,5 5,5 2,6 -7,-6 -10,-10 h -15 l -3,2 v -4 h 2 v -2 z"
     fill="#fae2ca"
     id="path101" />
  <path
     d="m 268,115 5,1 4,2 v 2 l 5,2 2,4 5,2 3,1 v 2 l 4,2 7,8 2,5 h 3 v 2 h 2 l 2,7 h -2 l -5,-7 -6,-5 -3,-5 -9,-8 -13,-9 -7,-4 z"
     fill="#2b1f1c"
     id="path102" />
  <path
     d="m 208,426 h 12 l 1,14 1,5 -5,4 -3,3 -16,8 -9,3 -2,-1 9,-5 7,-4 10,-4 3,-3 1,-5 1,-9 -2,-1 v -3 l -8,-1 z"
     fill="#fad1ad"
     id="path103" />
  <path
     d="m 489,638 1,3 -4,40 -2,16 h 2 v 2 h -5 l 1,-13 3,-32 2,-7 1,-8 z"
     fill="#b56734"
     id="path104" />
  <path
     d="m 272,467 16,8 14,8 2,3 5,2 7,6 6,8 -5,-2 -9,-8 v -2 l -5,-2 -14,-9 -9,-4 -10,-5 v -2 z"
     fill="#b46633"
     id="path105" />
  <path
     d="m 139,505 h 5 l 13,6 19,4 10,1 h 9 l 16,-2 7,-2 h 5 l -3,2 -12,3 -7,1 h -24 l -15,-3 -15,-5 -8,-4 z"
     fill="#f7cfac"
     id="path106" />
  <path
     d="m 467,541 2,2 -1,4 -9,10 -5,5 -1,-6 h -2 v -2 h 2 l 1,-5 2,-3 3,2 v -3 z"
     fill="#f6f2e8"
     id="path107" />
  <path
     d="m 530,521 3,1 7,8 5,6 2,1 v 5 l -18,30 -5,5 1,-5 4,-7 8,-13 4,-7 3,-7 -1,-3 -4,-2 -9,-11 z"
     fill="#b66834"
     id="path108" />
  <path
     d="m 284,130 6,2 8,7 4,6 5,5 4,5 9,15 1,7 h -2 l -8,-16 -4,-7 -3,-2 -1,-3 -5,-4 -6,-7 -4,-2 -1,-3 z"
     fill="#bd6e3a"
     id="path109" />
  <path
     d="m 91,131 2,1 -5,5 -3,6 -4,2 -2,5 -10,14 -7,6 h -2 l -1,3 -7,6 -2,-1 8,-9 6,-5 10,-13 11,-14 4,-5 z"
     fill="#b16431"
     id="path110" />
  <path
     d="m 315,159 4,5 7,11 3,11 3,10 1,12 -1,3 h -2 l -3,-18 -4,-14 -8,-16 -1,-3 z"
     fill="#251d1c"
     id="path111" />
  <path
     d="m 655,213 h 1 l -1,8 -6,23 -4,9 -11,3 -7,2 v -5 l 2,2 h 3 l 1,-3 9,-2 3,-5 3,-11 2,-7 2,-9 3,-1 z"
     fill="#ac612f"
     id="path112" />
  <path
     d="m 199,371 41,1 v 1 l -39,1 1,8 2,11 v 5 h -2 l 1,26 2,1 -4,-1 -1,-26 -1,-13 z"
     fill="#fbf0df"
     id="path113" />
  <path
     d="m 405,108 11,1 v 1 l -13,2 -19,1 -6,5 -7,14 -1,3 h -2 v -6 l 6,-9 2,-5 h 2 l 1,-3 5,-2 z"
     fill="#251d1c"
     id="path114" />
  <path
     d="m 500,358 h 28 l 16,1 v 2 h -63 l -4,1 -1,4 -1,-5 5,-2 z"
     fill="#f4b992"
     id="path116" />
  <path
     d="m 497,209 h 1 v 59 l -5,1 -6,-9 1,-2 4,2 2,2 1,-5 1,-30 -1,-16 z"
     fill="#f9d9b9"
     id="path117" />
  <path
     d="m 21,206 2,2 -9,15 -7,17 -4,15 H 2 v -13 l 3,-10 4,-5 4,-9 6,-9 z"
     fill="#261d1c"
     id="path118" />
  <path
     d="m 322,497 4,2 v 2 l 2,1 6,7 5,5 5,7 4,8 1,4 -3,-1 -9,-14 -11,-13 -5,-7 z"
     fill="#251d1c"
     id="path122" />
  <path
     d="m 190,264 2,1 1,7 v 9 l -4,1 -6,-1 3,-5 v -6 l -1,-4 -3,-1 h 7 z"
     fill="#fbf0de"
     id="path124" />
  <path
     d="m 193,289 1,2 3,24 1,2 -2,1 h -7 l 2,-4 v -14 l -2,-4 -3,-1 3,-1 1,-2 h 2 z"
     fill="#faedda"
     id="path125" />
  <path
     d="m 573,423 h 2 l -2,4 -14,14 -10,8 h -2 v 2 l -7,5 h -2 l 2,-4 h 2 v -2 l 8,-6 h 2 l 1,-4 9,-6 h 2 l 1,-3 5,-5 z"
     fill="#faceaa"
     id="path126" />
  <path
     d="m 77,260 h 11 l 8,4 7,8 8,-4 5,-2 -4,4 -5,2 v 3 l 2,1 h -6 l -6,-4 -5,-6 -2,-1 v -2 l -3,-1 H 74 Z"
     fill="#f7c098"
     id="path127" />
  <path
     d="m 176,94 h 20 l 4,3 -29,1 -13,1 2,-3 3,-1 z"
     fill="#b56734"
     id="path129" />
  <path
     d="m 561,66 4,2 -5,4 -8,2 -2,4 -3,2 h -3 v 4 l -8,7 -4,5 -2,-1 7,-11 h 2 v -2 l 15,-11 7,-4 z"
     fill="#a25a2b"
     id="path130" />
  <path
     d="m 298,365 h 5 l -3,9 -7,12 -4,-2 1,-4 2,-1 3,-10 z"
     fill="#faf5f1"
     id="path131" />
  <path
     d="m 447,243 16,1 v 2 l -17,1 -11,4 -7,5 -3,-1 4,-5 4,-2 1,-2 z"
     fill="#f8d1af"
     id="path132" />
  <path
     d="m 9,232 2,3 -3,10 -3,12 -2,14 H 1 l -1,-9 v -9 l 2,2 6,-21 z"
     fill="#b66834"
     id="path135" />
  <path
     d="m 248,259 3,1 -2,7 -2,2 -9,-1 -7,-2 v -1 l 7,-2 3,-2 z"
     fill="#faf7f4"
     id="path136" />
  <path
     d="m 413,441 2,1 2,4 h -2 v 2 l -2,1 v 5 l -1,3 -1,5 -4,3 v -3 h -2 l 3,-10 4,-10 z"
     fill="#f9f4e9"
     id="path137" />
  <path
     d="m 179,282 h 13 l 2,3 -1,5 -3,3 -6,1 1,-2 3,-1 -3,-3 -4,-2 2,-1 -4,-1 z"
     fill="#f7c099"
     id="path138" />
  <path
     d="m 272,401 1,4 -2,4 -6,4 h -3 v -3 l -5,-1 v -2 l 4,-3 10,-1 z"
     fill="#faf8f6"
     id="path139" />
  <path
     d="m 228,99 9,1 4,2 v 2 h 7 l 9,4 v 2 l 6,1 3,3 -2,1 -21,-9 -11,-4 z"
     fill="#261d1c"
     id="path140" />
  <path
     d="m 544,361 h 3 v 6 l -8,2 -14,1 h -41 v -1 l 53,-2 7,-2 v -3 z"
     fill="#f1aa7f"
     id="path142" />
  <path
     d="m 498,371 h 11 v 1 l -8,1 -1,62 h -1 v -58 l -3,-1 -1,-3 z"
     fill="#f6ecdc"
     id="path143" />
  <path
     d="m 660,177 h 1 v 9 l -4,26 -2,5 h -2 v -5 l 2,-7 3,-23 z"
     fill="#b16532"
     id="path144" />
  <path
     d="m 571,64 h 15 l 7,2 5,2 -2,1 -4,-1 h -20 l -10,2 1,-2 h 2 v -2 z"
     fill="#b66835"
     id="path145" />
  <path
     d="m 474,542 20,30 -1,4 -3,-3 -5,-9 -3,-5 -2,-1 -3,-7 -4,-4 z"
     fill="#281e1c"
     id="path146" />
  <path
     d="m 496,474 4,1 h -2 v 2 l -15,3 -2,1 h -8 l -6,-1 3,-2 z"
     fill="#f9d6b5"
     id="path147" />
  <path
     d="m 619,218 2,4 v 3 l 3,1 3,26 v 7 l -2,-3 -1,-3 -2,-19 -3,-9 z"
     fill="#fbe8d3"
     id="path148" />
  <path
     d="m 590,246 7,3 v 3 l 3,-1 2,1 2,5 -1,5 -7,-6 -9,-6 z"
     fill="#faf5f0"
     id="path150" />
  <path
     d="m 450,99 h 6 l -3,3 -26,5 -9,2 -3,-2 24,-6 z"
     fill="#251d1c"
     id="path151" />
  <path
     d="m 185,230 5,2 1,10 2,7 -3,4 -10,-1 v -1 h 5 v -2 h 2 v -16 h -2 z"
     fill="#e9e1d5"
     id="path152" />
  <path
     d="m 197,95 h 12 l 16,3 v 2 l -4,2 -15,-3 -6,-1 v -2 z"
     fill="#af6331"
     id="path155" />
  <path
     d="m 26,205 v 3 l -4,6 -3,6 h -2 l -1,5 -4,9 -2,1 1,-8 9,-16 5,-5 z"
     fill="#b76834"
     id="path156" />
  <path
     d="m 658,147 h 2 l 1,9 1,1 v 16 l -2,8 h -1 z"
     fill="#bc6c38"
     id="path158" />
  <path
     d="m 228,278 h 6 v 2 l -3,2 -2,9 -3,3 -2,-1 v -11 z"
     fill="#faefe7"
     id="path160" />
  <path
     d="m 320,173 2,1 5,14 2,9 v 5 l -3,-1 -4,-16 -2,-5 z"
     fill="#b66834"
     id="path161" />
  <path
     d="m 227,418 10,2 -2,5 h -13 v -3 z"
     fill="#fbfaf8"
     id="path162" />
  <path
     d="m 496,296 2,1 1,7 v 27 h -1 l -1,-23 -6,3 1,-5 z"
     fill="#ebdccd"
     id="path163" />
  <path
     d="m 261,114 5,1 17,11 5,5 -7,-2 -14,-9 -6,-5 z"
     fill="#af6432"
     id="path164" />
  <path
     d="m 316,495 4,2 11,12 8,10 -1,2 -3,-2 v -2 l -4,-2 -7,-9 -4,-4 v -2 z"
     fill="#ac612f"
     id="path165" />
  <path
     d="m 185,462 h 7 l -2,2 -14,4 h -28 v -1 l 27,-2 z"
     fill="#fad0ad"
     id="path167" />
  <path
     d="m 80,320 h 8 l 7,2 h 5 l 2,3 v 12 l -2,-3 -2,-9 -11,-1 -7,-3 z"
     fill="#f8c39d"
     id="path168" />
  <path
     d="m 416,433 2,4 4,5 v 2 l 5,2 2,4 6,2 2,4 h 2 l -1,3 -14,-12 -4,-2 -5,-6 -1,-2 z"
     fill="#f9d2b0"
     id="path169" />
  <path
     d="m 208,426 h 12 l 1,14 1,5 -5,4 -2,-1 2,-6 1,-10 -2,-1 v -3 l -8,-1 z"
     fill="#f9c7a2"
     id="path170" />
  <path
     d="m 455,546 4,2 v 5 l 2,2 -6,7 -2,-4 v -2 h -2 v -2 h 2 l 1,-5 z"
     fill="#ede4d8"
     id="path173" />
  <path
     d="m 456,257 h 8 l 9,4 4,3 -1,4 -14,-8 -6,-1 z"
     fill="#f8d6b6"
     id="path174" />
  <path
     d="m 533,635 h 3 l 1,19 v 11 l -2,-1 -2,-20 z"
     fill="#c1703a"
     id="path175" />
  <path
     d="m 228,452 6,1 2,1 v 3 l 5,1 -1,2 h -8 l -5,-2 -1,-5 z"
     fill="#faf9f5"
     id="path176" />
  <path
     d="m 309,263 4,5 5,5 h 2 l 2,-6 3,-3 1,4 -1,3 h -2 v 2 h -2 l -1,3 -5,-1 -5,-5 -2,-6 z"
     fill="#2a1f1c"
     id="path177" />
  <path
     d="m 592,155 h 2 l 7,17 -1,2 -4,-6 -2,-7 -8,4 h -3 z"
     fill="#f7cfae"
     id="path178" />
  <path
     d="m 211,256 4,1 2,7 10,3 -4,2 h -5 l -9,-9 z"
     fill="#f9f0e9"
     id="path179" />
  <path
     d="m 573,241 9,1 1,2 -2,1 v 2 l -19,-2 -1,-2 12,-1 z"
     fill="#faf3ef"
     id="path180" />
  <path
     d="m 250,492 2,1 -5,5 h -2 l -1,3 -10,7 -8,4 h -2 v -2 h 3 l 1,-3 h 4 l 1,-2 6,-4 4,-4 5,-3 z"
     fill="#f8d0af"
     id="path182" />
  <path
     d="m 425,284 h 1 l 1,9 2,4 4,6 2,4 -2,3 -6,-9 -2,-4 z"
     fill="#f8d3b2"
     id="path183" />
  <path
     d="m 218,512 h 5 l -3,2 -12,3 -7,1 h -24 v -1 l 18,-1 16,-2 z"
     fill="#f7c8a4"
     id="path184" />
  <path
     d="m 243,488 h 5 l -1,4 -3,4 -7,-1 -3,-3 3,-2 h 6 z"
     fill="#fcfcfc"
     id="path185" />
  <path
     d="m 217,505 h 5 v 3 h -3 v 2 l -7,3 h -4 l -1,-4 z"
     fill="#fcfcfc"
     id="path187" />
  <path
     d="m 359,262 v 3 3 h -2 l -1,9 v 14 l -2,-1 -1,-4 v -13 l 4,-9 z"
     fill="#f8d1af"
     id="path188" />
  <path
     d="m 310,257 2,2 1,5 4,4 h 2 l 2,-5 1,3 -2,7 -3,1 v -2 l -3,-1 -4,-6 -1,-7 z"
     fill="#be703d"
     id="path189" />
  <path
     d="m 493,208 3,1 -11,3 h -4 v 2 h -13 l -9,-1 v -1 l 23,-2 z"
     fill="#f5b38a"
     id="path190" />
  <path
     d="m 358,563 3,1 4,19 v 5 h -2 l -3,-11 z"
     fill="#b66834"
     id="path191" />
  <path
     d="m 594,394 3,1 -1,9 -3,3 h -5 l 2,-5 2,-3 -1,-2 h 2 z"
     fill="#faefde"
     id="path192" />
  <path
     d="m 311,313 h 1 v 17 l -2,3 -1,-2 v -9 l -3,-1 2,-4 z"
     fill="#f8eee5"
     id="path193" />
  <path
     d="m 265,465 h 7 l 9,3 8,5 1,3 -6,-2 -12,-6 -7,-2 z"
     fill="#2c1f1c"
     id="path195" />
  <path
     d="m 360,260 4,2 4,1 -3,5 -3,2 h -3 l -1,3 -1,-5 h 2 l -1,-3 z"
     fill="#f7bb94"
     id="path196" />
  <path
     d="m 369,256 6,2 5,5 -8,-2 -10,2 -1,-2 4,-4 z"
     fill="#f8d0ad"
     id="path197" />
  <path
     d="m 478,95 h 10 l -4,2 -9,2 -13,1 -2,-2 z"
     fill="#251d1d"
     id="path198" />
  <path
     d="m 322,497 4,2 v 2 l 2,1 6,7 3,4 -2,2 -11,-12 -3,-5 z"
     fill="#271e1c"
     id="path199" />
  <path
     d="m 155,283 1,2 1,13 4,9 h -3 l -4,-8 -1,-4 v -11 z"
     fill="#edd9c6"
     id="path200" />
  <path
     d="m 613,193 2,2 6,18 2,8 v 4 h -2 l -4,-15 v -6 h -2 l -2,-7 z"
     fill="#f7cca9"
     id="path201" />
  <path
     d="m 641,102 3,1 8,15 -1,3 -2,-1 -6,-11 -1,-4 h -2 z"
     fill="#b86935"
     id="path202" />
  <path
     d="m 190,264 2,1 1,6 -1,3 -5,1 -2,-9 -3,-1 h 7 z"
     fill="#e9e0d4"
     id="path205" />
  <path
     d="m 546,245 4,1 2,3 -12,8 -2,-1 1,-3 3,-1 3,-6 z"
     fill="#faf4ef"
     id="path206" />
  <path
     d="m 497,577 1,4 -2,13 -3,8 -2,-1 3,-16 z"
     fill="#ad6231"
     id="path208" />
  <path
     d="m 302,485 7,3 7,6 6,8 -5,-2 -9,-8 v -2 l -5,-2 z"
     fill="#c0703c"
     id="path209" />
  <path
     d="m 403,470 h 3 l 1,3 -3,1 2,4 -1,6 -3,-1 -3,-7 2,-4 h 2 z"
     fill="#f7f2e9"
     id="path210" />
  <path
     d="m 328,241 h 1 l -1,8 -5,18 -2,1 1,-11 4,-12 z"
     fill="#ad6130"
     id="path211" />
  <path
     d="m 576,415 2,1 -2,5 -5,5 -2,-1 -1,-2 -2,-1 7,-6 z"
     fill="#f5b48a"
     id="path212" />
  <path
     d="m 487,258 4,1 3,3 3,-2 1,8 -5,1 -6,-9 z"
     fill="#f6d8bb"
     id="path213" />
  <path
     d="m 485,676 h 1 l -1,13 -1,8 h 2 v 2 h -5 l 1,-13 1,-1 1,-8 z"
     fill="#b66834"
     id="path214" />
  <path
     d="m 190,222 h 2 v 2 h -3 v 6 h 2 l 1,13 -2,-1 -1,-9 -4,-3 1,-5 z"
     fill="#fcf1df"
     id="path215" />
  <path
     d="m 240,181 5,1 8,6 5,3 8,6 v 2 l -4,-2 -6,-4 v -2 l -5,-2 -11,-7 z"
     fill="#ca763e"
     id="path219" />
  <path
     d="m 336,519 5,3 5,8 2,7 -3,-1 -9,-15 z"
     fill="#bf703c"
     id="path221" />
  <path
     d="m 655,213 h 1 l -1,8 -4,16 -2,-4 3,-15 3,-1 z"
     fill="#ad6230"
     id="path222" />
  <path
     d="m 586,168 2,1 -1,7 -4,4 h -4 l 1,-4 3,-2 2,-5 z"
     fill="#fbfbfb"
     id="path223" />
  <path
     d="m 70,159 v 3 l -6,7 -4,1 -1,3 -7,6 -2,-1 8,-9 11,-9 z"
     fill="#bc6c37"
     id="path224" />
  <path
     d="m 242,312 5,1 5,6 v 2 l -4,1 -4,-2 -1,-4 z"
     fill="#faf8f5"
     id="path225" />
  <path
     d="m 450,256 h 10 l -4,2 -9,3 h -4 v 2 l -4,-1 4,-4 z"
     fill="#f8d2b0"
     id="path226" />
  <path
     d="m 487,524 2,1 -8,9 -5,4 -1,2 h -2 v -4 h 2 v -2 h 2 v -2 l 6,-5 z"
     fill="#f9ddc3"
     id="path227" />
  <path
     d="m 504,509 h 15 l 1,2 -15,1 -5,5 h -3 l -1,4 -3,-1 h 2 l 2,-5 z"
     fill="#cd7b44"
     id="path228" />
  <path
     d="m 514,506 5,1 v 2 l -5,1 h -10 l -3,2 v -4 z"
     fill="#f7cca9"
     id="path229" />
  <path
     d="m 195,331 3,3 v 2 17 l -2,3 -2,-24 z"
     fill="#f8eedd"
     id="path230" />
  <path
     d="m 540,193 h 2 v 2 l -8,5 -14,3 v -2 l 18,-7 z"
     fill="#f8d2b2"
     id="path231" />
  <path
     d="m 538,528 4,2 h 3 l 4,2 1,7 h -3 v -2 l -3,-1 z"
     fill="#f8e3ce"
     id="path233" />
  <path
     d="m 64,303 4,2 3,4 1,3 4,3 4,4 h -3 l -8,-7 -5,-7 z"
     fill="#f8c29c"
     id="path234" />
  <path
     d="m 412,292 3,2 3,11 -3,1 -1,-3 h -2 l -1,-7 z"
     fill="#f8d2b0"
     id="path235" />
  <path
     d="m 513,201 h 7 l -4,2 -23,6 h -5 l 4,-2 9,-3 10,-2 z"
     fill="#ca763e"
     id="path237" />
  <path
     d="m 231,190 4,1 -1,5 -8,1 -1,-4 z"
     fill="#fbfbfb"
     id="path238" />
  <path
     d="m 593,66 h 7 v 2 l 3,-1 v 2 l 7,2 1,3 -9,-2 -4,-2 -1,-2 z"
     fill="#ac6130"
     id="path239" />
  <path
     d="m 553,185 3,1 -16,8 -9,4 -3,-1 16,-8 z"
     fill="#ca763e"
     id="path240" />
  <path
     d="m 306,278 2,1 2,8 -1,8 -4,-2 1,-5 -1,-8 z"
     fill="#f9eee7"
     id="path241" />
  <path
     d="m 530,521 3,1 7,8 5,6 2,1 -1,4 h -2 l -1,-6 -4,-2 -9,-11 z"
     fill="#c6733b"
     id="path243" />
  <path
     d="m 137,253 2,1 -4,5 -7,3 h -5 l 3,-3 z"
     fill="#f8c19a"
     id="path244" />
  <path
     d="m 405,226 1,3 -4,11 -1,5 -3,-1 2,-9 h 2 l 1,-8 z"
     fill="#924f24"
     id="path245" />
  <path
     d="m 21,206 2,2 -9,15 -3,-1 3,-5 z"
     fill="#241d1e"
     id="path246" />
  <path
     d="m 578,169 2,1 -10,9 -7,6 h -5 l 5,-4 9,-7 z"
     fill="#f6c5a0"
     id="path247" />
  <path
     d="m 536,644 h 1 l 2,23 v 7 h -2 l -1,-9 z"
     fill="#9f582a"
     id="path248" />
  <path
     d="m 553,443 2,1 -6,5 h -2 v 2 l -7,5 h -2 l 2,-4 h 2 v -2 l 8,-6 z"
     fill="#fad1ae"
     id="path249" />
  <path
     d="m 171,233 h 2 l -1,5 -4,1 -11,5 -2,-1 z"
     fill="#f7c098"
     id="path250" />
  <path
     d="m 33,190 2,2 -10,13 -2,2 1,-6 3,-5 h 2 v -2 h 2 z"
     fill="#241d1e"
     id="path251" />
  <path
     d="m 54,172 2,1 -11,12 -5,3 -2,1 2,-4 4,-4 h 2 v -2 z"
     fill="#9f582a"
     id="path252" />
  <path
     d="m 311,160 4,1 5,9 1,7 h -2 z"
     fill="#be6e39"
     id="path253" />
  <path
     d="m 139,505 h 5 l 13,6 3,1 v 2 l -10,-3 -9,-4 z"
     fill="#f7c9a5"
     id="path254" />
  <path
     d="m 236,455 5,1 8,3 -1,2 h -7 l -1,2 -3,-2 v -2 l 3,-1 -4,-1 z"
     fill="#f9f2ec"
     id="path255" />
  <path
     d="m 624,233 h 1 l 2,19 v 7 l -2,-3 -1,-3 z"
     fill="#f7c9a5"
     id="path256" />
  <path
     d="m 416,509 3,3 3,-1 2,7 -5,1 -3,-6 z"
     fill="#f7efe5"
     id="path257" />
  <path
     d="m 422,425 v 3 l 3,1 v 5 h -2 v 4 h -2 l -1,-2 v -9 z"
     fill="#f1aa7f"
     id="path258" />
  <path
     d="m 613,277 4,1 -3,7 -3,4 -1,-10 z"
     fill="#f9f2ed"
     id="path259" />
  <path
     d="m 643,253 2,2 -10,3 -5,2 -2,-1 3,-3 5,-2 z"
     fill="#261d1c"
     id="path260" />
  <path
     d="m 578,537 5,1 1,3 -3,3 -4,-1 -1,-3 z"
     fill="#fafaf1"
     id="path261" />
  <path
     d="m 422,521 h 4 l 2,5 -1,8 -3,-4 z"
     fill="#f9f4ea"
     id="path262" />
  <path
     d="m 264,472 1,2 -3,6 -8,11 -2,1 v -3 l 3,-3 2,-5 4,-2 2,-6 z"
     fill="#f7c7a3"
     id="path263" />
  <path
     d="m 611,467 2,2 -1,2 4,2 v 2 h 2 l -1,3 h -3 l -2,-4 -3,-1 v -5 z"
     fill="#fafaf1"
     id="path265" />
  <path
     d="m 533,311 7,6 1,2 -1,2 h -2 v -2 l -5,-2 -2,-5 z"
     fill="#fbf3ed"
     id="path266" />
  <path
     d="m 278,282 h 10 l 2,2 v 7 h -1 l -1,-6 -5,-1 -1,2 -6,1 1,-2 -2,-2 z"
     fill="#f4dbc1"
     id="path267" />
  <path
     d="m 114,266 2,1 -7,5 h -2 v 3 l 2,1 h -6 l -3,-4 1,-2 3,2 z"
     fill="#f3af85"
     id="path268" />
  <path
     d="m 223,189 1,2 h -2 l -2,4 -4,5 -8,6 2,-4 6,-7 h 2 l 2,-4 z"
     fill="#ca763e"
     id="path269" />
  <path
     d="m 91,131 2,1 -5,5 -3,6 -2,2 h -3 l 2,-4 7,-9 z"
     fill="#a55c2d"
     id="path270" />
  <path
     d="m 656,137 3,1 2,8 v 10 h -1 v -9 l -3,-1 z"
     fill="#ac6130"
     id="path271" />
  <path
     d="m 320,173 2,1 4,11 v 3 l -3,-1 -3,-7 z"
     fill="#b06433"
     id="path276" />
  <path
     d="m 346,532 3,1 4,10 v 2 l -5,-2 -2,-6 h 2 z"
     fill="#aa6131"
     id="path277" />
  <path
     d="m 262,252 h 15 l -2,2 -9,2 -4,-1 z"
     fill="#f9f0e8"
     id="path278" />
  <path
     d="m 304,147 5,5 5,7 -1,2 -5,-4 -1,-3 -3,-2 z"
     fill="#ad6130"
     id="path280" />
  <path
     d="m 442,106 h 6 l -1,7 -5,-1 -1,-4 z"
     fill="#954c1b"
     id="path281" />
  <path
     d="m 527,572 1,2 -1,3 2,12 h -2 l -3,-8 1,-6 z"
     fill="#aa5f2e"
     id="path284" />
  <path
     d="m 370,305 4,3 -1,4 2,1 -1,2 -7,-5 1,-3 h 2 z"
     fill="#f8d3b1"
     id="path285" />
  <path
     d="m 360,297 1,2 4,2 2,5 -3,1 -5,-6 z"
     fill="#f8d4b2"
     id="path286" />
  <path
     d="m 121,262 2,1 -1,2 -4,2 -1,2 h -3 v 2 h -2 v 2 l -5,1 v -2 l 8,-5 3,-3 z"
     fill="#f9c8a2"
     id="path287" />
  <path
     d="m 246,480 h 2 l 1,2 v 6 l -6,-1 1,-5 z"
     fill="#fcfcfc"
     id="path289" />
  <path
     d="m 474,361 2,4 8,4 -4,2 -4,-1 -1,-3 h -2 z"
     fill="#f8c49e"
     id="path290" />
  <path
     d="m 282,331 h 5 v 3 l -5,1 -7,1 2,-2 -1,-2 z"
     fill="#fbfbfa"
     id="path291" />
  <path
     d="m 169,265 4,1 -6,5 v 1 h -5 v -3 z"
     fill="#f3e5d4"
     id="path293" />
  <path
     d="m 543,81 1,3 -8,7 -4,5 -2,-1 3,-5 8,-7 z"
     fill="#c16f39"
     id="path294" />
  <path
     d="m 486,665 1,4 -1,7 -1,1 -1,8 h -1 v -9 l 1,-10 z"
     fill="#a75d2c"
     id="path295" />
  <path
     d="m 429,439 h 2 l -1,4 h 2 l 1,4 -2,2 -4,-4 -1,-3 z"
     fill="#f1aa7f"
     id="path297" />
  <path
     d="m 398,259 8,1 7,4 v 1 l -7,-1 -8,-4 z"
     fill="#f8d4b3"
     id="path298" />
  <path
     d="m 404,232 h 2 v 9 l -2,2 h -3 l 2,-9 z"
     fill="#f7bb93"
     id="path299" />
  <path
     d="m 516,202 4,1 -3,2 -14,3 h -5 l 4,-2 z"
     fill="#f7c8a3"
     id="path300" />
  <path
     d="m 290,477 5,2 8,5 -1,2 -5,-2 -6,-4 z"
     fill="#b16432"
     id="path301" />
  <path
     d="m 413,441 2,1 2,4 h -2 v 2 l -3,1 -2,4 -1,-3 z"
     fill="#f7eee2"
     id="path303" />
  <path
     d="m 107,118 2,1 -2,3 h -3 l -2,4 -2,2 -5,1 v -2 z"
     fill="#a45b2b"
     id="path304" />
  <path
     d="m 532,562 1,3 -4,7 -5,5 1,-5 6,-9 z"
     fill="#ba6a36"
     id="path307" />
  <path
     d="m 219,312 1,2 -2,6 -5,1 -1,-3 z"
     fill="#fbfbfa"
     id="path308" />
  <path
     d="m 650,241 h 1 l -1,8 -3,6 -2,-4 z"
     fill="#241e1f"
     id="path309" />
  <path
     d="m 118,111 2,1 -5,5 -6,4 -2,-1 5,-5 z"
     fill="#ae6230"
     id="path310" />
  <path
     d="m 258,409 4,1 v 3 l 2,1 -7,3 -1,-3 h 2 l -1,-3 z"
     fill="#f8f2e8"
     id="path313" />
  <path
     d="m 433,399 8,2 2,8 -7,-6 z"
     fill="#facaa4"
     id="path314" />
  <path
     d="m 490,629 1,4 -2,6 -1,8 h -1 v -9 l 1,-8 z"
     fill="#a65c2c"
     id="path317" />
  <path
     d="m 540,550 1,2 -7,11 -2,-1 2,-5 4,-2 z"
     fill="#a85e2d"
     id="path318" />
  <path
     d="m 476,539 2,3 3,6 -1,2 -5,-5 -1,-4 z"
     fill="#b06432"
     id="path319" />
  <path
     d="m 555,537 h 2 v 5 l -1,1 -2,4 -2,-3 v -6 z"
     fill="#f8f5ec"
     id="path320" />
  <path
     d="m 99,324 3,1 v 12 l -2,-3 -2,-9 z"
     fill="#f8c29b"
     id="path323" />
  <path
     d="m 42,185 v 3 l -7,8 -2,-1 3,-5 z"
     fill="#bd6d37"
     id="path324" />
  <path
     d="m 45,177 m -1,1 m -1,1 m -1,1 2,2 -7,8 -2,-1 1,-4 z"
     fill="#241d1e"
     id="path325" />
  <path
     d="m 527,589 3,1 v 14 l -2,-3 z"
     fill="#bc6c37"
     id="path327" />
  <path
     d="m 99,469 4,1 3,5 v 2 h 2 l -1,3 -5,-5 -3,-4 z"
     fill="#f7c9a5"
     id="path328" />
  <path
     d="m 421,390 4,1 -1,13 -2,-3 -1,-3 z"
     fill="#442a1d"
     id="path329" />
  <path
     d="m 112,361 4,1 v 4 h 2 l 2,4 -1,2 h -2 l -5,-9 z"
     fill="#f8c19a"
     id="path330" />
  <path
     d="m 173,331 h 14 l 3,2 h -5 l -3,1 -9,-2 z"
     fill="#fbf0de"
     id="path331" />
  <path
     d="m 552,191 5,1 -2,4 -4,1 -1,-4 z"
     fill="#fcfcfc"
     id="path332" />
  <path
     d="m 72,262 2,1 -5,5 -6,7 v -3 l 5,-7 z"
     fill="#f6ba91"
     id="path334" />
  <path
     d="m 309,263 4,5 4,4 -1,2 -5,-2 -3,-8 z"
     fill="#30211c"
     id="path335" />
  <path
     d="m 496,474 4,1 h -2 v 2 l -3,1 h -7 l 3,-3 z"
     fill="#f9d8b7"
     id="path336" />
  <path
     d="m 460,473 h 4 l 1,3 5,2 v 1 h -6 l -4,-3 z"
     fill="#facfab"
     id="path337" />
  <path
     d="m 110,449 5,2 5,5 -1,2 -6,-4 z"
     fill="#f9d5b3"
     id="path338" />
  <path
     d="m 594,394 3,1 v 6 l -3,1 -3,-5 h 2 z"
     fill="#f0e1d2"
     id="path339" />
  <path
     d="m 544,361 h 3 v 6 l -8,2 -4,-1 9,-3 v -3 z"
     fill="#f4bb94"
     id="path340" />
  <path
     d="m 235,279 h 5 v 7 l -2,1 -2,-4 -2,-2 z"
     fill="#fbf9f7"
     id="path341" />
  <path
     d="m 0,253 3,2 -1,16 H 1 l -1,-9 z"
     fill="#8c4b20"
     id="path342" />
  <path
     d="m 157,258 2,1 -9,7 -1,-3 5,-4 z"
     fill="#f0dfcd"
     id="path343" />
  <path
     d="m 588,157 2,1 -9,10 h -3 l 4,-5 5,-5 z"
     fill="#ca763e"
     id="path344" />
  <path
     d="m 261,114 5,1 6,4 -1,2 -6,-2 z"
     fill="#aa5f2d"
     id="path345" />
  <path
     d="m 641,102 3,1 2,3 v 5 h -2 l -2,-6 h -2 z"
     fill="#bc6e3b"
     id="path346" />
  <path
     d="m 416,433 2,4 4,5 -1,2 -7,-5 z"
     fill="#faceaa"
     id="path347" />
  <path
     d="m 423,257 h 2 l -2,4 -4,6 -3,-1 z"
     fill="#f7d0ae"
     id="path348" />
  <path
     d="m 656,205 h 1 v 7 l -2,5 h -2 v -5 z"
     fill="#bd6d38"
     id="path349" />
  <path
     d="m 304,146 h 4 v 2 h 2 l 2,7 h -2 z"
     fill="#241e1f"
     id="path350" />
  <path
     style="fill:#ef6b17;fill-opacity:1;stroke-width:0.0984799"
     d="m 198.77741,697.99264 v -0.93556 h 53.08005 53.08004 l -0.46474,0.93556 -0.46474,0.93556 h -52.6153 -52.61531 z"
     id="path357" />
  <path
     style="fill:#ef6b17;fill-opacity:1;stroke-width:0.0984799"
     d="m 362.41161,625.3883 c -0.10149,-7.37848 -0.3763,-40.04555 -0.3391,-40.30904 0.0195,-0.13793 0.21783,0.44082 0.4662,1.36022 l 0.4323,1.6003 h 0.81421 0.81422 l 0.17425,0.96018 c 0.16652,0.91761 0.16683,1.78976 0.007,19.67137 -0.0919,10.29116 -0.19295,19.29838 -0.22447,20.01605 l -0.0573,1.30486 h -1.01203 -1.01203 z"
     id="path360" />
  <path
     style="fill:#ef6b17;fill-opacity:1;stroke-width:0.0984799"
     d="m 364.66767,626.07766 c 0.0723,-4.79183 0.34389,-31.88787 0.34389,-34.31543 v -1.75285 h 0.4924 0.4924 v 19.99143 19.99143 h -0.6939 -0.69389 z"
     id="path361" />
</svg>
