<?xml version="1.0" encoding="UTF-8" standalone="no"?>
<svg
   version="1.1"
   viewBox="0 0 2048 1532.0001"
   width="930"
   height="696"
   id="svg77"
   sodipodi:docname="mulher_ver_cfundo.svg"
   inkscape:export-filename="mulher_verde.png"
   inkscape:export-xdpi="96"
   inkscape:export-ydpi="96"
   xmlns:inkscape="http://www.inkscape.org/namespaces/inkscape"
   xmlns:sodipodi="http://sodipodi.sourceforge.net/DTD/sodipodi-0.dtd"
   xmlns="http://www.w3.org/2000/svg"
   xmlns:svg="http://www.w3.org/2000/svg">
  <defs
     id="defs77" />
  <sodipodi:namedview
     id="namedview77"
     pagecolor="#505050"
     bordercolor="#ffffff"
     borderopacity="1"
     inkscape:showpageshadow="0"
     inkscape:pageopacity="0"
     inkscape:pagecheckerboard="1"
     inkscape:deskcolor="#505050">
    <inkscape:page
       x="0"
       y="0"
       width="2048"
       height="1532.0001"
       id="page2"
       margin="0"
       bleed="0" />
  </sodipodi:namedview>
  <path
     d="m 1339,250.65161 16,1 13,3 12,5 10,7 6,7 4,8 7,25 9,10 7,12 2,8 v 14 l -2,15 1,7 8,14 1,4 v 8 l -4,12 -6,11 -9,11 -8,6 -11,5 -10,2 v 48 l -3,18 -11,31 -7,19 -3,13 v 28 l 4,24 4,15 8,21 16,28 8,17 4,16 1,11 v 9 l -2,16 -5,16 -10,25 -5,18 -2,12 -2,26 -7,144.99999 v 22 l 10,13 29,38 14,19 3,5 -1,5 -12,12 1,5 8,11 9,7 5,5 15,8 7,7 4,6 1,5 -8,16 -11,18 -13,19 -7,9 -8,7 -16,6 -18,4 -13,1 -6,-3 -3,-5 v -19 l 3,-5 14,-10 12,-7 3,-3 2,-7 1,-9 v -9 l -2,-8 -1,-7 -6,-10 -1,-3 -5,3 h -2 v 2 h -2 l -12,-16 -2,34 -3,3 h -3 l 1,42 v 38 l -3,3 -18,3 -24,2 h -39 l -21,-3 -5,-3 -1,-3 v -10 l 4,-11 6,-7 10,-6 14,-6 30,-7 6,-1 2,-30 -19,-4 -6,-3 -1,-23 v -102 l -15,-20 -16,-20.99999 -12,-16 -6,-9 -4,-12 -1,-5 v -11 l 7,-56 7,-50 7,-43 5,-26 3,-30 2,-34 v -31 l -4,-9 -5,-25 -1,-7 -1,-44 h -2 l -12,12 -8,7 -11,8 -11,5 -21,5 -37,6 -34,5 7,3 3,4 v 33 l -4,5 -82,1 H 918 v 7 l -3,5 h -44 l 1,519.99999 100,1 v 40 l -1,1 H 768 l -1,-1 v -39 l 1,-1 99,-1 1,-519.99999 h -44 l -3,-2 v -10 h -63 l -148,-1 -3,-3 -1,-3 v -32 l 4,-5 166,-1 5,-12 12,-32 8,-21 4,-2 16,35 14,32 11,1 -8,-20 -15,-34 -19,-44 -13,-30 -8,-19 v -3 l 3,1 11,24 11,26 18,41 24,56 1,1 h 126 l 5,-10 9,-10 5,-5 2,-7 4,-2 -7,-2 -2,-2 1,-5 2,-2 h 29 l 20,3 26,9 14,5 h 8 l 17,-7 55,-16 35,-10 12,-6 7,-7 9,-11 11,-13 13,-17 4,-5 -1,-4 -4,-9 -1,-4 v -9 l 4,-13 7,-9 15,-10 9,-7 7,-8 11,-14 7,-11 1,-6 v -22 l -1,-10 h -4 l -11,3 -9,-2 -3,-3 -2,-20 -1,-3 -8,-5 2,-9 3,-13 v -29 l -1,-17 -4,-5 -1,-2 v -11 l 4,-6 6,-4 10,-2 h 17 l 21,-4 z"
     fill="#21c8bc"
     id="path2" />
  <path
     d="m 288,338.65161 h 20 l 14,2 16,5 17,9 16,13 11,10 13,10 14,7 11,3 18,2 h 23 v 374 l -1,1 H 192 v -11 l 8,-89 8,-3 -5,-13 v -2 h -11 l -2,-5 -10,-1 -2,-2 11,-21 -3,1 -11,20 -2,2 h -32 l -1,5 -1,1 -11,1 -7,14 1,1 8,1 5,37 8,61 -1,3 H 36 l -1,-1 v -278 l 5,-3 12,-5 11,-6 14,-10 11,-9 12,-11 20,-18 14,-12 15,-13 14,-11 20,-15 15,-10 17,-10 17,-9 15,-6 16,-5 16,-3 z"
     fill="#fcfdfd"
     id="path3" />
  <path
     d="m 32,138.65161 h 432 v 636 h 32 v 43 H 0 v -43 l 31,-1 z m 256,200 -20,3 -15,4 -16,6 -19,9 -17,10 -15,10 -19,14 -16,13 -11,9 -15,13 -12,11 -8,7 -12,11 -13,11 -17,12 -17,9 -10,4 -1,1 v 278 l 1,1 h 106 l 1,-3 -12,-93 -1,-5 -8,-1 v -4 l 6,-11 11,-1 2,-3 v -3 h 32 l 4,-5 9,-17 3,-1 -11,21 2,2 10,1 2,5 h 11 l 5,15 -8,3 -8,89 v 11 h 268 l 1,-2 v -373 h -23 l -18,-2 -13,-4 -12,-6 -10,-8 -14,-12 -12,-10 -11,-7 -15,-7 -16,-4 -9,-1 z"
     fill="#00053f"
     id="path4" />
  <path
     d="m 1665,812.65161 h 9 l 11,2 8,4 9,8 6,12 2,9 v 10 l 10,-3 h 8 l 9,2 9,6 6,8 3,9 v 18 l -4,19 -1,9 3,-1 h 13 l -2,-9 -1,-19 2,-16 4,-12 6,-9 9,-8 12,-5 4,-1 h 17 l 13,4 11,7 6,7 6,12 2,10 v 17 l -4,15 -8,16 -9,19 -3,11 -1,8 -1,26 -3,11.99999 -5,10 -18,27 -9,16 -5,14 -2,12 h 17 l -2,14 -25,132 -2,5 h -129 l -2,-5 -23,-128 -2,-12 v -5 l 10,-1 h 10 l -6,-10 -8,-6 -18,-10 -9,-7 -6,-7 -3,-8 -2,-28 -3,-9 -9,-10.99999 -10,-11 -9,-14 -4,-10 -1,-5 v -17 l 5,-15 7,-11 8,-7 10,-4 h 11 l 9,4 7,5 v -24 l 2,-16 5,-17 6,-11 7,-9 10,-8 14,-7 z"
     fill="#00053f"
     id="path5" />
  <path
     d="m 747,101.65161 h 24 l 17,4 14,6 11,7 14,12 9,10 10,15 8,15 7,19 5,23 2,17 v 48 l -3,29 -6,36 -7,31 -14,54 -7,36 -3,3 -4,-3 -8,-21 -8,-16 -8,-14 -10,-13 -14,-15 -24,-24 -7,-8 -12,-13 -9,-11 -11,-13 -14,-19 -10,-15 -9,-16 -7,-16 -5,-19 -2,-15 v -23 l 3,-18 5,-16 8,-16 8,-11 11,-11 14,-9 15,-6 z"
     fill="#fafdfd"
     id="path6" />
  <path
     d="m 35,142.65161 h 425 l 1,5 -1,130 -20,4 -12,-11 -18,-12 -14,-8 -20,-8 -19,-6 -20,-4 -16,-2 h -41 l -28,3 -25,5 -25,7 -19,8 -5,-1 -15,-16 -7,-8 -8,-8 -7,-8 -7,-7 -7,-8 -4,-2 6,8 12,12 7,8 15,16 13,14 -1,4 -21,12 -16,-7 -10,-2 h -27 l -16,3 -20,7 -17,9 -10,7 -2,1 -1,-3 z"
     fill="#fafdfc"
     id="path7" />
  <path
     d="m 783,490.65161 3,1 11,24 11,26 18,41 24,56 1,1 h 126 l 5,-10 9,-10 5,-5 2,-7 4,-2 -7,-2 -2,-2 1,-5 2,-2 h 29 l 20,3 26,9 14,5 h 8 l 7,-3 h 3 l -1,3 -6,2 v 2 h 6 v 3 l -5,2 -1,4 h 7 v 3 l -6,1 1,5 6,2 -1,3 -8,-2 -2,-2 v -4 l -16,3 h -18 l 1,6 70,1 5,5 v 33 l -4,5 -82,1 H 918 v 7 l -3,5 h -44 l 1,519.99999 100,1 v 40 l -1,1 H 768 l -1,-1 v -39 l 1,-1 99,-1 1,-519.99999 h -44 l -3,-2 v -10 h -63 l -148,-1 -3,-3 -1,-3 v -32 l 4,-5 166,-1 5,-12 12,-32 8,-21 4,-2 16,35 14,32 11,1 -8,-20 -15,-34 -19,-44 -13,-30 -8,-19 z"
     fill="#00053f"
     id="path8" />
  <path
     d="m 990,242.65161 13,1 11,4 11,7 8,8 7,11 6,12 4,13 2,9 1,10 v 15 l -3,19 -7,20 -8,15 -7,9 -10,11 -13,10 -19,10 -26,8 -26,6 -33,7 -14,5 -16,8 -18,11 h -2 v -8 l 8,-44 8,-33 8,-26 7,-19 12,-25 9,-15 12,-16 11,-12 7,-7 15,-11 14,-7 12,-4 z"
     fill="#f9fcfc"
     id="path9" />
  <path
     d="m 103,262.65161 h 24 l 13,3 16,8 12,11 9,10 12,17 10,13 10,10 16,12 6,3 v 2 l -23,12 -19,12 -18,13 -13,10 -17,14 -14,12 -11,10 -8,7 -10,9 -11,10 -14,11 -15,10 -16,8 -6,2 -1,-1 v -198 l 5,-5 20,-12 17,-7 19,-5 z"
     fill="#fafdfc"
     id="path10" />
  <path
     d="m 1324,670.65161 3,3 8,24 6,24 4,27 1,14 1,28 v 84 l -2,101 -3,93.99999 -3,71 -1,16 v 13 h 9 l 11,-2 3,-2 12,-256.99999 4,-73 3,-19 6,-21 10,-24 4,-14 1,-6 v -27 l -4,-15 -7,-16 -8,-15 -3,-5 v -2 h 3 l 9,15 10,21 4,16 1,11 v 9 l -2,16 -5,16 -10,25 -5,18 -2,12 -2,26 -7,144.99999 v 22 l 10,13 29,38 14,19 3,5 -1,5 -12,12 1,5 8,11 9,7 5,5 15,8 7,7 4,6 1,5 -8,16 -11,18 -13,19 -7,9 -8,7 -16,6 -18,4 -13,1 -6,-3 -3,-5 v -19 l 3,-5 14,-10 12,-7 3,-3 2,-7 1,-9 v -9 l -2,-8 -1,-7 -6,-10 -1,-3 -5,3 h -2 v 2 h -2 l -12,-16 -2,34 -3,3 h -3 l 1,42 v 38 l -3,3 -18,3 -24,2 h -39 l -21,-3 -5,-3 -1,-3 v -10 l 4,-11 6,-7 10,-6 14,-6 30,-7 6,-1 2,-30 -19,-4 -6,-3 -1,-23 v -102 l -15,-20 -16,-20.99999 -12,-16 -6,-9 -4,-12 -1,-5 v -11 l 7,-56 7,-50 7,-43 5,-26 3,-30 3,-54 1,-10 3,1 v 13 l -2,42 -3,33 -6,34 -8,50 -10,74 -2,16 v 21 l 4,12 10,14 16,20.99999 18,24 v -30 l -5,-107.99999 -9,-177 v -39 h 3 l 2,53 11,219 3,71.99999 1,141 22,5 11,2 4,-83 3,-87.99999 2,-81 1,-65 v -48 l -1,-41 -3,-29 -6,-29 -9,-29 -1,-5 z"
     fill="#00053f"
     id="path11" />
  <path
     d="m 1339,250.65161 16,1 13,3 12,5 10,7 6,7 4,8 7,25 9,10 7,12 2,8 v 14 l -2,15 1,7 8,14 1,4 v 8 l -4,12 -6,11 -9,11 -8,6 -11,5 -5,1 h -14 l -17,-5 h -24 l -8,-3 -6,-4 -4,-5 -3,-6 -4,1 1,-7 v -22 l -1,-10 h -4 l -11,3 -9,-2 -3,-3 -2,-20 -1,-3 -8,-5 2,-9 3,-13 v -29 l -1,-17 -4,-5 -1,-2 v -11 l 4,-6 6,-4 10,-2 h 17 l 21,-4 z"
     fill="#00053f"
     id="path12" />
  <path
     d="m 1318,672.65161 h 5 l 6,16 6,22 5,24 3,29 1,41 v 48 l -2,112 -3,94.99999 -4,91 -1,17 -1,2 -11,-1 -22,-5 -1,-1 -1,-141 -5,-112.99999 -9,-178 v -52 l 25,-4 z"
     fill="#f8fcfc"
     id="path13" />
  <path
     d="m 285,232.65161 h 32 l 19,2 24,5 23,8 19,9 16,10 13,10 6,5 -1,2 -12,6 -9,7 -8,9 -8,12 -10,14 -9,10 -10,9 -10,5 -11,-7 -15,-7 -16,-4 -7,-1 h -27 l -22,4 -16,5 -10,4 -5,-2 -14,-10 -10,-8 -10,-11 -13,-18 -10,-13 -8,-9 -8,-6 1,-3 15,-9 19,-9 27,-9 22,-5 29,-4 z"
     fill="#fafdfc"
     id="path14" />
  <path
     d="m 1669,815.65161 15,2 11,6 7,9 4,11 1,7 v 11 l -4,22 -7,25 -4,13 -1,5 v 19 l 4,13 9,17 11,18 5,10.99999 2,9 v 14 l -4,16 -8,16 -8,12 -9,14 -2,3 h -20 v -11 l 6,-40 v -20 l -6,-15 1,-4.99999 4,-11 2,-16 h -3 v 10 l -4,14 -3,3 -11,-22 -5,-15 -2,-10 v -25 l 4,-18 6,-16 -3,1 -6,16 -3,10 -4,-4 -6,-13 -5,-15 -1,2 3,12 8,17 4,5 v 19 l 2,16 5,17 18,35.99999 3,9 v 15 l -6,39 -2,15 h -11 l -1,-1 -2,-18 -4,-9 -10,-16 -7,-10 -5,-11 -3,-11 -1,-14.99999 -1,-34 -3,-18 -5,-24 -2,-14 v -31 l 3,-16 7,-16 4,-6 9,-10 11,-7 11,-4 z"
     fill="#f6fcfb"
     id="path15" />
  <path
     d="m 1639,29.651613 h 23 l 16,4 16,8 10,8 8,8 9,14 6,15 2,10 v 22.999997 l -4,16 -8,16 -9,11 -10,9 -13,8 -18,6 -6,1 h -21 l -16,-4 -16,-8 -8,-6 -8,-7 -9,-12 -7,-15 -4,-16 V 97.651613 l 4,-16 8,-16 8,-11 11,-10 13,-8 14,-5 z"
     fill="#f8fcfc"
     id="path16" />
  <path
     d="m 931,76.651613 h 18 l 16,4 15,8 12,11 6,7.999997 6,12 3,11 1,7 v 14 l -3,17 -4,10 -10,13 -17,17 -11,9 -15,12 -16,12 -10,8 -10,9 -10,10 -13,18 -10,16 -3,-1 1,-28 v -35 l -5,-44 -1,-13 v -43 l 3,-16 5,-12 9,-11.999997 7,-7 12,-8 14,-5 z"
     fill="#f7fcfb"
     id="path17" />
  <path
     d="m 1336,668.65161 h 19 l 20,3 5,2 10,18 7,15 4,13 1,5 v 27 l -4,17 -8,20 -6,16 -5,22 -2,23 -7,142 -8,173.99999 -4,3 -11,2 h -9 l -1,-1 v -13 l 3,-59 3,-87 2,-78.99999 1,-57 v -84 l -1,-28 -2,-22 -4,-23 -7,-27 -6,-17 v -3 z"
     fill="#f6fcfb"
     id="path18" />
  <path
     d="m 1802,848.65161 h 14 l 13,4 10,7 6,7 4,8 2,6 1,7 v 11 l -3,14 -7,16 -11,23 -4,15 -1,27 -3,13.99999 -6,12 -20,30 -8,16 -3,9 -3,14 h -11 l 4,-22 8,-20 9,-23 5,-20 2,-17.99999 v -17 l 3,-5 2,-5 1,-9 v -7 l 7,-6 h 2 l 2,-4 6,-9 7,-15 2,-9 -2,-1 -3,11 -8,16 -7,9 -4,4 h -3 l -2,-15 1,-11 5,-12 3,-6 -5,5 -5,12 -2,5 -3,-3 -5,-16 -2,-20 -2,-1 1,16 3,14 5,12 3,3 3,21 v 15 l -2,6 h -2 l -5,-16 -6,-9 -5,-5 -8,-5 -6,-4 -2,-12 v -26 l 3,-12 6,-11 8,-8 10,-5 z"
     fill="#f1fbfa"
     id="path19" />
  <path
     d="m 1278,677.65161 h 1 l 1,32 1,7 9,177 5,107.99999 v 31 l -5,-5 -10,-13 -16,-20.99999 -13,-18 -4,-8 -2,-7 v -21 l 10,-76 9,-59 6,-32 3,-27 2,-32 2,-35 z"
     fill="#f3fbfb"
     id="path20" />
  <path
     d="m 1639,29.651613 h 23 l 16,4 16,8 10,8 8,8 9,14 6,15 2,10 v 22.999997 l -4,16 -8,16 -9,11 -10,9 -13,8 -18,6 -6,1 h -21 l -16,-4 -16,-8 -8,-6 -8,-7 -9,-12 -7,-15 -4,-16 V 97.651613 l 4,-16 8,-16 8,-11 11,-10 13,-8 14,-5 z m 3,17 -15,4 -11,6 -10,8 -9,12 -5,11 -3,12 v 16.999997 l 4,15 6,11 9,10 9,8 13,6 12,3 h 17 l 12,-3 16,-8 11,-10 8,-12 5,-14 1,-5 V 98.651613 l -4,-14 -5,-10 -9,-11 -10,-8 -13,-6 -12,-3 z"
     fill="#00053f"
     id="path21" />
  <path
     d="m 1582,901.65161 h 9 l 12,6 7,8 3,13 6,28 1,8 1,36.99999 1,13 -2,-1 -4,-13 -4,-4.99999 -2,-1 2,-9 2,-13 v -10 h -2 l -1,16 -3,12 h -3 l -8,-9 -4,-13 -1,-6 h -2 l 1,10 -6,-2 -9,-8 -3,-5 -2,1 6,8 9,7 6,3 6,10 5,5 11,9.99999 5,15 7,11 7,13 14,21 4,10 1,6 v 11 h -10 l -5,-10 -4,-5 -25,-14 -10,-9 -4,-5 -2,-6 -2,-29 -3,-8 -7,-8.99999 -10,-11 -9,-13 -5,-11 -2,-8 v -13 l 4,-13 4,-8 9,-10 7,-4 z"
     fill="#f2fbfa"
     id="path22" />
  <path
     d="m 458,280.65161 h 2 l 1,49 v 35 l -1,31 -2,1 h -31 l -14,-3 -12,-5 -14,-10 -12,-11 -11,-9 v -2 l 11,-7 10,-9 11,-14 13,-19 11,-12 10,-7 13,-5 z"
     fill="#f9fcfc"
     id="path23" />
  <path
     d="m 1755,927.65161 h 10 l 9,3 9,6 6,7 5,11 3,13 v 27 l -4,19.99999 -7,21 -12,29 -5,24 h -12 l 1,-9 8,-29 4,-15 1,-7 v -23 l -1,-8.99999 4,-8 3,-10 2,-16 h -2 l -3,18 -4,12 -3,-3 -5,-12 -1,-4 h -3 l 8,20 3,13.99999 v 16 h -3 l -9,-10 -9,-13.99999 -2,-1 6,11.99999 7,9 9,8 -1,10 -6,22 -6,23 -2,6 h -6 l 4,-18 2,-10 v -14 l -4,-13 -12,-31 -5,-15.99999 -3,-16 v -15 l 4,-13 9,-10 8,-4 z"
     fill="#f0faf9"
     id="path24" />
  <path
     d="m 1721,857.65161 11,1 9,4 7,8 4,11 v 14 l -4,18 -2,14 -9,6 -6,8 -4,13 v 18 l 3,15 5,16.99999 11,27 -1,9 -13,40 -3,8 h -9 l -2,-11 v -28 l 5,-15 1,-5 v -17 l -3,-12 -5,-10.99999 -8,-32 v -16 l 5,-5 8,-7 8,-13 4,-13 -2,1 -7,16 -6,8 -5,6 h -3 l 3,-12 3,-9 h -3 l -3,11 -4,15 -1,6 v 9 l 6,23 -1,3 -11,-19 -5,-13 -1,-5 v -14 l 4,-17 6,-19 5,-23 2,-10 5,-2 z"
     fill="#effaf9"
     id="path25" />
  <path
     d="m 133,673.65161 h 64 l -1,18 -7,77 -2,6 h -40 l -2,-6 -12,-93 z"
     fill="#f7fcfc"
     id="path26" />
  <path
     d="m 773,189.65161 h 15 l 8,3 7,6 5,9 2,11 -1,14 -4,13 -8,15 -11,14 -7,6 -5,-1 -5,-5 -9,-16 -6,-15 -4,-14 v -16 l 5,-12 7,-7 7,-4 z"
     fill="#f0fafa"
     id="path27" />
  <path
     d="m 1371,1028.6516 h 2 l 12,16 10,13 16,21 13,18 1,5 -33,33 -8,7 -4,3 -9,-11 -4,-5 v -19 z"
     fill="#f5fbfb"
     id="path28" />
  <path
     d="m 935,112.65161 12,1 10,4 8,7 6,10 2,9 -1,11 -4,10 -6,7 -10,6 -8,2 h -12 l -11,-4 -6,-4 -7,-8 -4,-9 v -16 l 4,-9 6,-8 9,-6 z"
     fill="#00053f"
     id="path29" />
  <path
     d="m 1647,423.65161 h 12 l 10,4 8,7 5,8 3,9 v 7 l -4,11 -7,9 -10,6 -7,2 h -8 l -11,-4 -8,-6 -6,-10 -2,-6 v -12 l 4,-10 7,-8 8,-5 z"
     fill="#21c8bc"
     id="path30" />
  <path
     d="m 1281,287.65161 8,3 12,14 8,8 12,7 5,6 -1,9 -3,9 -1,19 v 8 l -2,4 -19,8 h -11 l -3,-3 -2,-20 -1,-4 -7,-2 1,-7 4,-20 v -13 l -1,-25 z"
     fill="#f4fbfb"
     id="path31" />
  <path
     d="m 119,1148.6516 6,1 27,14 37,19 v 3 l -14,14 -8,7 -8,8 -8,7 -15,14 h -4 l -11,-68 -2,-13 z"
     fill="#21c8bc"
     id="path32" />
  <path
     d="m 747,101.65161 h 24 l 17,4 14,6 11,7 14,12 9,10 10,15 8,15 7,19 5,23 2,17 v 48 l -3,29 -6,36 -7,31 -14,54 -7,36 -3,3 -4,-3 -8,-21 -8,-16 -8,-14 -10,-13 -14,-15 -24,-24 -7,-8 -12,-13 -9,-11 -11,-13 -14,-19 -10,-15 -9,-16 -7,-16 -5,-19 -2,-15 v -23 l 3,-18 5,-16 8,-16 8,-11 11,-11 14,-9 15,-6 z m 2,3 -15,3 -16,6 -10,6 -11,9 -9,11 -7,11 -6,15 -4,16 -2,16 v 15 l 3,22 6,20 12,23 12,18 12,16 9,11 12,14 18,20 15,16 22,22 11,14 9,15 8,16 7,17 1,4 h 2 l 7,-35 12,-46 7,-29 6,-32 4,-32 1,-13 v -41 l -3,-24 -4,-17 -6,-17 -8,-16 -7,-11 -8,-10 -13,-13 -15,-10 -14,-6 -11,-3 -7,-1 z"
     fill="#00053f"
     id="path33" />
  <path
     d="m 1366,1132.6516 5,5 8,10 v 2 h 2 v -2 l 4,-3 h 3 l 7,11 2,5 1,7 1,5 v 9 l -2,13 -3,5 -5,4 -14,8 -9,7 -2,4 -1,17 h -1 l -1,10 h -1 l -1,-37 v -42 l 5,-3 z"
     fill="#f0faf9"
     id="path34" />
  <path
     d="m 990,242.65161 13,1 11,4 11,7 8,8 7,11 6,12 4,13 2,9 1,10 v 15 l -3,19 -7,20 -8,15 -7,9 -10,11 -13,10 -19,10 -26,8 -26,6 -33,7 -14,5 -16,8 -18,11 h -2 v -8 l 8,-44 8,-33 8,-26 7,-19 12,-25 9,-15 12,-16 11,-12 7,-7 15,-11 14,-7 12,-4 z m -9,4 -15,4 -10,4 -11,7 -10,8 -10,9 -9,11 -10,13 -12,21 -8,17 -9,25 -7,23 -9,38 -6,33 v 7 l 11,-7 15,-8 18,-7 34,-7 30,-7 24,-8 15,-8 12,-9 12,-12 9,-14 7,-14 6,-20 2,-16 v -10 l -2,-16 -5,-17 -7,-14 -10,-13 -11,-8 -10,-4 -4,-1 z"
     fill="#00053f"
     id="path35" />
  <path
     d="m 931,76.651613 h 18 l 16,4 15,8 12,11 6,7.999997 6,12 3,11 1,7 v 14 l -3,17 -4,10 -10,13 -17,17 -11,9 -15,12 -16,12 -10,8 -10,9 -10,10 -13,18 -10,16 -3,-1 1,-28 v -35 l -5,-44 -1,-13 v -43 l 3,-16 5,-12 9,-11.999997 7,-7 12,-8 14,-5 z m 2,3 -15,3 -16,8 -8,7 -7,6.999997 -8,14 -4,16 -1,8 v 37 l 4,39 2,18 v 57 l 4,-5 8,-12 8,-10 9,-10 11,-10 20,-15 14,-11 11,-9 14,-12 9,-9 9,-12 5,-12 3,-19 -1,-16 -5,-16 -7,-11 -7,-7.999997 -13,-9 -11,-5 -15,-3 z"
     fill="#00053f"
     id="path36" />
  <path
     d="m 998,597.65161 h 21 l 19,2 15,4 27,10 12,2 1,1 v 9 l -7,3 -11,2 h -15 l -11,-3 h -12 l -20,2 v -4 l 11,-3 10,-2 v -1 h -10 l -14,2 h -8 v -2 l 13,-4 15,-2 -1,-2 h -13 l -18,1 -1,-3 13,-3 18,-2 -1,-2 -30,-1 -5,-1 v -2 z"
     fill="#e1f7f5"
     id="path37" />
  <path
     d="m 432,948.65161 h 10 l 24,3 21,5 12,6 8,7 8,14 5,15 2,10.99999 1,11 v 17 l -3,1 -2,-27 -3,-15.99999 -5,-13 -6,-10 -9,-8 -13,-5 -24,-5 -7,-1 h -27 l -16,4 -14,7 -10,9 -8,10 -8,16 -4,14.99999 v 20 l 4,13 5,10 9,11 10,8 11,5 4,1 h 8 l 10,-4 9,-6 8,-8 10,-15 5,-13 1,-4 v -7 l -3,-6 -7,-6 -10,-3 h -7 l -7,3 -3,1 -2,4 -4,13 h -3 l 1,-9 4,-8 7,-6 6,-2 h 10 l 9,3 8,6 4,6 1,3 v 11 l -5,13 -7,12 -11,13 -11,8 -9,4 -4,1 h -8 l -12,-4 -11,-7 -11,-11 -7,-11 -5,-13 -2,-11 v -11 l 3,-15 7,-15.99999 7,-11 10,-11 10,-7 13,-6 12,-3 z"
     fill="#00053f"
     id="path38" />
  <path
     d="m 803,578.65161 2,1 16,36 10,23 v 1 h -50 l 1,-6 18,-47 z"
     fill="#f0faf9"
     id="path39" />
  <path
     d="m 1253,1237.6516 11,3 9,1 h 52 l 26,-4 h 6 v 12 l -6,2 -27,3 -16,1 h -27 l -20,-2 -7,-2 -1,-1 z"
     fill="#e4f7f6"
     id="path40" />
  <path
     d="m 1456,1159.6516 5,5 1,6 -6,12 -15,24 -11,16 -8,10 -6,4 -18,6 -14,3 -11,1 -5,-3 -2,-4 1,-1 27,-4 12,-4 11,-10 9,-11 14,-19 10,-16 4,-9 z"
     fill="#e0f6f5"
     id="path41" />
  <path
     d="m 1339,499.65161 h 2 l -1,6 -12,18 -14,19 -14,17 -11,13 -12,12 -13,9 h -2 v -12 l 10,-10 8,-7 12,-12 7,-8 13,-13 7,-8 11,-13 z"
     fill="#00053f"
     id="path42" />
  <path
     d="m 1325,1172.6516 h 30 l 1,3 -1,28 h -21 l -10,-1 -1,-1 1,-23 z"
     fill="#f2fbfa"
     id="path43" />
  <path
     d="m 1086,814.65161 8,2 6,5 3,7 -1,9 -6,7 -4,2 h -11 l -6,-4 -4,-6 -1,-7 3,-8 6,-5 z"
     fill="#f0faf9"
     id="path44" />
  <path
     d="m 130,659.65161 h 71 l 3,10 h -79 l 2,-6 z"
     fill="#d2f3f0"
     id="path45" />
  <path
     d="m 773,189.65161 h 15 l 8,3 7,6 5,9 2,11 -1,14 -4,13 -8,15 -11,14 -7,6 -5,-1 -5,-5 -9,-16 -6,-15 -4,-14 v -16 l 5,-12 7,-7 7,-4 z m 1,3 -9,4 -5,4 -6,10 -1,4 v 13 l 4,15 7,17 7,12 5,6 5,-3 7,-7 10,-15 6,-14 2,-9 v -16 l -4,-11 -4,-5 -7,-4 -4,-1 z"
     fill="#00053f"
     id="path46" />
  <path
     d="m 1411,1119.6516 5,5 6,9 -1,4 -6,9 -8,8 -7,4 -5,-8 -6,-9 6,-7 13,-12 z"
     fill="#eefaf9"
     id="path47" />
  <path
     d="m 933,133.65161 h 10 l 6,4 3,5 v 8 l -4,6 -7,3 -9,-1 -5,-3 -3,-6 v -7 l 4,-6 z"
     fill="#e9f9f7"
     id="path48" />
  <path
     d="m 775,209.65161 h 8 l 7,6 v 10 l -4,5 -4,2 h -7 l -5,-3 -3,-6 1,-8 4,-5 z"
     fill="#def6f4"
     id="path49" />
  <path
     d="m 931,116.65161 h 15 l 9,4 5,4 v 3 l -8,6 -5,-1 -3,-1 h -12 l -7,-9 -1,-3 z"
     fill="#e7f8f7"
     id="path50" />
  <path
     d="m 1748,1040.6516 2,3 1,5 v 9 l -5,23 -3,8 h -10 l 2,-10 12,-37 z"
     fill="#e1f6f5"
     id="path51" />
  <path
     d="m 913,127.65161 7,6 3,5 -1,3 v 14 l -8,7 -4,-2 -3,-8 v -13 z"
     fill="#e4f7f6"
     id="path52" />
  <path
     d="m 945,160.65161 4,2 5,10 -6,3 -4,1 h -12 l -9,-3 1,-4 6,-8 h 12 z"
     fill="#e3f7f6"
     id="path53" />
  <path
     d="m 1086,814.65161 8,2 6,5 3,7 -1,9 -6,7 -4,2 h -11 l -6,-4 -4,-6 -1,-7 3,-8 6,-5 z m -4,4 -7,6 -1,2 v 9 l 4,6 4,2 h 9 l 5,-3 3,-5 v -9 l -4,-6 -4,-2 z"
     fill="#00053f"
     id="path54" />
  <path
     d="m 1087,630.65161 h 6 l 2,5 9,3 v 1 h -45 v -6 l 18,-1 z"
     fill="#dff6f4"
     id="path55" />
  <path
     d="m 966,138.65161 3,1 v 13 l -4,10 h -3 l -8,-8 1,-11 9,-4 z"
     fill="#e1f7f5"
     id="path56" />
  <path
     d="m 1638,76.651613 h 2 l 14,27.999997 v 6 l -13,22 -8,12 -3,1 1,-5 17,-28 2,-3 -1,-5 -11,-23.999997 z"
     fill="#00053f"
     id="path57" />
  <path
     d="m 447,187.65161 h 2 l -1,4 -51,51 h -3 l 2,-4 20,-20 7,-8 22,-22 z"
     fill="#00053f"
     id="path58" />
  <path
     d="m 1714,1058.6516 h 1 l 1,22 1,7 -1,1 h -7 l -5,-8 -1,-6 10,-15 z"
     fill="#d4f3f1"
     id="path59" />
  <path
     d="m 969,300.65161 3,1 -6,21 -14,41 -4,1 13,-41 z"
     fill="#00053f"
     id="path60" />
  <path
     d="m 775,209.65161 h 8 l 7,6 v 10 l -4,5 -4,2 h -7 l -5,-3 -3,-6 1,-8 4,-5 z m 1,3 -5,4 -1,5 2,5 4,3 7,-1 4,-4 v -7 l -5,-5 z"
     fill="#00053f"
     id="path61" />
  <path
     d="m 204,182.65161 3,1 10,20 10,19 3,7 v 3 l -3,-1 -11,-22 -10,-19 -3,-7 z"
     fill="#00053f"
     id="path62" />
  <path
     d="m 979,313.65161 4,1 13,16 1,4 -7,8 -10,11 -3,-1 4,-6 7,-7 4,-5 -2,-5 -11,-14 z"
     fill="#00053f"
     id="path63" />
  <path
     d="m 940,313.65161 h 2 l -1,5 -11,13 1,4 10,11 3,4 v 3 l -4,-2 -11,-12 -4,-5 2,-5 11,-14 z"
     fill="#00053f"
     id="path64" />
  <path
     d="m 352,182.65161 h 2 l -1,7 -11,26 -3,6 h -2 l 1,-7 13,-31 z"
     fill="#00053f"
     id="path65" />
  <path
     d="m 1315,378.65161 h 2 l 4,13 v 7 l -5,11 h -1 l -1,-30 z"
     fill="#b5ece8"
     id="path66" />
  <path
     d="m 279,177.65161 3,1 4,30 v 7 h -3 l -4,-29 z"
     fill="#00053f"
     id="path67" />
  <path
     d="m 962,128.65161 3,1 2,6 -10,4 -4,-1 1,-4 z"
     fill="#c3efec"
     id="path68" />
  <path
     d="m 923,157.65161 h 4 l -1,5 -6,8 -5,-3 v -3 z"
     fill="#d1f3f0"
     id="path69" />
  <path
     d="m 1127,29.651613 h 26 v 3 h -26 z"
     fill="#00053f"
     id="path70" />
  <path
     d="m 1156,-0.3483871 h 3 V 25.651613 h -3 z"
     fill="#00053f"
     id="path71" />
  <path
     d="m 919,121.65161 4,2 5,7 -1,4 -4,-1 -7,-8 z"
     fill="#c9f1ee"
     id="path72" />
  <path
     d="m 1163,29.651613 h 27 v 2 l -2,1 h -22 l -3,-1 z"
     fill="#00053f"
     id="path73" />
  <path
     d="m 1156,37.651613 h 3 v 25 h -3 z"
     fill="#00053f"
     id="path74" />
  <path
     d="m 950,157.65161 4,1 7,6 -1,4 -4,1 -6,-10 z"
     fill="#c8f0ee"
     id="path75" />
  <path
     d="m 1699,1080.6516 3,1 2,4 v 3 h -9 l 2,-5 z"
     fill="#b1ebe7"
     id="path76" />
  <path
     d="m 1096,628.65161 h 7 v 6 h -5 l -2,-3 z"
     fill="#e0f6f5"
     id="path77" />
</svg>
