<?xml version="1.0" encoding="UTF-8"?>
<svg version="1.1" viewBox="0 0 2048 1532" width="930" height="696" xmlns="http://www.w3.org/2000/svg">
<path transform="translate(0)" d="m0 0h2048v1532h-2048z" fill="#FDFDFD"/>
<path transform="translate(1416,374)" d="m0 0 16 1 13 3 12 5 10 7 6 7 4 8 7 25 9 10 7 12 2 8v14l-2 15 1 7 8 14 1 4v8l-4 12-6 11-9 11-8 6-11 5-10 2v48l-3 18-11 31-7 19-3 13v28l4 24 4 15 8 21 16 28 8 17 4 16 1 11v9l-2 16-5 16-10 25-5 18-2 12-2 26-7 145v22l10 13 29 38 14 19 3 5-1 5-12 12 1 5 8 11 9 7 5 5 15 8 7 7 4 6 1 5-8 16-11 18-13 19-7 9-8 7-16 6-18 4-13 1-6-3-3-5v-19l3-5 14-10 12-7 3-3 2-7 1-9v-9l-2-8-1-7-6-10-1-3-5 3h-2v2h-2l-12-16-2 34-3 3h-3l1 42v38l-3 3-18 3-24 2h-39l-21-3-5-3-1-3v-10l4-11 6-7 10-6 14-6 30-7 6-1 2-30-19-4-6-3-1-23v-102l-15-20-16-21-12-16-6-9-4-12-1-5v-11l7-56 7-50 7-43 5-26 3-30 2-34v-31l-4-9-5-25-1-7-1-44h-2l-12 12-8 7-11 8-11 5-21 5-37 6-34 5 7 3 3 4v33l-4 5-82 1h-131v7l-3 5h-44l1 520 100 1v40l-1 1h-203l-1-1v-39l1-1 99-1 1-520h-44l-3-2v-10h-63l-148-1-3-3-1-3v-32l4-5 166-1 5-12 12-32 8-21 4-2 16 35 14 32 11 1-8-20-15-34-19-44-13-30-8-19v-3l3 1 11 24 11 26 18 41 24 56 1 1h126l5-10 9-10 5-5 2-7 4-2-7-2-2-2 1-5 2-2h29l20 3 26 9 14 5h8l17-7 55-16 35-10 12-6 7-7 9-11 11-13 13-17 4-5-1-4-4-9-1-4v-9l4-13 7-9 15-10 9-7 7-8 11-14 7-11 1-6v-22l-1-10h-4l-11 3-9-2-3-3-2-20-1-3-8-5 2-9 3-13v-29l-1-17-4-5-1-2v-11l4-6 6-4 10-2h17l21-4z" fill="#21C8BC"/>
<path transform="translate(365,462)" d="m0 0h20l14 2 16 5 17 9 16 13 11 10 13 10 14 7 11 3 18 2h23v374l-1 1h-268v-11l8-89 8-3-5-13v-2h-11l-2-5-10-1-2-2 11-21-3 1-11 20-2 2h-32l-1 5-1 1-11 1-7 14 1 1 8 1 5 37 8 61-1 3h-106l-1-1v-278l5-3 12-5 11-6 14-10 11-9 12-11 20-18 14-12 15-13 14-11 20-15 15-10 17-10 17-9 15-6 16-5 16-3z" fill="#FCFDFD"/>
<path transform="translate(109,262)" d="m0 0h432v636h32v43h-496v-43l31-1zm256 200-20 3-15 4-16 6-19 9-17 10-15 10-19 14-16 13-11 9-15 13-12 11-8 7-12 11-13 11-17 12-17 9-10 4-1 1v278l1 1h106l1-3-12-93-1-5-8-1v-4l6-11 11-1 2-3v-3h32l4-5 9-17 3-1-11 21 2 2 10 1 2 5h11l5 15-8 3-8 89v11h268l1-2v-373h-23l-18-2-13-4-12-6-10-8-14-12-12-10-11-7-15-7-16-4-9-1z" fill="#00053F"/>
<path transform="translate(1742,936)" d="m0 0h9l11 2 8 4 9 8 6 12 2 9v10l10-3h8l9 2 9 6 6 8 3 9v18l-4 19-1 9 3-1h13l-2-9-1-19 2-16 4-12 6-9 9-8 12-5 4-1h17l13 4 11 7 6 7 6 12 2 10v17l-4 15-8 16-9 19-3 11-1 8-1 26-3 12-5 10-18 27-9 16-5 14-2 12h17l-2 14-25 132-2 5h-129l-2-5-23-128-2-12v-5l10-1h10l-6-10-8-6-18-10-9-7-6-7-3-8-2-28-3-9-9-11-10-11-9-14-4-10-1-5v-17l5-15 7-11 8-7 10-4h11l9 4 7 5v-24l2-16 5-17 6-11 7-9 10-8 14-7z" fill="#00053F"/>
<path transform="translate(824,225)" d="m0 0h24l17 4 14 6 11 7 14 12 9 10 10 15 8 15 7 19 5 23 2 17v48l-3 29-6 36-7 31-14 54-7 36-3 3-4-3-8-21-8-16-8-14-10-13-14-15-24-24-7-8-12-13-9-11-11-13-14-19-10-15-9-16-7-16-5-19-2-15v-23l3-18 5-16 8-16 8-11 11-11 14-9 15-6z" fill="#FAFDFD"/>
<path transform="translate(112,266)" d="m0 0h425l1 5-1 130-20 4-12-11-18-12-14-8-20-8-19-6-20-4-16-2h-41l-28 3-25 5-25 7-19 8-5-1-15-16-7-8-8-8-7-8-7-7-7-8-4-2 6 8 12 12 7 8 15 16 13 14-1 4-21 12-16-7-10-2h-27l-16 3-20 7-17 9-10 7-2 1-1-3z" fill="#FAFDFC"/>
<path transform="translate(860,614)" d="m0 0 3 1 11 24 11 26 18 41 24 56 1 1h126l5-10 9-10 5-5 2-7 4-2-7-2-2-2 1-5 2-2h29l20 3 26 9 14 5h8l7-3h3l-1 3-6 2v2h6v3l-5 2-1 4h7v3l-6 1 1 5 6 2-1 3-8-2-2-2v-4l-16 3h-18l1 6 70 1 5 5v33l-4 5-82 1h-131v7l-3 5h-44l1 520 100 1v40l-1 1h-203l-1-1v-39l1-1 99-1 1-520h-44l-3-2v-10h-63l-148-1-3-3-1-3v-32l4-5 166-1 5-12 12-32 8-21 4-2 16 35 14 32 11 1-8-20-15-34-19-44-13-30-8-19z" fill="#00053F"/>
<path transform="translate(1067,366)" d="m0 0 13 1 11 4 11 7 8 8 7 11 6 12 4 13 2 9 1 10v15l-3 19-7 20-8 15-7 9-10 11-13 10-19 10-26 8-26 6-33 7-14 5-16 8-18 11h-2v-8l8-44 8-33 8-26 7-19 12-25 9-15 12-16 11-12 7-7 15-11 14-7 12-4z" fill="#F9FCFC"/>
<path transform="translate(180,386)" d="m0 0h24l13 3 16 8 12 11 9 10 12 17 10 13 10 10 16 12 6 3v2l-23 12-19 12-18 13-13 10-17 14-14 12-11 10-8 7-10 9-11 10-14 11-15 10-16 8-6 2-1-1v-198l5-5 20-12 17-7 19-5z" fill="#FAFDFC"/>
<path transform="translate(1401,794)" d="m0 0 3 3 8 24 6 24 4 27 1 14 1 28v84l-2 101-3 94-3 71-1 16v13h9l11-2 3-2 12-257 4-73 3-19 6-21 10-24 4-14 1-6v-27l-4-15-7-16-8-15-3-5v-2h3l9 15 10 21 4 16 1 11v9l-2 16-5 16-10 25-5 18-2 12-2 26-7 145v22l10 13 29 38 14 19 3 5-1 5-12 12 1 5 8 11 9 7 5 5 15 8 7 7 4 6 1 5-8 16-11 18-13 19-7 9-8 7-16 6-18 4-13 1-6-3-3-5v-19l3-5 14-10 12-7 3-3 2-7 1-9v-9l-2-8-1-7-6-10-1-3-5 3h-2v2h-2l-12-16-2 34-3 3h-3l1 42v38l-3 3-18 3-24 2h-39l-21-3-5-3-1-3v-10l4-11 6-7 10-6 14-6 30-7 6-1 2-30-19-4-6-3-1-23v-102l-15-20-16-21-12-16-6-9-4-12-1-5v-11l7-56 7-50 7-43 5-26 3-30 3-54 1-10 3 1v13l-2 42-3 33-6 34-8 50-10 74-2 16v21l4 12 10 14 16 21 18 24v-30l-5-108-9-177v-39h3l2 53 11 219 3 72 1 141 22 5 11 2 4-83 3-88 2-81 1-65v-48l-1-41-3-29-6-29-9-29-1-5z" fill="#00053F"/>
<path transform="translate(1416,374)" d="m0 0 16 1 13 3 12 5 10 7 6 7 4 8 7 25 9 10 7 12 2 8v14l-2 15 1 7 8 14 1 4v8l-4 12-6 11-9 11-8 6-11 5-5 1h-14l-17-5h-24l-8-3-6-4-4-5-3-6-4 1 1-7v-22l-1-10h-4l-11 3-9-2-3-3-2-20-1-3-8-5 2-9 3-13v-29l-1-17-4-5-1-2v-11l4-6 6-4 10-2h17l21-4z" fill="#00053F"/>
<path transform="translate(1395,796)" d="m0 0h5l6 16 6 22 5 24 3 29 1 41v48l-2 112-3 95-4 91-1 17-1 2-11-1-22-5-1-1-1-141-5-113-9-178v-52l25-4z" fill="#F8FCFC"/>
<path transform="translate(362,356)" d="m0 0h32l19 2 24 5 23 8 19 9 16 10 13 10 6 5-1 2-12 6-9 7-8 9-8 12-10 14-9 10-10 9-10 5-11-7-15-7-16-4-7-1h-27l-22 4-16 5-10 4-5-2-14-10-10-8-10-11-13-18-10-13-8-9-8-6 1-3 15-9 19-9 27-9 22-5 29-4z" fill="#FAFDFC"/>
<path transform="translate(1746,939)" d="m0 0 15 2 11 6 7 9 4 11 1 7v11l-4 22-7 25-4 13-1 5v19l4 13 9 17 11 18 5 11 2 9v14l-4 16-8 16-8 12-9 14-2 3h-20v-11l6-40v-20l-6-15 1-5 4-11 2-16h-3v10l-4 14-3 3-11-22-5-15-2-10v-25l4-18 6-16-3 1-6 16-3 10-4-4-6-13-5-15-1 2 3 12 8 17 4 5v19l2 16 5 17 18 36 3 9v15l-6 39-2 15h-11l-1-1-2-18-4-9-10-16-7-10-5-11-3-11-1-15-1-34-3-18-5-24-2-14v-31l3-16 7-16 4-6 9-10 11-7 11-4z" fill="#F6FCFB"/>
<path transform="translate(1716,153)" d="m0 0h23l16 4 16 8 10 8 8 8 9 14 6 15 2 10v23l-4 16-8 16-9 11-10 9-13 8-18 6-6 1h-21l-16-4-16-8-8-6-8-7-9-12-7-15-4-16v-21l4-16 8-16 8-11 11-10 13-8 14-5z" fill="#F8FCFC"/>
<path transform="translate(1008,200)" d="m0 0h18l16 4 15 8 12 11 6 8 6 12 3 11 1 7v14l-3 17-4 10-10 13-17 17-11 9-15 12-16 12-10 8-10 9-10 10-13 18-10 16-3-1 1-28v-35l-5-44-1-13v-43l3-16 5-12 9-12 7-7 12-8 14-5z" fill="#F7FCFB"/>
<path transform="translate(1413,792)" d="m0 0h19l20 3 5 2 10 18 7 15 4 13 1 5v27l-4 17-8 20-6 16-5 22-2 23-7 142-8 174-4 3-11 2h-9l-1-1v-13l3-59 3-87 2-79 1-57v-84l-1-28-2-22-4-23-7-27-6-17v-3z" fill="#F6FCFB"/>
<path transform="translate(1879,972)" d="m0 0h14l13 4 10 7 6 7 4 8 2 6 1 7v11l-3 14-7 16-11 23-4 15-1 27-3 14-6 12-20 30-8 16-3 9-3 14h-11l4-22 8-20 9-23 5-20 2-18v-17l3-5 2-5 1-9v-7l7-6h2l2-4 6-9 7-15 2-9-2-1-3 11-8 16-7 9-4 4h-3l-2-15 1-11 5-12 3-6-5 5-5 12-2 5-3-3-5-16-2-20-2-1 1 16 3 14 5 12 3 3 3 21v15l-2 6h-2l-5-16-6-9-5-5-8-5-6-4-2-12v-26l3-12 6-11 8-8 10-5z" fill="#F1FBFA"/>
<path transform="translate(1355,801)" d="m0 0h1l1 32 1 7 9 177 5 108v31l-5-5-10-13-16-21-13-18-4-8-2-7v-21l10-76 9-59 6-32 3-27 2-32 2-35z" fill="#F3FBFB"/>
<path transform="translate(1716,153)" d="m0 0h23l16 4 16 8 10 8 8 8 9 14 6 15 2 10v23l-4 16-8 16-9 11-10 9-13 8-18 6-6 1h-21l-16-4-16-8-8-6-8-7-9-12-7-15-4-16v-21l4-16 8-16 8-11 11-10 13-8 14-5zm3 17-15 4-11 6-10 8-9 12-5 11-3 12v17l4 15 6 11 9 10 9 8 13 6 12 3h17l12-3 16-8 11-10 8-12 5-14 1-5v-19l-4-14-5-10-9-11-10-8-13-6-12-3z" fill="#00053F"/>
<path transform="translate(1659,1025)" d="m0 0h9l12 6 7 8 3 13 6 28 1 8 1 37 1 13-2-1-4-13-4-5-2-1 2-9 2-13v-10h-2l-1 16-3 12h-3l-8-9-4-13-1-6h-2l1 10-6-2-9-8-3-5-2 1 6 8 9 7 6 3 6 10 5 5 11 10 5 15 7 11 7 13 14 21 4 10 1 6v11h-10l-5-10-4-5-25-14-10-9-4-5-2-6-2-29-3-8-7-9-10-11-9-13-5-11-2-8v-13l4-13 4-8 9-10 7-4z" fill="#F2FBFA"/>
<path transform="translate(535,404)" d="m0 0h2l1 49v35l-1 31-2 1h-31l-14-3-12-5-14-10-12-11-11-9v-2l11-7 10-9 11-14 13-19 11-12 10-7 13-5z" fill="#F9FCFC"/>
<path transform="translate(1832,1051)" d="m0 0h10l9 3 9 6 6 7 5 11 3 13v27l-4 20-7 21-12 29-5 24h-12l1-9 8-29 4-15 1-7v-23l-1-9 4-8 3-10 2-16h-2l-3 18-4 12-3-3-5-12-1-4h-3l8 20 3 14v16h-3l-9-10-9-14-2-1 6 12 7 9 9 8-1 10-6 22-6 23-2 6h-6l4-18 2-10v-14l-4-13-12-31-5-16-3-16v-15l4-13 9-10 8-4z" fill="#F0FAF9"/>
<path transform="translate(1798,981)" d="m0 0 11 1 9 4 7 8 4 11v14l-4 18-2 14-9 6-6 8-4 13v18l3 15 5 17 11 27-1 9-13 40-3 8h-9l-2-11v-28l5-15 1-5v-17l-3-12-5-11-8-32v-16l5-5 8-7 8-13 4-13-2 1-7 16-6 8-5 6h-3l3-12 3-9h-3l-3 11-4 15-1 6v9l6 23-1 3-11-19-5-13-1-5v-14l4-17 6-19 5-23 2-10 5-2z" fill="#EFFAF9"/>
<path transform="translate(210,797)" d="m0 0h64l-1 18-7 77-2 6h-40l-2-6-12-93z" fill="#F7FCFC"/>
<path transform="translate(850,313)" d="m0 0h15l8 3 7 6 5 9 2 11-1 14-4 13-8 15-11 14-7 6-5-1-5-5-9-16-6-15-4-14v-16l5-12 7-7 7-4z" fill="#F0FAFA"/>
<path transform="translate(1448,1152)" d="m0 0h2l12 16 10 13 16 21 13 18 1 5-33 33-8 7-4 3-9-11-4-5v-19z" fill="#F5FBFB"/>
<path transform="translate(1012,236)" d="m0 0 12 1 10 4 8 7 6 10 2 9-1 11-4 10-6 7-10 6-8 2h-12l-11-4-6-4-7-8-4-9v-16l4-9 6-8 9-6z" fill="#00053F"/>
<path transform="translate(1724,547)" d="m0 0h12l10 4 8 7 5 8 3 9v7l-4 11-7 9-10 6-7 2h-8l-11-4-8-6-6-10-2-6v-12l4-10 7-8 8-5z" fill="#21C8BC"/>
<path transform="translate(1358,411)" d="m0 0 8 3 12 14 8 8 12 7 5 6-1 9-3 9-1 19v8l-2 4-19 8h-11l-3-3-2-20-1-4-7-2 1-7 4-20v-13l-1-25z" fill="#F4FBFB"/>
<path transform="translate(196,1272)" d="m0 0 6 1 27 14 37 19v3l-14 14-8 7-8 8-8 7-15 14h-4l-11-68-2-13z" fill="#21C8BC"/>
<path transform="translate(824,225)" d="m0 0h24l17 4 14 6 11 7 14 12 9 10 10 15 8 15 7 19 5 23 2 17v48l-3 29-6 36-7 31-14 54-7 36-3 3-4-3-8-21-8-16-8-14-10-13-14-15-24-24-7-8-12-13-9-11-11-13-14-19-10-15-9-16-7-16-5-19-2-15v-23l3-18 5-16 8-16 8-11 11-11 14-9 15-6zm2 3-15 3-16 6-10 6-11 9-9 11-7 11-6 15-4 16-2 16v15l3 22 6 20 12 23 12 18 12 16 9 11 12 14 18 20 15 16 22 22 11 14 9 15 8 16 7 17 1 4h2l7-35 12-46 7-29 6-32 4-32 1-13v-41l-3-24-4-17-6-17-8-16-7-11-8-10-13-13-15-10-14-6-11-3-7-1z" fill="#00053F"/>
<path transform="translate(1443,1256)" d="m0 0 5 5 8 10v2h2v-2l4-3h3l7 11 2 5 1 7 1 5v9l-2 13-3 5-5 4-14 8-9 7-2 4-1 17h-1l-1 10h-1l-1-37v-42l5-3z" fill="#F0FAF9"/>
<path transform="translate(1067,366)" d="m0 0 13 1 11 4 11 7 8 8 7 11 6 12 4 13 2 9 1 10v15l-3 19-7 20-8 15-7 9-10 11-13 10-19 10-26 8-26 6-33 7-14 5-16 8-18 11h-2v-8l8-44 8-33 8-26 7-19 12-25 9-15 12-16 11-12 7-7 15-11 14-7 12-4zm-9 4-15 4-10 4-11 7-10 8-10 9-9 11-10 13-12 21-8 17-9 25-7 23-9 38-6 33v7l11-7 15-8 18-7 34-7 30-7 24-8 15-8 12-9 12-12 9-14 7-14 6-20 2-16v-10l-2-16-5-17-7-14-10-13-11-8-10-4-4-1z" fill="#00053F"/>
<path transform="translate(1008,200)" d="m0 0h18l16 4 15 8 12 11 6 8 6 12 3 11 1 7v14l-3 17-4 10-10 13-17 17-11 9-15 12-16 12-10 8-10 9-10 10-13 18-10 16-3-1 1-28v-35l-5-44-1-13v-43l3-16 5-12 9-12 7-7 12-8 14-5zm2 3-15 3-16 8-8 7-7 7-8 14-4 16-1 8v37l4 39 2 18v57l4-5 8-12 8-10 9-10 11-10 20-15 14-11 11-9 14-12 9-9 9-12 5-12 3-19-1-16-5-16-7-11-7-8-13-9-11-5-15-3z" fill="#00053F"/>
<path transform="translate(1075,721)" d="m0 0h21l19 2 15 4 27 10 12 2 1 1v9l-7 3-11 2h-15l-11-3h-12l-20 2v-4l11-3 10-2v-1h-10l-14 2h-8v-2l13-4 15-2-1-2h-13l-18 1-1-3 13-3 18-2-1-2-30-1-5-1v-2z" fill="#E1F7F5"/>
<path transform="translate(509,1072)" d="m0 0h10l24 3 21 5 12 6 8 7 8 14 5 15 2 11 1 11v17l-3 1-2-27-3-16-5-13-6-10-9-8-13-5-24-5-7-1h-27l-16 4-14 7-10 9-8 10-8 16-4 15v20l4 13 5 10 9 11 10 8 11 5 4 1h8l10-4 9-6 8-8 10-15 5-13 1-4v-7l-3-6-7-6-10-3h-7l-7 3-3 1-2 4-4 13h-3l1-9 4-8 7-6 6-2h10l9 3 8 6 4 6 1 3v11l-5 13-7 12-11 13-11 8-9 4-4 1h-8l-12-4-11-7-11-11-7-11-5-13-2-11v-11l3-15 7-16 7-11 10-11 10-7 13-6 12-3z" fill="#00053F"/>
<path transform="translate(880,702)" d="m0 0 2 1 16 36 10 23v1h-50l1-6 18-47z" fill="#F0FAF9"/>
<path transform="translate(1330,1361)" d="m0 0 11 3 9 1h52l26-4h6v12l-6 2-27 3-16 1h-27l-20-2-7-2-1-1z" fill="#E4F7F6"/>
<path transform="translate(1533,1283)" d="m0 0 5 5 1 6-6 12-15 24-11 16-8 10-6 4-18 6-14 3-11 1-5-3-2-4 1-1 27-4 12-4 11-10 9-11 14-19 10-16 4-9z" fill="#E0F6F5"/>
<path transform="translate(1416,623)" d="m0 0h2l-1 6-12 18-14 19-14 17-11 13-12 12-13 9h-2v-12l10-10 8-7 12-12 7-8 13-13 7-8 11-13z" fill="#00053F"/>
<path transform="translate(1402,1296)" d="m0 0h30l1 3-1 28h-21l-10-1-1-1 1-23z" fill="#F2FBFA"/>
<path transform="translate(1163,938)" d="m0 0 8 2 6 5 3 7-1 9-6 7-4 2h-11l-6-4-4-6-1-7 3-8 6-5z" fill="#F0FAF9"/>
<path transform="translate(207,783)" d="m0 0h71l3 10h-79l2-6z" fill="#D2F3F0"/>
<path transform="translate(850,313)" d="m0 0h15l8 3 7 6 5 9 2 11-1 14-4 13-8 15-11 14-7 6-5-1-5-5-9-16-6-15-4-14v-16l5-12 7-7 7-4zm1 3-9 4-5 4-6 10-1 4v13l4 15 7 17 7 12 5 6 5-3 7-7 10-15 6-14 2-9v-16l-4-11-4-5-7-4-4-1z" fill="#00053F"/>
<path transform="translate(1488,1243)" d="m0 0 5 5 6 9-1 4-6 9-8 8-7 4-5-8-6-9 6-7 13-12z" fill="#EEFAF9"/>
<path transform="translate(1010,257)" d="m0 0h10l6 4 3 5v8l-4 6-7 3-9-1-5-3-3-6v-7l4-6z" fill="#E9F9F7"/>
<path transform="translate(852,333)" d="m0 0h8l7 6v10l-4 5-4 2h-7l-5-3-3-6 1-8 4-5z" fill="#DEF6F4"/>
<path transform="translate(1008,240)" d="m0 0h15l9 4 5 4v3l-8 6-5-1-3-1h-12l-7-9-1-3z" fill="#E7F8F7"/>
<path transform="translate(1825,1164)" d="m0 0 2 3 1 5v9l-5 23-3 8h-10l2-10 12-37z" fill="#E1F6F5"/>
<path transform="translate(990,251)" d="m0 0 7 6 3 5-1 3v14l-8 7-4-2-3-8v-13z" fill="#E4F7F6"/>
<path transform="translate(1022,284)" d="m0 0 4 2 5 10-6 3-4 1h-12l-9-3 1-4 6-8h12z" fill="#E3F7F6"/>
<path transform="translate(1163,938)" d="m0 0 8 2 6 5 3 7-1 9-6 7-4 2h-11l-6-4-4-6-1-7 3-8 6-5zm-4 4-7 6-1 2v9l4 6 4 2h9l5-3 3-5v-9l-4-6-4-2z" fill="#00053F"/>
<path transform="translate(1164,754)" d="m0 0h6l2 5 9 3v1h-45v-6l18-1z" fill="#DFF6F4"/>
<path transform="translate(1043,262)" d="m0 0 3 1v13l-4 10h-3l-8-8 1-11 9-4z" fill="#E1F7F5"/>
<path transform="translate(1715,200)" d="m0 0h2l14 28v6l-13 22-8 12-3 1 1-5 17-28 2-3-1-5-11-24z" fill="#00053F"/>
<path transform="translate(524,311)" d="m0 0h2l-1 4-51 51h-3l2-4 20-20 7-8 22-22z" fill="#00053F"/>
<path transform="translate(1791,1182)" d="m0 0h1l1 22 1 7-1 1h-7l-5-8-1-6 10-15z" fill="#D4F3F1"/>
<path transform="translate(1046,424)" d="m0 0 3 1-6 21-14 41-4 1 13-41z" fill="#00053F"/>
<path transform="translate(852,333)" d="m0 0h8l7 6v10l-4 5-4 2h-7l-5-3-3-6 1-8 4-5zm1 3-5 4-1 5 2 5 4 3 7-1 4-4v-7l-5-5z" fill="#00053F"/>
<path transform="translate(281,306)" d="m0 0 3 1 10 20 10 19 3 7v3l-3-1-11-22-10-19-3-7z" fill="#00053F"/>
<path transform="translate(1056,437)" d="m0 0 4 1 13 16 1 4-7 8-10 11-3-1 4-6 7-7 4-5-2-5-11-14z" fill="#00053F"/>
<path transform="translate(1017,437)" d="m0 0h2l-1 5-11 13 1 4 10 11 3 4v3l-4-2-11-12-4-5 2-5 11-14z" fill="#00053F"/>
<path transform="translate(429,306)" d="m0 0h2l-1 7-11 26-3 6h-2l1-7 13-31z" fill="#00053F"/>
<path transform="translate(1392,502)" d="m0 0h2l4 13v7l-5 11h-1l-1-30z" fill="#B5ECE8"/>
<path transform="translate(356,301)" d="m0 0 3 1 4 30v7h-3l-4-29z" fill="#00053F"/>
<path transform="translate(1039,252)" d="m0 0 3 1 2 6-10 4-4-1 1-4z" fill="#C3EFEC"/>
<path transform="translate(1e3 281)" d="m0 0h4l-1 5-6 8-5-3v-3z" fill="#D1F3F0"/>
<path transform="translate(1204,153)" d="m0 0h26v3h-26z" fill="#00053F"/>
<path transform="translate(1233,123)" d="m0 0h3v26h-3z" fill="#00053F"/>
<path transform="translate(996,245)" d="m0 0 4 2 5 7-1 4-4-1-7-8z" fill="#C9F1EE"/>
<path transform="translate(1240,153)" d="m0 0h27v2l-2 1h-22l-3-1z" fill="#00053F"/>
<path transform="translate(1233,161)" d="m0 0h3v25h-3z" fill="#00053F"/>
<path transform="translate(1027,281)" d="m0 0 4 1 7 6-1 4-4 1-6-10z" fill="#C8F0EE"/>
<path transform="translate(1776,1204)" d="m0 0 3 1 2 4v3h-9l2-5z" fill="#B1EBE7"/>
<path transform="translate(1173,752)" d="m0 0h7v6h-5l-2-3z" fill="#E0F6F5"/>
</svg>
