<?xml version="1.0" encoding="UTF-8" standalone="no"?>
<svg
   version="1.1"
   viewBox="0 0 1927 2048"
   width="767"
   height="815"
   id="svg226"
   sodipodi:docname="mulher_verde_2.svg"
   inkscape:export-filename="mulher_verde_2.png"
   inkscape:export-xdpi="96"
   inkscape:export-ydpi="96"
   xmlns:inkscape="http://www.inkscape.org/namespaces/inkscape"
   xmlns:sodipodi="http://sodipodi.sourceforge.net/DTD/sodipodi-0.dtd"
   xmlns="http://www.w3.org/2000/svg"
   xmlns:svg="http://www.w3.org/2000/svg">
  <defs
     id="defs226" />
  <sodipodi:namedview
     id="namedview226"
     pagecolor="#505050"
     bordercolor="#ffffff"
     borderopacity="1"
     inkscape:showpageshadow="0"
     inkscape:pageopacity="0"
     inkscape:pagecheckerboard="1"
     inkscape:deskcolor="#505050">
    <inkscape:page
       x="0"
       y="0"
       width="1927"
       height="2048"
       id="page2"
       margin="0"
       bleed="0" />
  </sodipodi:namedview>
  <path
     d="m 1478.8092,73 h 26 l 19,3 17,5 13,5 14,7 11,8 9,9 6,10 5,12 10,38 4,9 7,8 9,10 9,14 5,11 3,14 v 23 l -4,28 -1,11 13,21 5,11 2,7 v 14 l -7,21 -10,19 -10,13 -10,11 -13,10 -15,7 -17,4 -9,1 1,30 v 58 l -2,20 -5,23 -8,26 -11,28 -9,24 -7,23 -4,16 -2,17 v 21 l 3,30 5,29 8,31 10,28 10,21 6,10 9,14 12,21 11,23 9,25 4,19 1,12 v 28 l -3,24 -6,23 -7,19 -10,22 -9,25 -6,23 -4,22 -2,18 -3,50 -14,294 v 7 l 4,7 12,15 12,16 10,13 13,17 16,21 9,12 16,21 12,17 5,8 v 5 l -29,29 2,5 13,20 h 6 l 8,5 9,8 7,8 8,8 10,6 14,7 11,10 8,13 2,5 v 8 l -5,12 -9,17 -11,17 -15,22 -13,18 -16,21 -9,12 -5,6 -14,8 -24,8 -23,5 -17,2 h -12 l -9,-2 -6,-4 -5,-6 -3,-8 v -18 l 4,-17 4,-6 9,-6 24,-13 19,-12 4,-2 3,-17 1,-11 v -23 l -2,-14 -2,-9 5,-3 -2,-6 -8,-12 -10,-13 -4,2 -9,9 -4,-2 -16,-21 -7,-9 -1,3 -3,62 -2,5 -10,5 h -3 l -3,32 1,30 5,1 2,5 1,6 1,16 v 35 l -2,25 -2,5 -19,5 -27,5 -28,3 h -62 l -25,-2 -23,-3 -18,-4 -4,-4 v -25 l 3,-14 4,-10 7,-9 8,-7 19,-10 25,-9 30,-8 26,-5 15,-2 3,-32 v -23 l -34,-7 -17,-5 -1,-1 -1,-40 v -199 l -14,-19 -32,-42 -9,-12 -16,-21 -14,-19 -7,-11 -5,-11 -4,-13 -2,-12 v -17 l 6,-53 12,-90 12,-82 8,-50 7,-36 4,-22 4,-34 4,-51 4,-81 v -18 l -4,-5 -6,-18 -7,-36 -3,-20 -1,-11 v -80 l -6,4 -7,7 -8,7 -13,12 -16,15 -15,11 -16,8 -15,5 -33,7 -40,7 -69,10 -53,7 h -9 l -18,-5 -4,-4 -1,-9 -30,6 -18,2 -15,-1 -7,-1 2,7 v 7 l -10,2 -12,1 153,1 6,3 6,7 2,7 v 42 l -4,10 -6,5 -7,2 -391,1 -1,18 -4,4 h -81 v 983 h 175 l 11,1 2,2 v 66 l -3,3 h -373 l -3,-2 -1,-20 v -29 l 1,-18 5,-3 h 182 V 915 h -81 l -4,-4 -1,-18 -386,-1 -8,-3 -7,-8 -2,-11 v -31 l 2,-13 6,-7 6,-3 h 108 v -29 l 3,-5 h 80 l -3,-7 1,-6 3,3 4,9 h 19 l -15,-32 -8,-18 -13,-28 -9,-20 -13,-29 1,-4 h 2 l 18,39 15,33 19,41 8,18 59,1 2,4 v 30 l 142,-1 11,-30 20,-52 18,-47 3,-2 4,6 11,25 14,31 16,36 15,33 24,1 -5,-13 -13,-29 -11,-26 -59,-136 -13,-30 -16,-37 -6,-15 v -3 l 3,1 5,10 36,83 40,92 13,30 20,46 11,26 h 135 l -17,-2 -4,-2 4,-10 8,-12 13,-15 11,-9 2,-1 -2,-4 -1,-5 4,-5 16,-5 -3,-1 -18,-2 -5,-3 -1,-2 v -6 l 3,-3 12,-2 h 33 l 36,4 22,5 28,10 35,13 8,2 h 13 l 8,-5 12,-4 7,-3 171,-49 16,-6 15,-8 10,-11 9,-11 11,-13 14,-17 9,-11 13,-16 11,-14 8,-11 -2,-5 -8,-16 -3,-12 v -16 l 3,-12 4,-10 7,-10 7,-8 13,-9 16,-10 13,-11 10,-10 7,-8 11,-13 12,-17 8,-14 2,-1 3,-23 v -29 l -2,-22 v -7 l -23,8 -11,1 -12,-3 -5,-4 -2,-5 -2,-28 -2,-13 -12,-5 -5,-5 3,-9 4,-13 4,-20 1,-7 v -31 l -2,-21 v -29 l -7,-8 -3,-7 v -14 l 6,-11 7,-6 9,-4 16,-2 h 31 l 31,-6 z"
     fill="#24c8bc"
     id="path2" />
  <path
     d="m 556.8092,527 3,1 5,10 36,83 40,92 13,30 20,46 11,26 v 2 h 398 l 7,6 3,6 1,4 v 42 l -4,10 -6,5 -7,2 -391,1 -1,18 -4,4 h -81 v 983 h 175 l 11,1 2,2 v 66 l -3,3 h -373 l -3,-2 -1,-20 v -29 l 1,-18 5,-3 h 182 V 915 h -81 l -4,-4 -1,-18 -386,-1 -8,-3 -7,-8 -2,-11 v -31 l 2,-13 6,-7 6,-3 h 108 v -29 l 3,-5 h 80 l -3,-7 1,-6 3,3 4,9 h 19 l -15,-32 -8,-18 -13,-28 -9,-20 -13,-29 1,-4 h 2 l 18,39 15,33 19,41 8,18 59,1 2,4 v 30 l 142,-1 11,-30 20,-52 18,-47 3,-2 4,6 11,25 14,31 16,36 15,33 24,1 -5,-13 -13,-29 -11,-26 -59,-136 -13,-30 -16,-37 -6,-15 z"
     fill="#010840"
     id="path3" />
  <path
     d="m 1449.8092,871 h 5 l 7,19 10,31 9,36 6,31 4,29 3,42 1,39 v 158 l -2,114 -3,119 -4,125 -5,123 -4,73 -1,13 -3,1 -27,-4 -28,-6 -9,-3 -1,-1 -1,-42 v -209 l -4,-105 -9,-188 -15,-294 -1,-24 v -65 l 26,-2 33,-7 z"
     fill="#fdfdfd"
     id="path4" />
  <path
     d="m 1478.8092,73 h 26 l 19,3 17,5 13,5 14,7 11,8 9,9 6,10 5,12 10,38 4,9 7,8 9,10 9,14 5,11 3,14 v 23 l -4,28 -1,11 13,21 5,11 2,7 v 14 l -7,21 -10,19 -10,13 -10,11 -13,10 -15,7 -17,4 h -21 l -20,-6 -13,-4 -5,-1 h -11 l -10,1 h -21 l -12,-4 -11,-7 -8,-9 -4,-9 -1,-5 v -12 l 4,-13 6,-14 1,-4 v -9 l -6,-18 1,-10 1,-2 -13,6 3,28 v 35 l -3,20 -5,1 3,-24 v -29 l -2,-22 v -7 l -23,8 -11,1 -12,-3 -5,-4 -2,-5 -2,-28 -2,-13 -12,-5 -5,-5 3,-9 4,-13 4,-20 1,-7 v -31 l -2,-21 v -29 l -7,-8 -3,-7 v -14 l 6,-11 7,-6 9,-4 16,-2 h 31 l 31,-6 z"
     fill="#00073f"
     id="path5" />
  <path
     d="m 1487.8092,864 h 19 l 25,3 29,5 10,16 14,25 8,17 9,25 4,20 1,9 v 29 l -3,23 -5,21 -8,22 -12,27 -9,27 -5,20 -4,25 -3,41 -8,161 -8,175 -11,235 -1,25 -4,4 -11,4 -15,2 h -18 l -2,-1 v -12 l 4,-71 5,-120 4,-123 3,-116 2,-112 v -177 l -2,-53 -3,-32 -5,-32 -8,-36 -9,-32 -13,-38 v -1 l 22,-4 z"
     fill="#fdfdfd"
     id="path6" />
  <path
     d="m 1365.8092,882 h 8 l 1,69 7,142 7,134 5,99 5,106 4,94 1,41 -5,-5 -32,-42 -12,-16 -16,-21 -14,-19 -10,-14 -6,-14 -4,-15 -1,-7 v -16 l 6,-52 10,-76 12,-84 10,-63 11,-56 5,-44 4,-58 z"
     fill="#fdfdfd"
     id="path7" />
  <path
     d="m 1456.8092,869 2,1 15,44 10,38 7,36 4,28 2,24 2,53 v 177 l -2,112 -4,148 -4,118 -5,113 -3,51 -1,3 v 11 l -3,2 -16,-1 v 24 l -2,23 -2,9 28,4 28,-1 -1,-3 v -8 h 1 v 5 h 2 l 1,6 7,3 2,10 1,16 v 35 l -2,25 -2,5 -19,5 -27,5 -28,3 h -62 l -25,-2 -23,-3 -18,-4 -4,-4 v -25 l 3,-14 4,-10 7,-9 8,-7 19,-10 25,-9 30,-8 26,-5 15,-2 3,-32 v -23 l -34,-7 -17,-5 -1,-1 -1,-40 v -199 l -14,-19 -32,-42 -9,-12 -16,-21 -14,-19 -7,-11 -5,-11 -4,-13 -2,-12 v -17 l 6,-53 12,-90 12,-82 8,-50 7,-36 4,-22 4,-34 4,-51 5,-98 h 4 v 21 l -3,63 -4,58 -5,44 -11,56 -11,70 -12,84 -11,85 -4,36 v 16 l 3,15 5,15 7,12 16,21 14,19 13,17 16,21 24,32 -1,-40 -5,-117 -7,-146 -7,-132 -9,-180 v -69 h 4 l 1,66 6,122 13,257 7,150 3,82 v 209 l 1,42 14,4 28,6 24,3 4,-67 5,-116 4,-117 3,-111 2,-96 1,-60 v -158 l -1,-39 -3,-42 -5,-35 -7,-34 -8,-30 -13,-40 -3,-8 z"
     fill="#020940"
     id="path8" />
  <path
     d="m 413.8092,1898 h 184 l 188,1 2,2 v 66 l -3,3 h -373 l -3,-2 -1,-20 v -29 l 1,-18 z"
     fill="#010840"
     id="path9" />
  <path
     d="m 1635.8092,1742 5,3 1,2 h 6 l 8,5 9,8 7,8 8,8 10,6 14,7 11,10 8,13 2,5 v 8 l -5,12 -9,17 -11,17 -15,22 -13,18 -16,21 -9,12 -5,6 -14,8 -24,8 -23,5 -17,2 h -12 l -9,-2 -6,-4 -5,-6 -3,-8 v -18 l 4,-17 4,-6 9,-6 24,-13 19,-12 4,-2 3,-17 1,-11 v -23 l -2,-14 -2,-9 5,-3 -2,-6 -6,-9 1,-3 h 3 l 8,13 2,2 12,-9 9,-9 10,-15 5,-13 -5,-8 z"
     fill="#020940"
     id="path10" />
  <path
     d="m 394.8092,139 6,1 4,4 v 2 l 8,-2 h 9 l 11,4 8,7 5,5 79,21 67,18 1,5 -13,13 -8,7 -13,12 -8,7 -12,11 -6,5 6,12 v 12 l -4,8 -9,10 -8,5 -3,1 h -12 l -8,-4 -4,-4 -4,1 -7,7 -8,7 -10,9 -12,11 -21,18 -5,1 -2,-4 -14,-95 -5,-36 -1,-11 -3,-8 -4,-6 v -2 l -3,-1 -4,-13 v -7 l 3,-9 v -3 l -4,-4 -1,-6 3,-6 z"
     fill="#010840"
     id="path11" />
  <path
     d="m 390.8092,186 2,4 4,4 4,6 2,7 v 10 l -11,16 -39,54 -12,17 -26,36 -10,14 -39,54 -10,14 -13,18 -10,14 -12,16 1,7 2,6 v 10 l -4,10 -3,3 1,6 15,33 18,39 11,25 7,15 11,24 -1,6 15,33 11,24 12,26 9,20 10,22 v 2 l -2,1 h -17 l -6,-12 -3,3 -16,-35 -11,-24 -15,-33 -16,-35 -15,-33 -14,-30 -15,-33 -12,-27 -4,-8 v -2 l -6,-2 -7,-6 -5,-9 -1,-11 3,-10 7,-8 9,-5 6,-2 13,-19 12,-16 12,-17 26,-36 12,-17 52,-72 10,-14 13,-18 12,-17 26,-36 6,-9 z"
     fill="#080f44"
     id="path12" />
  <path
     d="m 841.8092,726 h 33 l 36,4 22,5 28,10 35,13 8,2 h 13 l 8,-5 11,-3 -1,5 -12,4 -1,1 v 5 l 14,-1 v 5 l -15,1 v 11 h 15 l 1,5 h -15 l 1,11 5,3 10,2 1,4 -10,-1 -8,-3 -3,-3 -1,-9 -30,6 -18,2 -15,-1 -7,-1 2,7 v 7 l -10,2 -12,1 153,1 v 1 l -186,1 h -43 l -166,-1 v -1 l 135,-1 -17,-2 -4,-2 4,-10 8,-12 13,-15 11,-9 2,-1 -2,-4 -1,-5 4,-5 16,-5 -3,-1 -18,-2 -5,-3 -1,-2 v -6 l 3,-3 z"
     fill="#515a74"
     id="path13" />
  <path
     d="m 1545.8092,1549 5,5 14,18 12,16 14,18 15,20 14,18 14,19 13,18 5,8 -2,4 -7,8 -28,28 h -2 v 2 l -8,7 -18,18 -8,7 -14,13 -4,-2 -8,-11 -13,-17 -3,-4 v -15 l 8,-171 z"
     fill="#fdfdfd"
     id="path14" />
  <path
     d="m 1372.8092,137 7,1 9,4 10,9 9,12 11,12 11,10 10,6 10,5 10,9 3,6 v 10 l -5,19 -3,10 -1,7 -1,41 -3,7 -19,9 -22,8 -4,1 h -9 l -11,-4 -2,-4 -2,-27 -3,-17 -8,-3 -7,-3 1,-7 5,-15 4,-20 1,-7 v -30 l -2,-22 v -25 z"
     fill="#fdfdfd"
     id="path15" />
  <path
     d="m 1561.8092,871 4,2 15,25 12,23 10,25 5,17 2,11 1,12 v 28 l -3,24 -6,23 -7,19 -10,22 -9,25 -6,23 -4,22 -2,18 -3,50 -14,294 v 7 l 4,7 12,15 12,16 10,13 13,17 16,21 9,12 16,21 12,17 5,8 v 5 l -29,29 2,5 10,15 -1,2 -2,-1 2,5 3,6 -5,12 -8,12 -9,10 -9,8 -7,4 -9,-14 v -2 l -5,1 -11,-14 -4,2 -9,9 -4,-2 -16,-21 -7,-9 -1,3 -3,62 -2,5 -10,5 h -3 l -3,32 1,30 -2,-1 v -6 h -2 v 6 l -22,2 -15,-1 -17,-3 -2,-1 3,-32 1,-24 h 16 l 2,-2 v -10 h 1 v 9 h 20 l 15,-2 11,-4 3,-3 8,-175 10,-216 7,-147 4,-74 2,-25 4,-25 7,-27 7,-20 14,-32 8,-24 4,-20 2,-17 v -29 l -3,-21 -6,-20 -10,-24 -11,-21 -15,-25 z m -16,678 -1,7 -8,171 v 15 l 14,18 12,16 4,-2 15,-14 13,-12 16,-16 2,-1 v -2 l 4,-2 32,-32 3,-4 -2,-6 -13,-18 -16,-21 -9,-12 -16,-21 -15,-20 -11,-14 -16,-21 -7,-9 z"
     fill="#1c206a"
     id="path16" />
  <path
     d="m 1456.8092,869 2,1 15,44 10,38 7,36 4,28 2,24 2,53 v 177 l -2,112 -4,148 -4,118 -5,113 -3,51 -1,3 v 11 l -3,2 -16,-1 v 24 l -1,13 h -1 l -1,-21 h -1 l -1,-17 -34,-7 -17,-5 -1,-1 -1,-40 v -199 l -14,-19 -32,-42 -9,-12 -16,-21 -14,-19 -7,-11 -5,-11 -4,-13 -2,-12 v -17 l 6,-53 12,-90 12,-82 8,-50 7,-36 4,-22 4,-34 4,-51 5,-98 h 4 v 21 l -3,63 -4,58 -5,44 -11,56 -11,70 -12,84 -11,85 -4,36 v 16 l 3,15 5,15 7,12 16,21 14,19 13,17 16,21 24,32 -1,-40 -5,-117 -7,-146 -7,-132 -9,-180 v -69 h 4 l 1,66 6,122 13,257 7,150 3,82 v 209 l 1,42 14,4 28,6 24,3 4,-67 5,-116 4,-117 3,-111 2,-96 1,-60 v -158 l -1,-39 -3,-42 -5,-35 -7,-34 -8,-30 -13,-40 -3,-8 z"
     fill="#2e346d"
     id="path17" />
  <path
     d="m 846.8092,730 h 22 l 27,2 25,4 20,6 43,16 15,5 18,2 v 23 l -31,6 -21,2 -14,-2 -17,-5 -14,-1 -21,2 -20,3 h -6 l -4,-3 1,-5 7,-4 14,-3 20,-2 v -3 l -21,1 -26,4 -13,1 -2,-1 2,-5 4,-3 17,-5 18,-3 11,-1 v -3 h -18 l -26,3 h -13 l -5,-2 v -4 l 5,-3 17,-4 34,-4 h 3 v -3 h -22 l -37,-2 -8,-2 v -5 l 1,-1 z"
     fill="#fdfdfd"
     id="path18" />
  <path
     d="m 594.8092,692 h 2 l 13,30 19,42 16,36 5,12 -1,1 h -99 l 2,-9 17,-44 19,-50 z"
     fill="#fdfdfd"
     id="path19" />
  <path
     d="m 392.8092,192 4,2 4,6 1,5 v 7 l -26,36 -10,14 -13,18 -10,14 -13,18 -10,14 -13,18 -10,14 -13,18 -10,14 -39,54 -12,17 -6,8 -16,-8 2,-5 13,-17 13,-19 12,-16 12,-17 26,-36 10,-14 39,-54 12,-17 39,-54 10,-14 z"
     fill="#fdfdfd"
     id="path20" />
  <path
     d="m 1518.8092,1953 h 3 l -2,25 -1,3 -20,5 -32,5 -26,2 h -48 l -37,-3 -28,-4 -7,-2 -1,-1 v -24 l 1,-4 9,3 17,4 13,2 12,1 h 46 l 43,-3 33,-4 z"
     fill="#fdfdfd"
     id="path21" />
  <path
     d="m 210.8092,510 3,2 9,20 17,37 15,33 18,39 15,33 11,24 15,33 13,28 9,20 v 2 l -2,1 h -17 l -8,-16 -15,-33 -12,-26 -16,-35 -12,-26 -19,-42 -19,-41 -15,-33 -6,-14 v -2 l 13,-2 z"
     fill="#fdfdfd"
     id="path22" />
  <path
     d="m 1708.8092,1801 4,2 7,12 1,9 -7,16 -9,16 -20,30 -13,18 -14,19 -16,21 -5,5 -15,7 -19,6 -24,5 -15,2 h -12 l -9,-2 -5,-4 -4,-8 1,-3 24,-2 26,-5 20,-6 13,-7 13,-11 7,-7 9,-11 10,-12 13,-18 17,-26 13,-22 6,-14 z"
     fill="#fdfdfd"
     id="path23" />
  <path
     d="m 595.8092,915 h 4 v 983 h 175 v 1 h -177 l -2,-1 z"
     fill="#2b306d"
     id="path24" />
  <path
     d="m 115.8092,1620 5,5 10,13 13,18 28,38 4,5 -1,4 -18,12 -17,11 -21,14 h -3 z"
     fill="#030a41"
     id="path25" />
  <path
     d="m 841.8092,726 h 33 l 36,4 22,5 28,10 35,13 8,2 h 13 l 8,-5 11,-3 -1,5 -12,4 -1,1 v 5 l 14,-1 v 5 l -15,1 v 11 h 15 l 1,5 h -15 l 1,11 5,3 10,2 1,4 -10,-1 -8,-3 -3,-3 -1,-9 -30,6 -18,2 -15,-1 -18,-6 -5,-1 h -20 l -27,4 h -12 l -5,-3 -2,-4 1,-6 1,-2 -7,1 h -11 l -3,-2 v -7 l 6,-5 4,-3 -13,-1 -7,-3 -2,-2 1,-6 5,-4 14,-4 -3,-1 -18,-2 -5,-3 -1,-2 v -6 l 3,-3 z m 5,4 -15,1 -1,1 v 5 l 8,2 37,2 h 22 v 3 l -30,3 -21,4 -7,3 -2,4 2,2 4,1 h 13 l 26,-3 h 18 v 3 l -24,3 -19,5 -6,3 -3,4 v 2 l 3,1 19,-2 19,-3 21,-1 v 3 l -20,2 -16,4 -6,4 1,5 3,2 13,-1 21,-3 19,-1 12,2 17,5 13,1 24,-3 25,-5 v -23 l -18,-2 -21,-7 -29,-11 -24,-8 -21,-4 -18,-2 -17,-1 z"
     fill="#1b1f69"
     id="path26" />
  <path
     d="m 1460.8092,1827 h 9 l 11,1 h 25 l 8,-1 -2,26 v 18 l 1,15 -22,2 -15,-1 -17,-3 -2,-1 3,-32 z"
     fill="#fdfdfd"
     id="path27" />
  <path
     d="m 1361.8092,881 h 4 v 21 l -3,63 -4,58 -5,44 -11,56 -11,70 -12,84 -11,85 -4,36 v 16 l 3,15 5,15 7,12 16,21 14,19 13,17 16,21 24,32 -4,2 -14,-18 -12,-16 -16,-21 -9,-12 -16,-21 -14,-19 -7,-11 -5,-11 -4,-13 -2,-12 v -17 l 6,-53 12,-90 12,-82 8,-50 7,-36 4,-22 4,-34 4,-51 z"
     fill="#192152"
     id="path28" />
  <path
     d="m 1777.8092,1309 h 9 l 11,4 8,7 5,8 2,7 v 10 l -5,12 -5,6 -11,6 -4,1 h -11 l -10,-4 -8,-7 -5,-8 -2,-6 v -10 l 4,-11 7,-8 8,-5 z"
     fill="#020940"
     id="path29" />
  <path
     d="m 1373.8092,882 h 4 l 1,66 6,122 13,257 7,150 3,82 v 54 h -1 v -30 h -2 v 17 h -1 l -1,-26 -3,-4 v -3 h 4 l -1,-9 -3,-83 -6,-128 -5,-100 -7,-138 -6,-115 -2,-43 z"
     fill="#24296b"
     id="path30" />
  <path
     d="m 1007.8092,286 6,2 47,24 16,9 -2,4 -12,11 -9,9 -8,7 -8,8 -8,7 -8,6 -2,-7 -12,-76 z"
     fill="#515a74"
     id="path31" />
  <path
     d="m 1561.8092,871 4,2 15,25 12,23 10,25 5,17 2,11 1,12 v 28 l -3,24 -6,23 -7,19 -10,22 -9,25 -6,23 -4,22 -2,18 -3,50 -14,294 -1,9 h -1 v -7 h -2 v 15 h -1 v -20 l 9,-191 6,-121 3,-41 4,-25 7,-27 7,-20 14,-32 8,-24 4,-20 2,-17 v -29 l -3,-21 -6,-20 -10,-24 -11,-21 -15,-25 z"
     fill="#22266b"
     id="path32" />
  <path
     d="m 1859.8092,28 h 2 v 14 l -5,88 -1,9 -26,-10 -17,-7 -1,-3 15,-29 12,-22 17,-33 z"
     fill="#515a74"
     id="path33" />
  <path
     d="m 1489.8092,1493 2,2 v 69 l -5,133 -5,100 -1,15 -1,3 v 11 l -3,2 -16,-1 v 24 l -1,13 h -1 l -1,-21 h -1 l -1,-17 -34,-7 -17,-5 -1,-1 -1,-40 v -162 l 2,-28 h 2 l 1,185 1,42 14,4 28,6 24,3 4,-67 5,-116 4,-117 1,-9 z"
     fill="#272c6c"
     id="path34" />
  <path
     d="m 920.8092,1379 h 14 l 10,5 7,9 3,8 v 10 l -4,10 -4,5 -10,6 -3,1 h -13 l -10,-5 -8,-9 -3,-9 v -8 l 4,-11 5,-6 z"
     fill="#515a74"
     id="path35" />
  <path
     d="m 1620.8092,1727 4,1 15,23 1,3 -5,12 -8,12 -9,10 -9,8 -7,4 -10,-16 -10,-13 -2,-3 v -3 l 8,-7 13,-13 8,-7 z"
     fill="#fdfdfd"
     id="path36" />
  <path
     d="m 1482.8092,552 1,2 -10,16 -20,28 -12,16 -10,13 -16,20 -9,11 -12,14 -14,15 -17,17 -16,12 -4,2 h -3 l 1,-16 13,-12 54,-54 7,-8 9,-9 7,-8 14,-15 9,-10 11,-13 11,-14 z"
     fill="#091046"
     id="path37" />
  <path
     d="m 60.809202,1121 10,3 41.999998,15 29,11 2,1 v 3 l -7,-1 -74.999998,-27 -2,5 -11,17 -29,44 -12.9999995,20 -1,3 11.9999995,11 15,14 8,7 13,12 12,11 4,-2 12,-12 7,-8 11.999998,-12 7,-8 5,-5 -1,-5 -9,-10 -7.999998,-10 -9,-10 -3,-4 -9,14 -7,10 -3,-1 2,-5 12,-20 3,-4 4,1 23.999998,28 9,11 2,4 -15,16 -8.999998,9 -7,8 -16,16 -4,5 -4,-1 -13,-12 -15,-14 -8,-7 -16,-15 -11.99999955,-11 -1,-2 10.99999955,-17 16,-25 18,-27 z"
     fill="#1b1e6a"
     id="path38" />
  <path
     d="m 1371.8092,136 3,1 h -2 v 27 l 2,22 v 30 l -4,23 -5,16 -3,10 10,3 5,2 2,6 2,12 2,27 1,3 11,4 h 9 l 21,-7 24,-11 1,2 -1,6 -1,-2 -13,6 3,28 v 35 l -3,20 -5,1 3,-24 v -29 l -2,-22 v -7 l -23,8 -11,1 -12,-3 -5,-4 -2,-5 -2,-28 -2,-13 -12,-5 -5,-5 3,-9 4,-13 4,-20 1,-7 v -31 l -2,-21 v -24 l 3,-1 z"
     fill="#1e2269"
     id="path39" />
  <path
     d="m 401.8092,207 h 1 v 10 l -11,16 -39,54 -12,17 -26,36 -10,14 -39,54 -10,14 -13,18 -10,14 -12,16 -2,4 v -3 l -3,-1 6,-9 13,-18 10,-14 13,-18 12,-17 11,-15 26,-36 12,-17 39,-54 10,-14 13,-18 12,-17 8,-11 z"
     fill="#191c69"
     id="path40" />
  <path
     d="m 390.8092,186 2,4 2,2 h -2 l -2,5 -10,13 -12,17 -13,18 -12,17 -39,54 -12,17 -14,19 -12,17 -39,54 -12,17 -4,5 -5,3 -3,2 2,-4 13,-19 12,-16 12,-17 39,-54 12,-17 52,-72 12,-17 26,-36 6,-9 z"
     fill="#191d69"
     id="path41" />
  <path
     d="m 1456.8092,869 2,1 15,44 10,38 7,36 4,28 2,24 2,53 v 177 h -1 l -1,-159 -1,123 h -1 l -1,-136 -1,-39 -3,-42 -5,-35 -7,-34 -8,-30 -13,-40 -3,-8 z"
     fill="#21256b"
     id="path42" />
  <path
     d="m 1312.8092,1291 h 1 v 7 h 2 l 1,-4 -1,13 -10,81 -1,10 v 16 l 3,15 5,15 7,12 16,21 14,19 13,17 16,21 24,32 -4,2 -14,-18 -12,-16 -16,-21 -9,-12 -16,-21 -14,-19 -7,-11 -5,-11 -4,-13 -2,-12 v -17 l 6,-53 z"
     fill="#1f2369"
     id="path43" />
  <path
     d="m 1561.8092,871 4,2 15,25 12,23 10,25 5,17 2,11 1,12 v 28 l -3,24 -6,23 -7,19 -10,22 -9,25 -6,23 -3,7 h -1 v -13 l 8,-27 10,-25 8,-18 8,-24 4,-20 2,-17 v -29 l -3,-21 -6,-20 -10,-24 -11,-21 -15,-25 z"
     fill="#20246b"
     id="path44" />
  <path
     d="m 1392.8092,1310 h 1 l 1,14 3,3 7,150 3,82 v 54 h -1 v -30 h -2 v 17 h -1 l -1,-26 -3,-4 v -3 h 4 l -1,-9 -3,-83 -6,-128 -1,-21 z"
     fill="#282d6c"
     id="path45" />
  <path
     d="m 1722.8092,1817 h 2 v 8 l -5,12 -9,17 -11,17 -15,22 -13,18 -16,21 -9,12 -5,6 -14,8 -24,8 -23,5 -17,2 h -12 l -9,-2 -6,-4 -1,-4 4,1 6,3 6,1 h 12 l 26,-4 20,-5 19,-7 9,-5 3,-1 2,-4 14,-19 12,-16 13,-18 20,-30 11,-19 7,-16 1,-6 z"
     fill="#1a1e69"
     id="path46" />
  <path
     d="m 1520.8092,1953 h 1 v 8 l 3,-1 v 9 l -2,11 -1,2 -19,5 -27,5 -28,3 h -62 l -25,-2 -23,-3 -18,-4 -4,-4 v -25 h 1 l 1,19 1,-14 h 1 l 1,19 13,3 31,4 28,2 h 48 l 34,-3 28,-5 13,-3 h 3 z"
     fill="#191d66"
     id="path47" />
  <path
     d="m 882.8092,757 h 18 l 2,3 -2,2 -24,3 -19,5 -6,3 -3,5 22,-2 19,-3 18,-1 3,1 v 3 l -2,1 -23,3 -11,3 -5,3 1,5 2,1 13,-1 21,-3 19,-1 8,1 1,4 h -24 l -27,4 h -12 l -5,-3 -2,-4 1,-6 1,-2 -7,1 h -11 l -3,-2 v -7 l 6,-5 4,-3 -13,-1 -6,-2 v -1 l 20,-1 z"
     fill="#0d134a"
     id="path48" />
  <path
     d="m 202.8092,539 h 3 l 15,32 11,24 16,35 11,24 17,37 11,24 16,35 8,18 -2,5 -2,-2 -16,-36 -16,-34 -9,-20 -16,-35 -15,-33 -14,-30 -15,-33 -4,-10 z"
     fill="#1e226a"
     id="path49" />
  <path
     d="m 528.8092,262 4,5 2,5 v 10 l -4,8 -10,10 -6,3 h -12 l -8,-5 -2,-4 13,-12 11,-10 8,-7 z"
     fill="#fdfdfd"
     id="path50" />
  <path
     d="m 594.8092,684 4,4 26,58 14,31 -1,2 -4,-1 -36,-81 -1,-5 h -2 l -1,5 -20,53 -19,49 -4,11 -1,-2 -3,1 1,-5 15,-40 19,-49 11,-29 z"
     fill="#1b1f69"
     id="path51" />
  <path
     d="m 1404.8092,1583 h 2 l 1,185 1,46 -5,-1 -1,-40 v -162 z"
     fill="#1e2553"
     id="path52" />
  <path
     d="m 1446.8092,310 h 2 l -1,12 6,18 v 9 l -4,11 -6,15 -1,5 v 12 l 1,6 h -8 l 2,-19 v -35 l -3,-28 z"
     fill="#fdfdfd"
     id="path53" />
  <path
     d="m 1481.8092,1708 2,2 1,8 v 23 l -4,71 -1,3 v 11 l -3,2 -16,-1 v 24 l -1,13 h -1 l -1,-21 h -1 l -1,-17 -34,-7 -15,-4 1,-5 23,6 27,5 17,2 4,-67 2,-43 z"
     fill="#292e6c"
     id="path54" />
  <path
     d="m 556.8092,527 3,1 5,10 36,83 40,92 11,26 -4,2 -20,-46 -36,-83 -13,-30 -16,-37 -6,-15 z"
     fill="#1c2454"
     id="path55" />
  <path
     d="m 1383.8092,1111 2,1 2,17 9,177 v 23 l -2,-4 -1,-1 -1,-14 -1,-5 -5,-99 -4,-75 v -19 z"
     fill="#21256a"
     id="path56" />
  <path
     d="m 1542.8092,1536 h 2 l 1,5 4,5 9,12 16,21 10,13 13,17 16,21 9,12 16,21 8,11 -1,4 -3,-1 -10,-14 -16,-21 -12,-16 -26,-34 -10,-13 -16,-21 -6,-8 -1,6 -1,22 h -1 v -9 h -2 v -18 z"
     fill="#19214f"
     id="path57" />
  <path
     d="m 1019.8092,759 h 1 l 1,8 14,-1 v 5 l -15,1 v 11 h 15 l 1,5 h -15 l 1,11 5,3 10,2 1,4 -10,-1 -8,-3 -3,-3 -1,-9 -30,6 -18,2 -15,-1 -18,-6 -1,-4 9,2 11,3 13,1 24,-3 20,-4 h 5 v -23 h -12 v -1 h 12 l 2,-4 z"
     fill="#1c206a"
     id="path58" />
  <path
     d="m 1496.8092,1110 h 1 v 216 l -2,32 -2,2 v -104 l 1,-22 1,-123 z"
     fill="#0d0f67"
     id="path59" />
  <path
     d="m 80.809202,1178 4,1 23.999998,28 9,11 2,4 -15,16 -8.999998,9 -7,8 -16,16 -4,5 -4,-1 -1,-3 h 4 l 2,-4 12,-12 7,-8 11.999998,-12 7,-8 5,-5 -1,-5 -9,-10 -7.999998,-10 -9,-10 -3,-4 -9,14 -7,10 -3,-1 2,-5 12,-20 z"
     fill="#1a1e69"
     id="path60" />
  <path
     d="m 1361.8092,881 h 4 v 21 l -3,63 -4,58 -2,13 h -1 l -1,-8 -1,-1 1,-20 3,-46 z"
     fill="#1d2266"
     id="path61" />
  <path
     d="m 1530.8092,1770 h 1 l 1,12 1,-6 h 1 v 18 l -1,21 -2,5 -10,5 h -3 l -3,32 1,30 -2,-1 v -6 h -2 l -2,-9 v -18 l 2,-21 1,-5 -8,2 h -25 l -4,-2 2,-2 v -10 h 1 v 9 h 20 l 15,-2 11,-4 3,-3 z"
     fill="#1f2369"
     id="path62" />
  <path
     d="m 1307.8092,1440 4,1 6,12 14,19 16,21 14,19 14,18 9,12 16,21 2,4 -4,1 -14,-18 -12,-16 -16,-21 -9,-12 -16,-21 -14,-19 -7,-11 -3,-6 z"
     fill="#19214f"
     id="path63" />
  <path
     d="m 1540.8092,1555 h 1 v 14 h 2 v 29 l -6,129 h -1 l -1,-26 h -1 v -17 z"
     fill="#1f2462"
     id="path64" />
  <path
     d="m 1564.8092,1149 h 1 l 1,7 1,3 -4,31 -3,50 -3,63 h -1 l -1,-28 -1,-1 v -14 l 3,-57 2,-25 4,-25 z"
     fill="#21256a"
     id="path65" />
  <path
     d="m 1602.8092,1047 h 1 v 7 l -8,24 -11,24 -9,25 -6,23 -3,7 h -1 v -13 l 8,-27 10,-25 8,-18 8,-24 z"
     fill="#1b1f68"
     id="path66" />
  <path
     d="m 1535.8092,1699 h 1 l 1,43 14,18 11,15 1,6 -4,-2 -14,-19 -8,-10 -1,3 -1,18 -3,14 h -1 v -36 l 2,-45 z"
     fill="#1a2151"
     id="path67" />
  <path
     d="m 1494.8092,1061 h 1 l 1,7 1,21 1,4 v 177 h -1 l -1,-159 -1,123 h -1 l -1,-136 v -36 z"
     fill="#3c446b"
     id="path68" />
  <path
     d="m 882.8092,757 h 18 l 2,3 -2,2 -24,3 -19,5 -6,3 -3,5 h 14 l -3,4 h -11 l -3,-2 v -7 l 6,-5 4,-3 -13,-1 -6,-2 v -1 l 20,-1 z"
     fill="#0c1348"
     id="path69" />
  <path
     d="m 1489.8092,1493 2,2 v 69 l -1,28 -1,5 -1,17 h -3 v -31 l 2,-60 1,-9 z"
     fill="#2a2f6d"
     id="path70" />
  <path
     d="m 1403.8092,1477 h 1 l 3,82 v 54 h -1 v -30 h -2 v 17 h -1 l -1,-26 -3,-4 v -3 h 4 l -1,-9 -1,-32 v -18 h 1 z"
     fill="#30385f"
     id="path71" />
  <path
     d="m 594.8092,684 4,4 26,58 14,31 -1,2 -4,-1 -36,-81 -1,-5 -4,2 v -8 z"
     fill="#1c2352"
     id="path72" />
  <path
     d="m 1380.8092,1011 h 1 l 5,98 v 14 h -1 l -1,-11 h -2 l -1,-3 -4,-76 v -17 h 1 v 7 h 2 z"
     fill="#262b69"
     id="path73" />
  <path
     d="m 1407.8092,1810 23,6 27,5 18,2 v 4 1 l -15,-1 v 24 l -1,13 h -1 l -1,-21 h -1 l -1,-17 -34,-7 -15,-4 z"
     fill="#1d2169"
     id="path74" />
  <path
     d="m 1545.8092,1445 h 1 l 1,16 1,-7 h 1 v 17 l -3,63 -1,9 h -1 v -7 h -2 v 15 h -1 v -20 z"
     fill="#24286b"
     id="path75" />
  <path
     d="m 5.8092025,1207 3,2 -3,6 11.9999995,11 15,14 8,7 13,12 12,11 2,2 -5,1 -10,-9 -16,-15 -8,-7 -16,-15 -11.99999955,-11 -1,-2 4.00000005,-6 z"
     fill="#1c2069"
     id="path76" />
  <path
     d="m 1494.8092,1234 h 1 l 1,10 v 98 l -1,16 -2,2 v -104 z"
     fill="#0a1146"
     id="path77" />
  <path
     d="m 1433.8092,323 3,1 2,20 v 35 l -3,20 -5,1 3,-24 v -29 l -1,-13 v -10 z"
     fill="#23276b"
     id="path78" />
  <path
     d="m 616.8092,664 3,1 18,41 14,33 -4,2 -20,-46 -11,-26 z"
     fill="#1d2452"
     id="path79" />
  <path
     d="m 1549.8092,1377 2,1 v 51 l -1,19 -2,13 -2,1 v -38 l 2,-44 z"
     fill="#24286c"
     id="path80" />
  <path
     d="m 1392.8092,1310 h 1 l 1,14 3,3 3,62 v 14 h -1 l -1,-11 -3,-2 -3,-64 z"
     fill="#252a6b"
     id="path81" />
  <path
     d="m 1315.8092,1953 h 1 l 1,19 1,-14 h 1 l 1,19 13,3 31,4 12,1 v 1 l -12,1 2,2 -16,-1 -23,-4 -10,-3 -2,-3 z"
     fill="#23286b"
     id="path82" />
  <path
     d="m 1383.8092,1111 2,1 2,17 1,19 v 38 l -2,1 -2,-20 -2,-36 v -19 z"
     fill="#24296b"
     id="path83" />
  <path
     d="m 1357.8092,961 h 1 l 1,12 2,-4 v 12 l -4,52 -2,3 -1,-8 -1,-1 1,-20 z"
     fill="#22276a"
     id="path84" />
  <path
     d="m 1490.8092,1006 3,2 3,32 1,21 v 28 h -1 l -1,-21 -1,-6 -2,-3 -3,-42 v -10 z"
     fill="#23276b"
     id="path85" />
  <path
     d="m 1492.8092,1316 h 1 l 1,42 1,-16 h 1 v 40 l -1,42 h -1 l -2,-23 h -1 v -31 z"
     fill="#30366d"
     id="path86" />
  <path
     d="m 537.8092,271 h 1 v 12 l -4,8 -9,10 -8,5 -3,1 h -12 l -8,-4 -2,-3 3,-2 7,4 h 12 l 7,-4 9,-9 3,-7 1,-8 z"
     fill="#1d206a"
     id="path87" />
  <path
     d="m 248.8092,589 h 4 l 9,20 7,15 11,24 -2,4 -3,-4 -16,-35 -10,-22 z"
     fill="#1c2453"
     id="path88" />
  <path
     d="m 1021.8092,787 h 10 l 5,1 1,6 v 10 l -10,-1 -5,-3 -1,-1 -1,-11 z"
     fill="#fdfdfd"
     id="path89" />
  <path
     d="m 556.8092,527 3,1 5,10 13,30 8,19 -2,4 -2,-2 -19,-44 -6,-15 z"
     fill="#1b2351"
     id="path90" />
  <path
     d="m 1371.8092,136 3,1 h -2 v 27 l 2,22 v 14 h -1 l -1,-11 -1,24 h -1 l -1,-29 -2,-21 v -24 l 3,-1 z"
     fill="#30366d"
     id="path91" />
  <path
     d="m 1364.8092,1988 h 28 l 6,1 30,1 -2,3 h -41 l -16,-1 -8,-2 z"
     fill="#161d4d"
     id="path92" />
  <path
     d="m 1561.8092,871 4,2 15,25 12,23 1,4 -4,1 -9,-19 -14,-24 -6,-11 z"
     fill="#1f2654"
     id="path93" />
  <path
     d="m 1754.8092,749 h 43 l 5,1 -1,3 -4,1 h -39 l -4,-1 z"
     fill="#20246b"
     id="path94" />
  <path
     d="m 1456.8092,869 2,1 15,44 2,10 -4,1 -9,-29 -7,-20 -2,-6 z"
     fill="#202855"
     id="path95" />
  <path
     d="m 1839.8092,749 h 31 l 1,4 -4,1 h -39 l -5,-2 v -2 z"
     fill="#1f236b"
     id="path96" />
  <path
     d="m 864.8092,742 h 5 v 2 l 6,1 v 2 l -25,4 -10,3 -2,4 5,2 v 1 h -8 l -2,-2 1,-6 5,-4 14,-4 -3,-2 h 14 z"
     fill="#21266b"
     id="path97" />
  <path
     d="m 1492.8092,1383 h 1 l 1,25 v 23 l -1,27 -2,4 -1,-2 v -48 z"
     fill="#0d144a"
     id="path98" />
  <path
     d="m 1391.8092,1262 h 1 l 2,21 1,4 1,19 v 23 l -2,-4 -1,-1 -1,-14 -1,-5 -1,-18 v -20 z"
     fill="#181d60"
     id="path99" />
  <path
     d="m 1488.8092,1597 h 1 v 24 l -2,51 h -1 l -1,-25 -1,11 h -1 v -18 l 1,-26 h 4 z"
     fill="#2a306c"
     id="path100" />
  <path
     d="m 1403.8092,1477 h 1 l 2,52 v 25 h -1 l -1,-16 -1,20 h -1 l -1,-32 v -18 h 1 z"
     fill="#32386d"
     id="path101" />
  <path
     d="m 1440.8092,1988 h 25 l 3,2 -1,1 -20,2 h -21 l 1,-2 -29,-1 v -1 z"
     fill="#212855"
     id="path102" />
  <path
     d="m 793.8092,57 h 48 v 3 l -2,1 h -43 l -3,-2 z"
     fill="#060766"
     id="path103" />
  <path
     d="m 724.8092,57 h 47 v 3 l -6,1 h -41 z"
     fill="#383f6f"
     id="path104" />
  <path
     d="m 1398.8092,1390 h 1 l 2,20 v 33 h -2 l -2,-11 -1,-23 v -18 z"
     fill="#22266a"
     id="path105" />
  <path
     d="m 1024.8092,771 h 11 l 1,11 -1,1 h -15 v -11 z"
     fill="#fdfdfd"
     id="path106" />
  <path
     d="m 1371.8092,188 2,1 1,11 v 16 l -4,23 -3,1 -1,3 h -1 l 1,-9 3,-19 1,-2 z"
     fill="#1f236a"
     id="path107" />
  <path
     d="m 562.8092,768 h 2 l -1,8 -13,34 -1,-2 -3,1 1,-5 13,-34 z"
     fill="#1a1e65"
     id="path108" />
  <path
     d="m 902.8092,772 8,1 v 3 l -2,1 -23,3 h -9 v -2 l -3,-1 v 2 l -3,-1 v -2 l 19,-3 z"
     fill="#191d68"
     id="path109" />
  <path
     d="m 1535.8092,1661 h 1 v 9 h 2 v -5 h 1 v 21 l -2,41 h -1 l -1,-26 h -1 v -17 z"
     fill="#2d326d"
     id="path110" />
  <path
     d="m 1378.8092,972 h 1 l 1,20 v 31 h -2 l -2,-12 -1,-17 v -16 h 2 z"
     fill="#1d216a"
     id="path111" />
  <path
     d="m 1810.8092,764 h 3 l 1,30 v 17 l -4,1 z"
     fill="#0f1649"
     id="path112" />
  <path
     d="m 1388.8092,1167 h 1 l 2,39 v 15 h -1 v -10 h -2 v 16 h -1 l -2,-37 v -16 h 1 l 1,12 z"
     fill="#2d336c"
     id="path113" />
  <path
     d="m 1576.8092,1115 h 1 l -1,9 -6,21 -3,11 -2,1 v -13 l 8,-27 z"
     fill="#181f52"
     id="path114" />
  <path
     d="m 1550.8092,1340 h 1 l 1,15 1,-5 h 1 v 16 l -2,41 h -1 l -1,-29 -1,-1 v -15 z"
     fill="#2c326d"
     id="path115" />
  <path
     d="m 780.8092,71 h 3 l 1,47 -4,1 z"
     fill="#070e45"
     id="path116" />
  <path
     d="m 1545.8092,1445 h 1 l 1,16 1,-7 h 1 v 17 l -2,41 h -1 v -29 h -2 v -15 z"
     fill="#2e336d"
     id="path117" />
  <path
     d="m 855.8092,741 h 42 v 3 l -12,2 h -10 l -6,-2 v -2 l -6,2 -16,-1 v -1 z"
     fill="#0a0d63"
     id="path118" />
  <path
     d="m 1530.8092,1770 h 1 l 1,12 1,-6 h 1 v 18 l -1,21 -4,-1 v -24 z"
     fill="#252a6a"
     id="path119" />
  <path
     d="m 80.809202,1178 4,1 3,5 -4,1 h -2 l -13,21 -4,2 v -4 l 8,-14 z"
     fill="#1e2269"
     id="path120" />
  <path
     d="m 829.8092,728 2,1 -1,8 23,2 22,1 v 1 l -20,1 -16,1 -10,-2 -3,-4 v -6 z"
     fill="#242969"
     id="path121" />
  <path
     d="m 1555.8092,1239 h 1 v 12 h 2 l 1,-3 v 15 l -2,40 h -1 l -1,-28 -1,-1 v -14 z"
     fill="#2c316d"
     id="path122" />
  <path
     d="m 780.8092,0 h 3 v 48 h -3 z"
     fill="#030466"
     id="path123" />
  <path
     d="m 919.8092,787 14,1 1,4 h -24 l -16,1 -3,-1 v -2 l 15,-2 z"
     fill="#0b1152"
     id="path124" />
  <path
     d="m 1811.8092,692 2,1 v 47 h -3 v -47 z"
     fill="#030466"
     id="path125" />
  <path
     d="m 1540.8092,1555 h 1 v 14 h 2 v 29 l -1,23 h -1 l -1,-27 -1,-2 v -16 z"
     fill="#2d326c"
     id="path126" />
  <path
     d="m 1383.8092,1070 h 1 l 2,39 v 14 h -1 l -1,-11 h -2 l -1,-3 -1,-16 v -15 h 1 v 12 h 2 z"
     fill="#2b306c"
     id="path127" />
  <path
     d="m 84.809202,1184 5,1 12.999998,15 6,7 v 2 l -4,1 -10.999998,-13 -9,-11 z"
     fill="#192050"
     id="path128" />
  <path
     d="m 1030.8092,757 h 5 v 9 l -2,1 -12,1 -1,-1 v -5 l 4,-3 z"
     fill="#fdfdfd"
     id="path129" />
  <path
     d="m 1511.8092,1849 3,3 2,35 -2,-1 v -6 h -2 l -2,-9 v -18 z"
     fill="#171e55"
     id="path130" />
  <path
     d="m 1489.8092,1493 2,2 v 46 l -3,3 v -30 z"
     fill="#000641"
     id="path131" />
  <path
     d="m 1627.8092,1651 h 2 l 14,19 3,4 -1,4 -3,-1 -10,-14 -6,-8 z"
     fill="#1f2654"
     id="path132" />
  <path
     d="m 1301.8092,1410 h 2 l 4,19 3,12 -3,-1 -1,2 -5,-16 -1,-5 v -9 z"
     fill="#161b5a"
     id="path133" />
  <path
     d="m 1460.8092,1823 h 15 v 4 1 l -15,-1 v 24 l -1,13 h -1 v -36 z"
     fill="#1f236b"
     id="path134" />
  <path
     d="m 1486.8092,1578 3,4 v 15 l -1,17 h -3 v -31 z"
     fill="#11184c"
     id="path135" />
  <path
     d="m 882.8092,757 h 18 l 2,3 -2,2 -22,2 2,-6 z"
     fill="#1b1f68"
     id="path136" />
  <path
     d="m 1383.8092,661 v 3 l -39,39 h -2 l 1,15 h -3 l 1,-16 13,-12 z"
     fill="#323a60"
     id="path137" />
  <path
     d="m 1561.8092,871 4,2 12,20 v 4 h -3 l -9,-16 -5,-9 z"
     fill="#1a2252"
     id="path138" />
  <path
     d="m 864.8092,742 h 5 v 2 l 6,1 v 2 l -15,2 h -6 l -2,-1 1,-3 -3,-2 h 14 z"
     fill="#1e2555"
     id="path139" />
  <path
     d="m 1319.8092,1265 h 1 l -1,12 -2,15 -2,6 h -2 v -15 l 1,-7 2,-1 z"
     fill="#25296b"
     id="path140" />
  <path
     d="m 605.8092,640 h 3 l 10,23 -2,4 -3,-4 -8,-19 z"
     fill="#1b2252"
     id="path141" />
  <path
     d="m 1393.8092,1989 35,1 -2,3 h -27 l -5,-2 z"
     fill="#02045b"
     id="path142" />
  <path
     d="m 1358.8092,1001 h 1 l -1,22 -2,13 h -1 l -1,-8 -1,-1 1,-20 2,4 z"
     fill="#23276b"
     id="path143" />
  <path
     d="m 1402.8092,1474 h 1 v 35 l -2,-1 -1,-5 v -27 z"
     fill="#131a50"
     id="path144" />
  <path
     d="m 1484.8092,1646 2,1 v 33 l -3,3 v -25 z"
     fill="#000640"
     id="path145" />
  <path
     d="m 1477.8092,1796 h 1 l 1,6 v 24 l -4,2 -4,-2 3,-1 1,-15 z"
     fill="#0b1149"
     id="path146" />
  <path
     d="m 793.8092,57 h 12 l 14,1 v 1 l 20,1 v 1 h -43 l -3,-2 z"
     fill="#4a5372"
     id="path147" />
  <path
     d="m 1353.8092,1027 2,1 1,15 -2,12 -3,-6 1,-19 z"
     fill="#1d216a"
     id="path148" />
  <path
     d="m 1535.8092,1699 h 1 v 31 h -3 v -26 z"
     fill="#141b4d"
     id="path149" />
  <path
     d="m 1520.8092,1953 h 1 v 8 l 3,-1 v 9 l -2,11 -1,-2 h -3 z"
     fill="#23286b"
     id="path150" />
  <path
     d="m 1544.8092,1483 h 2 v 29 l -2,1 -1,-2 v -24 z"
     fill="#141b4c"
     id="path151" />
  <path
     d="m 568.8092,749 4,1 -3,10 -4,10 -1,-2 -3,1 3,-10 z"
     fill="#1f236a"
     id="path152" />
  <path
     d="m 1371.8092,136 3,1 h -2 l -1,3 -1,24 -3,-1 v -24 l 3,-1 z"
     fill="#15195f"
     id="path153" />
  <path
     d="m 1481.8092,1708 2,2 1,13 -1,12 -2,2 -1,-2 v -22 z"
     fill="#12194b"
     id="path154" />
  <path
     d="m 1549.8092,1377 2,1 v 27 l -2,1 -1,-2 v -24 z"
     fill="#141b4e"
     id="path155" />
  <path
     d="m 1321.8092,1251 1,4 -2,10 -3,11 -2,-1 1,-14 1,-7 h 2 z"
     fill="#1b2155"
     id="path156" />
  <path
     d="m 248.8092,589 h 4 l 8,17 -2,5 -2,-3 -8,-17 z"
     fill="#202854"
     id="path157" />
  <path
     d="m 1477.8092,1776 h 1 l 1,13 2,-3 v 11 l -1,15 h -1 l -1,-10 -2,3 v -12 z"
     fill="#2f356d"
     id="path158" />
  <path
     d="m 1590.8092,925 4,1 7,17 -1,2 -1,-1 -2,2 -7,-18 z"
     fill="#1e2364"
     id="path159" />
  <path
     d="m 1479.8092,1758 2,3 v 25 l -2,4 h -1 v -20 z"
     fill="#000641"
     id="path160" />
  <path
     d="m 1554.8092,1274 2,1 v 25 h -3 v -23 z"
     fill="#151c4f"
     id="path161" />
  <path
     d="m 616.8092,664 3,1 7,16 v 2 h -2 l -1,3 -7,-17 z"
     fill="#1e2657"
     id="path162" />
  <path
     d="m 1536.8092,1640 h 2 l 1,12 v 13 l -1,5 h -2 z"
     fill="#141b4d"
     id="path163" />
  <path
     d="m 1383.8092,1111 2,1 1,15 -1,10 -2,-1 -1,-5 v -19 z"
     fill="#131a4e"
     id="path164" />
  <path
     d="m 1380.8092,1060 3,3 v 27 h -2 l -1,-12 z"
     fill="#00073f"
     id="path165" />
  <path
     d="m 1468.8092,905 h 2 l 5,16 -1,3 -3,1 -4,-14 v -5 z"
     fill="#1f265b"
     id="path166" />
  <path
     d="m 1434.8092,377 h 1 l 1,6 v 11 l -1,5 -5,1 2,-14 z"
     fill="#1a2250"
     id="path167" />
  <path
     d="m 1385.8092,1158 3,3 v 25 l -2,1 -1,-13 z"
     fill="#000642"
     id="path168" />
  <path
     d="m 1403.8092,1537 2,1 1,16 v 16 h -1 l -1,-7 h -1 z"
     fill="#00073f"
     id="path169" />
  <path
     d="m 1602.8092,1047 h 1 v 7 l -4,13 h -2 v -10 l 3,-8 z"
     fill="#161d54"
     id="path170" />
  <path
     d="m 1312.8092,1291 h 1 v 7 h 2 l 1,-4 -1,13 -2,5 h -3 l 1,-14 z"
     fill="#262b6b"
     id="path171" />
  <path
     d="m 1532.8092,1752 h 1 l 1,10 v 14 l -2,9 h -1 v -20 z"
     fill="#000645"
     id="path172" />
  <path
     d="m 1367.8092,240 h 2 l -2,10 -3,8 -1,-2 -3,1 3,-11 2,-4 z"
     fill="#212569"
     id="path173" />
  <path
     d="m 725.8092,57 h 31 l -1,3 h -30 z"
     fill="#040566"
     id="path174" />
  <path
     d="m 1548.8092,1436 h 1 v 18 l -1,7 -2,1 v -22 z"
     fill="#000640"
     id="path175" />
  <path
     d="m 1625.8092,1728 3,2 h 2 l 8,12 -1,2 -5,-2 -7,-11 z"
     fill="#1d2358"
     id="path176" />
  <path
     d="m 599.8092,624 4,4 4,9 v 3 h -2 l -1,2 -6,-14 z"
     fill="#1e2555"
     id="path177" />
  <path
     d="m 1316.8092,1953 3,3 1,4 -1,5 -1,14 -2,1 z"
     fill="#0c1057"
     id="path178" />
  <path
     d="m 80.809202,1178 4,1 3,5 -4,1 h -2 l -2,3 -5,1 2,-5 z"
     fill="#1b1e69"
     id="path179" />
  <path
     d="m 1811.8092,715 h 1 l 1,9 v 16 h -3 v -20 z"
     fill="#050c46"
     id="path180" />
  <path
     d="m 906.8092,788 h 9 v 1 l -8,1 3,2 -16,1 -3,-1 v -2 z"
     fill="#1c2165"
     id="path181" />
  <path
     d="m 1553.8092,1333 h 1 v 17 l -2,6 h -1 v -22 z"
     fill="#000640"
     id="path182" />
  <path
     d="m 1569.8092,1137 h 1 v 8 l -3,11 -2,1 v -13 h 2 l 1,-6 z"
     fill="#192053"
     id="path183" />
  <path
     d="m 1390.8092,1554 4,1 8,11 -4,2 -7,-9 z"
     fill="#1b1f69"
     id="path184" />
  <path
     d="m 1462.8092,891 4,2 3,9 -1,4 -2,2 -4,-12 z"
     fill="#1a2152"
     id="path185" />
  <path
     d="m 1482.8092,552 1,2 -9,14 -4,2 -4,3 2,-4 z"
     fill="#343c61"
     id="path186" />
  <path
     d="m 1371.8092,188 2,1 1,11 v 9 l -3,3 z"
     fill="#010555"
     id="path187" />
  <path
     d="m 1596.8092,1060 2,4 -1,9 -2,5 -1,-3 -3,1 3,-10 z"
     fill="#212668"
     id="path188" />
  <path
     d="m 781.8092,20 h 1 l 1,28 h -3 V 30 Z"
     fill="#050b49"
     id="path189" />
  <path
     d="m 1531.8092,1749 h 4 v 22 h -1 l -1,-9 -2,3 z"
     fill="#31376e"
     id="path190" />
  <path
     d="m 1637.8092,1666 4,1 5,7 -1,4 -3,-1 -5,-7 z"
     fill="#181f54"
     id="path191" />
  <path
     d="m 1557.8092,1233 h 2 v 15 l -1,3 h -2 v -17 z"
     fill="#000643"
     id="path192" />
  <path
     d="m 550.8092,796 h 2 v 2 l 2,1 -4,11 -1,-2 -3,1 1,-5 z"
     fill="#1e2362"
     id="path193" />
  <path
     d="m 934.8092,789 9,2 7,2 -2,2 h -7 l -7,-3 z"
     fill="#151a62"
     id="path194" />
  <path
     d="m 1456.8092,1824 8,1 v 1 h -5 l -1,16 -2,1 z"
     fill="#1b2351"
     id="path195" />
  <path
     d="m 1355.8092,993 h 2 l 1,5 v 10 l -2,4 h -1 z"
     fill="#11184a"
     id="path196" />
  <path
     d="m 780.8092,71 h 3 v 15 l -3,1 z"
     fill="#1d2168"
     id="path197" />
  <path
     d="m 1305.8092,1426 2,3 3,12 -3,-1 -1,2 -3,-11 h 2 z"
     fill="#24296b"
     id="path198" />
  <path
     d="m 1398.8092,1426 h 2 l 1,2 v 15 h -2 l -1,-5 z"
     fill="#02045c"
     id="path199" />
  <path
     d="m 259.8092,608 3,2 3,9 -3,3 -4,-9 z"
     fill="#1b2354"
     id="path200" />
  <path
     d="m 837.8092,752 4,1 -3,3 1,3 4,2 h -8 l -2,-2 v -4 z"
     fill="#1b2061"
     id="path201" />
  <path
     d="m 1583.8092,1775 5,2 4,7 -4,1 -5,-6 z"
     fill="#191f58"
     id="path202" />
  <path
     d="m 1556.8092,1769 h 2 l 4,6 1,6 -4,-2 -4,-6 z"
     fill="#171e57"
     id="path203" />
  <path
     d="m 1576.8092,1115 h 1 l -1,9 -2,3 -1,-2 -2,1 2,-9 z"
     fill="#1b2159"
     id="path204" />
  <path
     d="m 1033.8092,752 h 2 l -1,5 -9,2 1,-4 z"
     fill="#20246b"
     id="path205" />
  <path
     d="m 885.8092,791 9,1 1,2 -12,1 v -1 l -5,-1 v -1 z"
     fill="#151c4f"
     id="path206" />
  <path
     d="m 562.8092,768 h 2 l -1,8 -2,2 -4,1 3,-9 z"
     fill="#181c65"
     id="path207" />
  <path
     d="m 1774.8092,1367 h 12 l 1,3 h -11 l -4,-2 z"
     fill="#21256b"
     id="path208" />
  <path
     d="m 1646.8092,1676 5,5 -1,5 -5,-5 v -4 z"
     fill="#1a1f61"
     id="path209" />
  <path
     d="m 1388.8092,1211 h 2 l 1,14 -2,2 -1,-1 z"
     fill="#000641"
     id="path210" />
  <path
     d="m 1564.8092,1149 h 1 l 1,7 1,3 -1,6 -1,-4 h -2 l -1,2 1,-10 z"
     fill="#2b306c"
     id="path211" />
  <path
     d="m 1380.8092,1060 3,3 v 10 l -3,1 z"
     fill="#00064b"
     id="path212" />
  <path
     d="m 848.8092,778 h 14 l -3,3 h -10 z"
     fill="#20246b"
     id="path213" />
  <path
     d="m 222.8092,460 2,1 -3,5 -1,4 -2,4 v -3 l -3,-1 6,-9 z"
     fill="#262d5c"
     id="path214" />
  <path
     d="m 1645.8092,1747 6,2 2,2 -6,1 -6,-2 v -2 z"
     fill="#1c2069"
     id="path215" />
  <path
     d="m 1315.8092,1284 h 1 v 10 l -1,4 h -2 v -10 z"
     fill="#000647"
     id="path216" />
  <path
     d="m 1353.8092,1027 2,1 v 11 h -3 v -9 z"
     fill="#141b4d"
     id="path217" />
  <path
     d="m 1811.8092,692 2,1 v 11 l -3,1 v -12 z"
     fill="#0f164a"
     id="path218" />
  <path
     d="m 780.8092,0 h 3 v 11 l -2,3 z"
     fill="#070e43"
     id="path219" />
  <path
     d="m 1403.8092,1554 h 3 v 16 h -1 l -1,-7 h -1 z"
     fill="#020462"
     id="path220" />
  <path
     d="m 556.8092,787 1,4 -3,7 h -2 l -1,-5 4,-2 z"
     fill="#101657"
     id="path221" />
  <path
     d="m 594.8092,684 3,2 -1,4 h -2 l -1,4 h -1 v -8 z"
     fill="#131a4d"
     id="path222" />
  <path
     d="m 1466.8092,1986 h 6 l -3,3 -15,-1 v -1 z"
     fill="#2b306d"
     id="path223" />
  <path
     d="m 1569.8092,1130 2,4 v 7 l -2,-3 -2,6 -1,-4 z"
     fill="#282d65"
     id="path224" />
  <path
     d="m 877.8092,793 h 7 l -1,3 h -12 l 4,-2 z"
     fill="#000646"
     id="path225" />
  <path
     d="m 1567.8092,1146 h 1 v 8 l -3,3 v -9 z"
     fill="#091049"
     id="path226" />
</svg>
